<svg width="108" height="41" viewBox="0 0 108 41" fill="none" xmlns="http://www.w3.org/2000/svg">
<path d="M36.188 12.18C36.044 12.18 35.892 12.124 35.732 12.012C35.58 11.908 35.448 11.764 35.336 11.58C35.232 11.388 35.18 11.168 35.18 10.92C35.188 10.632 35.236 10.316 35.324 9.972C35.412 9.62 35.54 9.272 35.708 8.928C35.876 8.584 36.084 8.268 36.332 7.98C36.588 7.692 36.88 7.464 37.208 7.296C37.536 7.12 37.904 7.032 38.312 7.032C38.528 7.032 38.692 7.072 38.804 7.152C38.916 7.224 38.972 7.312 38.972 7.416C38.972 7.544 38.932 7.676 38.852 7.812C38.78 7.94 38.7 8.004 38.612 8.004C38.548 8.004 38.492 7.976 38.444 7.92C38.404 7.864 38.364 7.796 38.324 7.716C38.276 7.628 38.216 7.548 38.144 7.476C38.072 7.396 37.968 7.356 37.832 7.356C37.64 7.356 37.44 7.472 37.232 7.704C37.024 7.936 36.828 8.232 36.644 8.592C36.468 8.952 36.324 9.332 36.212 9.732C36.1 10.132 36.044 10.496 36.044 10.824C36.044 11.088 36.096 11.268 36.2 11.364C36.304 11.46 36.444 11.508 36.62 11.508C36.876 11.508 37.08 11.46 37.232 11.364C37.384 11.26 37.536 11.136 37.688 10.992C37.744 10.936 37.784 10.896 37.808 10.872C37.84 10.848 37.88 10.836 37.928 10.836C37.992 10.836 38.024 10.888 38.024 10.992C38.024 11.056 37.972 11.152 37.868 11.28C37.772 11.408 37.636 11.544 37.46 11.688C37.292 11.824 37.096 11.94 36.872 12.036C36.656 12.132 36.428 12.18 36.188 12.18ZM39.1993 12.168C39.0953 12.168 38.9793 12.112 38.8513 12C38.7233 11.888 38.6593 11.768 38.6593 11.64C38.6593 11.592 38.6673 11.544 38.6833 11.496L40.9633 5.004C41.0033 4.892 41.0313 4.784 41.0473 4.68C41.0713 4.576 41.0833 4.472 41.0833 4.368C41.0833 4.296 41.0433 4.228 40.9633 4.164C40.8913 4.1 40.7993 4.056 40.6873 4.032C40.6073 4.016 40.5433 3.996 40.4953 3.972C40.4473 3.94 40.4233 3.908 40.4233 3.876C40.4233 3.852 40.4233 3.832 40.4233 3.816C40.4313 3.8 40.4393 3.784 40.4473 3.768C40.4633 3.752 40.4793 3.744 40.4953 3.744C40.6473 3.704 40.8313 3.668 41.0473 3.636C41.2633 3.596 41.4633 3.564 41.6473 3.54C41.8393 3.508 41.9673 3.492 42.0313 3.492C42.0713 3.492 42.1033 3.508 42.1273 3.54C42.1593 3.564 42.1753 3.608 42.1753 3.672C42.1753 3.72 42.1673 3.776 42.1513 3.84C42.1353 3.896 42.1193 3.952 42.1033 4.008L39.6793 10.92C39.6553 10.984 39.6393 11.048 39.6313 11.112C39.6233 11.168 39.6193 11.22 39.6193 11.268C39.6193 11.396 39.6593 11.46 39.7393 11.46C39.8513 11.46 39.9873 11.4 40.1473 11.28C40.3153 11.152 40.4793 11 40.6393 10.824C40.7993 10.648 40.9273 10.492 41.0233 10.356C41.0713 10.292 41.1273 10.232 41.1913 10.176C41.2553 10.112 41.3033 10.08 41.3353 10.08C41.3673 10.08 41.3833 10.096 41.3833 10.128C41.3913 10.152 41.3953 10.188 41.3953 10.236C41.3953 10.396 41.3393 10.564 41.2273 10.74C41.1233 10.916 40.9833 11.092 40.8073 11.268C40.6313 11.436 40.4433 11.588 40.2433 11.724C40.0433 11.86 39.8513 11.968 39.6673 12.048C39.4833 12.128 39.3273 12.168 39.1993 12.168ZM42.7529 12.168C42.6169 12.168 42.5049 12.124 42.4169 12.036C42.3289 11.948 42.2849 11.856 42.2849 11.76C42.2849 11.728 42.2849 11.696 42.2849 11.664C42.2929 11.632 42.3049 11.6 42.3209 11.568C42.6489 10.904 42.9249 10.28 43.1489 9.696C43.3729 9.104 43.5729 8.588 43.7489 8.148C43.7809 8.052 43.7609 8.004 43.6889 8.004C43.6489 8.004 43.5689 8.028 43.4489 8.076C43.3369 8.116 43.2169 8.172 43.0889 8.244C42.9609 8.316 42.8489 8.388 42.7529 8.46C42.7129 8.492 42.6729 8.5 42.6329 8.484C42.5929 8.468 42.5729 8.44 42.5729 8.4C42.5729 8.36 42.6009 8.304 42.6569 8.232C42.7209 8.152 42.8049 8.064 42.9089 7.968C43.0209 7.872 43.1529 7.772 43.3049 7.668C43.4569 7.556 43.6209 7.448 43.7969 7.344C43.9809 7.232 44.1729 7.132 44.3729 7.044C44.4449 7.012 44.5169 7.02 44.5889 7.068C44.6609 7.116 44.7169 7.176 44.7569 7.248C44.8049 7.32 44.8209 7.376 44.8049 7.416L43.3409 10.884C43.3089 10.948 43.2849 11.012 43.2689 11.076C43.2609 11.132 43.2569 11.184 43.2569 11.232C43.2569 11.288 43.2769 11.328 43.3169 11.352C43.3649 11.368 43.4089 11.376 43.4489 11.376C43.5609 11.376 43.6889 11.324 43.8329 11.22C43.9769 11.108 44.1289 10.976 44.2889 10.824C44.4569 10.664 44.6169 10.508 44.7689 10.356C44.7849 10.34 44.8009 10.332 44.8169 10.332C44.8329 10.332 44.8489 10.34 44.8649 10.356C44.8809 10.364 44.8889 10.376 44.8889 10.392C44.8889 10.52 44.8129 10.684 44.6609 10.884C44.5089 11.076 44.3169 11.272 44.0849 11.472C43.8609 11.664 43.6289 11.828 43.3889 11.964C43.1489 12.1 42.9369 12.168 42.7529 12.168ZM45.1769 5.844C45.0569 5.844 44.9569 5.796 44.8769 5.7C44.7969 5.604 44.7569 5.496 44.7569 5.376C44.7569 5.184 44.8209 5.016 44.9489 4.872C45.0769 4.72 45.2369 4.644 45.4289 4.644C45.5569 4.644 45.6569 4.7 45.7289 4.812C45.8009 4.916 45.8369 5.032 45.8369 5.16C45.8369 5.336 45.7729 5.496 45.6449 5.64C45.5169 5.776 45.3609 5.844 45.1769 5.844ZM46.5739 15.432C46.5339 15.44 46.4819 15.436 46.4179 15.42C46.3619 15.404 46.3339 15.372 46.3339 15.324C46.3339 15.26 46.3739 15.204 46.4539 15.156C46.5419 15.116 46.6219 15.092 46.6939 15.084C46.8619 15.06 47.0139 15 47.1499 14.904C47.2939 14.808 47.3939 14.684 47.4499 14.532C47.6099 14.1 47.7699 13.672 47.9299 13.248C48.0899 12.824 48.2499 12.4 48.4099 11.976C48.5779 11.544 48.7419 11.112 48.9019 10.68C48.9419 10.592 48.9419 10.524 48.9019 10.476C48.8699 10.42 48.8059 10.448 48.7099 10.56C48.4139 10.888 48.1219 11.176 47.8339 11.424C47.5459 11.664 47.2579 11.848 46.9699 11.976C46.6819 12.104 46.3939 12.168 46.1059 12.168C45.8499 12.168 45.6459 12.1 45.4939 11.964C45.3419 11.82 45.2659 11.644 45.2659 11.436C45.2659 11.1 45.3459 10.732 45.5059 10.332C45.6659 9.932 45.8779 9.532 46.1419 9.132C46.4139 8.732 46.7099 8.364 47.0299 8.028C47.3419 7.7 47.6859 7.44 48.0619 7.248C48.4379 7.056 48.7739 6.96 49.0699 6.96C49.2539 6.96 49.3979 6.992 49.5019 7.056C49.6139 7.12 49.6979 7.192 49.7539 7.272C49.8179 7.336 49.8659 7.396 49.8979 7.452C49.9299 7.508 49.9659 7.536 50.0059 7.536C50.0939 7.536 50.1699 7.472 50.2339 7.344L50.3419 7.116C50.3819 7.02 50.4299 6.956 50.4859 6.924C50.5499 6.884 50.6099 6.864 50.6659 6.864C50.7139 6.864 50.7459 6.904 50.7619 6.984C50.7779 7.056 50.7579 7.168 50.7019 7.32L48.3619 14.388C48.3059 14.556 48.3059 14.688 48.3619 14.784C48.4179 14.88 48.5219 14.936 48.6739 14.952C48.7539 14.96 48.8339 14.976 48.9139 15C48.9939 15.024 49.0339 15.068 49.0339 15.132C49.0339 15.18 48.9979 15.212 48.9259 15.228C48.8539 15.252 48.7739 15.264 48.6859 15.264C48.4219 15.264 48.1459 15.272 47.8579 15.288C47.5779 15.312 47.3219 15.336 47.0899 15.36C46.8579 15.384 46.6859 15.408 46.5739 15.432ZM46.4059 11.736C46.5659 11.736 46.7539 11.676 46.9699 11.556C47.1859 11.428 47.4059 11.268 47.6299 11.076C47.8619 10.876 48.0779 10.66 48.2779 10.428C48.4779 10.188 48.6419 9.96 48.7699 9.744C48.9459 9.44 49.0979 9.128 49.2259 8.808C49.3619 8.488 49.4299 8.204 49.4299 7.956C49.4299 7.852 49.4099 7.756 49.3699 7.668C49.3379 7.572 49.2859 7.496 49.2139 7.44C49.1499 7.384 49.0659 7.356 48.9619 7.356C48.8099 7.356 48.6139 7.448 48.3739 7.632C48.1419 7.808 47.8939 8.044 47.6299 8.34C47.3659 8.628 47.1179 8.948 46.8859 9.3C46.6539 9.644 46.4659 9.988 46.3219 10.332C46.1779 10.676 46.1059 10.988 46.1059 11.268C46.1059 11.428 46.1259 11.548 46.1659 11.628C46.2139 11.7 46.2939 11.736 46.4059 11.736ZM51.7298 12.168C51.6418 12.168 51.5498 12.128 51.4538 12.048C51.3658 11.976 51.2978 11.888 51.2498 11.784C51.2018 11.68 51.1898 11.596 51.2138 11.532L52.4738 8.496C52.5298 8.36 52.5658 8.244 52.5818 8.148C52.5978 8.052 52.5738 8.004 52.5098 8.004C52.4698 8.004 52.4018 8.036 52.3058 8.1C52.2178 8.164 52.1138 8.244 51.9938 8.34C51.8818 8.436 51.7658 8.536 51.6458 8.64C51.6298 8.656 51.5978 8.66 51.5498 8.652C51.5098 8.644 51.4898 8.628 51.4898 8.604C51.4898 8.572 51.4978 8.528 51.5138 8.472C51.5298 8.408 51.5698 8.332 51.6338 8.244C51.8338 7.972 52.0538 7.744 52.2938 7.56C52.5418 7.376 52.7738 7.236 52.9898 7.14C53.2138 7.036 53.3818 6.984 53.4938 6.984C53.5338 6.984 53.5778 7.008 53.6258 7.056C53.6818 7.096 53.7258 7.148 53.7578 7.212C53.7898 7.268 53.7898 7.324 53.7578 7.38C53.4938 7.924 53.2418 8.476 53.0018 9.036C52.7618 9.596 52.5218 10.148 52.2818 10.692C52.2098 10.852 52.1658 11 52.1498 11.136C52.1338 11.272 52.1658 11.34 52.2458 11.34C52.3258 11.34 52.4458 11.272 52.6058 11.136C52.7658 11 52.9458 10.824 53.1458 10.608C53.3538 10.392 53.5698 10.16 53.7938 9.912C54.0978 9.568 54.3898 9.212 54.6698 8.844C54.9578 8.476 55.2058 8.144 55.4138 7.848C55.6218 7.552 55.7578 7.344 55.8218 7.224C55.8618 7.144 55.9098 7.092 55.9658 7.068C56.0218 7.044 56.0738 7.032 56.1218 7.032C56.1698 7.032 56.2178 7.056 56.2658 7.104C56.3138 7.152 56.3498 7.208 56.3738 7.272C56.4058 7.336 56.4098 7.392 56.3858 7.44L54.8498 10.968C54.7858 11.12 54.7578 11.236 54.7658 11.316C54.7738 11.396 54.8138 11.436 54.8858 11.436C54.9898 11.436 55.1258 11.38 55.2938 11.268C55.4618 11.156 55.6338 11.028 55.8098 10.884C55.9858 10.732 56.1338 10.596 56.2538 10.476C56.2618 10.468 56.2738 10.464 56.2898 10.464C56.3138 10.464 56.3378 10.476 56.3618 10.5C56.3858 10.516 56.3978 10.54 56.3978 10.572C56.3978 10.588 56.3938 10.604 56.3858 10.62C56.3778 10.636 56.3658 10.656 56.3498 10.68C56.3418 10.704 56.3258 10.732 56.3018 10.764C56.2858 10.796 56.2618 10.832 56.2298 10.872C56.2058 10.904 56.1738 10.944 56.1338 10.992C55.9818 11.184 55.8058 11.372 55.6058 11.556C55.4058 11.732 55.1898 11.88 54.9578 12C54.7338 12.112 54.4938 12.168 54.2378 12.168C54.1338 12.168 54.0378 12.1 53.9498 11.964C53.8698 11.828 53.8538 11.708 53.9018 11.604C54.0138 11.364 54.1338 11.108 54.2618 10.836C54.3898 10.564 54.5018 10.312 54.5978 10.08C54.7018 9.848 54.7738 9.676 54.8138 9.564C54.8538 9.468 54.8498 9.416 54.8018 9.408C54.7538 9.4 54.7098 9.42 54.6698 9.468C54.2538 9.924 53.8858 10.324 53.5658 10.668C53.2458 11.004 52.9658 11.284 52.7258 11.508C52.4938 11.724 52.2938 11.888 52.1258 12C51.9658 12.112 51.8338 12.168 51.7298 12.168ZM58.0689 12.18C57.9009 12.18 57.7289 12.116 57.5529 11.988C57.3849 11.86 57.2449 11.7 57.1329 11.508C57.0209 11.308 56.9649 11.116 56.9649 10.932C56.9649 10.532 57.0449 10.108 57.2049 9.66C57.3729 9.204 57.6009 8.78 57.8889 8.388C58.1769 7.988 58.5089 7.664 58.8849 7.416C59.2689 7.16 59.6729 7.032 60.0969 7.032C60.3769 7.032 60.5929 7.092 60.7449 7.212C60.9049 7.324 60.9849 7.484 60.9849 7.692C60.9849 7.94 60.9049 8.156 60.7449 8.34C60.5929 8.524 60.3849 8.684 60.1209 8.82C59.8569 8.948 59.5609 9.056 59.2329 9.144C58.9129 9.232 58.5849 9.308 58.2489 9.372C58.2009 9.38 58.1609 9.392 58.1289 9.408C58.1049 9.416 58.0849 9.444 58.0689 9.492C58.0129 9.668 57.9569 9.86 57.9009 10.068C57.8449 10.276 57.8169 10.472 57.8169 10.656C57.8169 10.936 57.8689 11.152 57.9729 11.304C58.0849 11.456 58.2449 11.532 58.4529 11.532C58.7409 11.532 58.9849 11.46 59.1849 11.316C59.3849 11.172 59.5489 11.028 59.6769 10.884C59.7569 10.796 59.8289 10.752 59.8929 10.752C59.9729 10.752 60.0129 10.792 60.0129 10.872C60.0129 10.88 60.0129 10.896 60.0129 10.92C60.0129 10.936 60.0049 10.952 59.9889 10.968C59.8289 11.232 59.6489 11.456 59.4489 11.64C59.2489 11.816 59.0329 11.948 58.8009 12.036C58.5769 12.132 58.3329 12.18 58.0689 12.18ZM58.3329 9.096C58.4209 9.096 58.5689 9.072 58.7769 9.024C58.9929 8.968 59.2169 8.884 59.4489 8.772C59.6809 8.652 59.8769 8.508 60.0369 8.34C60.2049 8.164 60.2889 7.956 60.2889 7.716C60.2889 7.612 60.2609 7.524 60.2049 7.452C60.1489 7.372 60.0689 7.332 59.9649 7.332C59.7969 7.332 59.6129 7.404 59.4129 7.548C59.2209 7.684 59.0369 7.852 58.8609 8.052C58.6849 8.244 58.5369 8.432 58.4169 8.616C58.3049 8.8 58.2489 8.936 58.2489 9.024C58.2489 9.072 58.2769 9.096 58.3329 9.096ZM63.6347 12.408C63.4347 12.408 63.2507 12.344 63.0827 12.216C62.9147 12.088 62.7547 11.952 62.6027 11.808C62.4827 11.696 62.3707 11.596 62.2667 11.508C62.1707 11.42 62.0827 11.376 62.0027 11.376C61.7627 11.376 61.5747 11.448 61.4387 11.592C61.3107 11.728 61.2467 11.888 61.2467 12.072C61.2467 12.152 61.2227 12.2 61.1747 12.216C61.1347 12.232 61.0987 12.24 61.0667 12.24C61.0427 12.24 61.0107 12.208 60.9707 12.144C60.9307 12.08 60.9067 12.008 60.8987 11.928C60.8907 11.84 60.9067 11.74 60.9467 11.628C60.9947 11.508 61.0747 11.396 61.1867 11.292L64.6427 7.944L64.9187 7.848C64.8387 7.96 64.7667 8.044 64.7027 8.1C64.6387 8.148 64.5547 8.172 64.4507 8.172C64.3307 8.172 64.2067 8.148 64.0787 8.1C63.9587 8.044 63.8307 7.984 63.6947 7.92C63.5427 7.84 63.3827 7.768 63.2147 7.704C63.0467 7.64 62.8667 7.608 62.6747 7.608C62.5307 7.608 62.3987 7.668 62.2787 7.788C62.1587 7.9 62.0987 8.016 62.0987 8.136C62.0987 8.192 62.1067 8.26 62.1227 8.34C62.1387 8.42 62.1707 8.496 62.2187 8.568C62.2667 8.648 62.2667 8.72 62.2187 8.784C62.1627 8.84 62.0747 8.9 61.9547 8.964C61.8427 9.02 61.7667 9.048 61.7267 9.048C61.6867 9.048 61.6347 9.012 61.5707 8.94C61.5067 8.868 61.4747 8.768 61.4747 8.64C61.4747 8.424 61.5267 8.24 61.6307 8.088C61.7347 7.928 61.8827 7.76 62.0747 7.584C62.1707 7.496 62.2907 7.412 62.4347 7.332C62.5787 7.244 62.7227 7.172 62.8667 7.116C63.0107 7.06 63.1267 7.032 63.2147 7.032C63.3507 7.032 63.4827 7.052 63.6107 7.092C63.7467 7.132 63.8787 7.176 64.0067 7.224C64.1507 7.28 64.2867 7.332 64.4147 7.38C64.5427 7.428 64.6587 7.452 64.7627 7.452C64.8827 7.452 64.9787 7.432 65.0507 7.392C65.1307 7.352 65.2147 7.288 65.3027 7.2C65.3427 7.16 65.3987 7.116 65.4707 7.068C65.5427 7.012 65.6067 6.984 65.6627 6.984C65.6867 6.984 65.7107 7 65.7347 7.032C65.7587 7.056 65.7707 7.088 65.7707 7.128C65.7707 7.184 65.7347 7.272 65.6627 7.392C65.5907 7.504 65.4987 7.616 65.3867 7.728L61.9667 11.1L61.7867 11.016C61.8827 10.928 61.9627 10.876 62.0267 10.86C62.0987 10.836 62.1827 10.824 62.2787 10.824C62.4627 10.824 62.6307 10.876 62.7827 10.98C62.9347 11.084 63.0867 11.2 63.2387 11.328C63.3747 11.44 63.5067 11.544 63.6347 11.64C63.7707 11.736 63.9067 11.784 64.0427 11.784C64.2267 11.784 64.3587 11.728 64.4387 11.616C64.5187 11.496 64.5707 11.348 64.5947 11.172C64.6187 10.988 64.6307 10.808 64.6307 10.632C64.6307 10.488 64.6427 10.396 64.6667 10.356C64.6907 10.308 64.7387 10.284 64.8107 10.284C64.8987 10.284 64.9867 10.34 65.0747 10.452C65.1627 10.556 65.2067 10.704 65.2067 10.896C65.2067 11.064 65.1467 11.236 65.0267 11.412C64.9067 11.588 64.7587 11.752 64.5827 11.904C64.4067 12.056 64.2307 12.176 64.0547 12.264C63.8867 12.36 63.7467 12.408 63.6347 12.408ZM66.8918 15.432C66.8518 15.432 66.8118 15.424 66.7718 15.408C66.7238 15.392 66.6998 15.364 66.6998 15.324C66.6998 15.26 66.7438 15.204 66.8318 15.156C66.9118 15.116 66.9878 15.092 67.0598 15.084C67.2278 15.052 67.3598 15.008 67.4558 14.952C67.5518 14.896 67.6278 14.792 67.6838 14.64L69.9998 8.172C70.0398 8.06 70.0638 7.976 70.0718 7.92C70.0798 7.864 70.0678 7.828 70.0358 7.812C70.0038 7.788 69.9478 7.784 69.8678 7.8C69.6758 7.832 69.5078 7.868 69.3638 7.908C69.2278 7.94 69.0758 7.996 68.9078 8.076C68.8438 8.108 68.7838 8.116 68.7278 8.1C68.6798 8.076 68.6558 8.04 68.6558 7.992C68.6558 7.928 68.6718 7.876 68.7038 7.836C68.7438 7.796 68.7878 7.764 68.8358 7.74C68.9638 7.676 69.1478 7.588 69.3878 7.476C69.6278 7.364 69.9078 7.268 70.2278 7.188C70.2838 7.172 70.3278 7.152 70.3598 7.128C70.3998 7.096 70.4278 7.052 70.4438 6.996C70.5558 6.62 70.6598 6.348 70.7558 6.18C70.8518 6.012 70.9878 5.928 71.1638 5.928C71.2278 5.928 71.2838 5.948 71.3318 5.988C71.3798 6.028 71.3958 6.084 71.3798 6.156L71.1758 6.852C71.1518 6.932 71.1478 6.992 71.1638 7.032C71.1798 7.064 71.2038 7.076 71.2358 7.068C71.3398 7.052 71.4318 7.04 71.5118 7.032C71.5998 7.024 71.6838 7.02 71.7638 7.02C72.1638 7.02 72.4758 7.088 72.6998 7.224C72.9318 7.352 73.0918 7.532 73.1798 7.764C73.2758 7.988 73.3238 8.24 73.3238 8.52C73.3238 8.904 73.2358 9.308 73.0598 9.732C72.8838 10.148 72.6438 10.544 72.3398 10.92C72.0438 11.288 71.7078 11.588 71.3318 11.82C70.9638 12.052 70.5798 12.168 70.1798 12.168C70.1078 12.168 70.0278 12.144 69.9398 12.096C69.8518 12.048 69.7678 12 69.6878 11.952C69.6158 11.904 69.5558 11.892 69.5078 11.916C69.4678 11.932 69.4198 12.016 69.3638 12.168L68.5718 14.508C68.5158 14.676 68.5318 14.8 68.6198 14.88C68.7158 14.968 68.8638 15.02 69.0638 15.036C69.1438 15.044 69.2238 15.06 69.3038 15.084C69.3838 15.108 69.4238 15.152 69.4238 15.216C69.4238 15.264 69.3878 15.296 69.3158 15.312C69.2438 15.336 69.1638 15.348 69.0758 15.348C68.9558 15.348 68.8318 15.344 68.7038 15.336C68.5758 15.336 68.4558 15.336 68.3438 15.336C68.2398 15.336 68.1518 15.34 68.0798 15.348C67.8798 15.372 67.6878 15.392 67.5038 15.408C67.3118 15.424 67.1078 15.432 66.8918 15.432ZM70.4078 11.76C70.5918 11.76 70.7998 11.66 71.0318 11.46C71.2638 11.252 71.4838 10.988 71.6918 10.668C71.9078 10.348 72.0838 10.008 72.2198 9.648C72.3638 9.288 72.4358 8.948 72.4358 8.628C72.4358 8.18 72.3558 7.876 72.1958 7.716C72.0358 7.556 71.8118 7.472 71.5238 7.464C71.4518 7.464 71.3798 7.464 71.3078 7.464C71.2358 7.464 71.1558 7.472 71.0678 7.488L69.9638 10.728C69.9158 10.872 69.8878 11.008 69.8798 11.136C69.8798 11.256 69.8958 11.36 69.9278 11.448C69.9678 11.552 70.0238 11.632 70.0958 11.688C70.1758 11.736 70.2798 11.76 70.4078 11.76ZM74.7452 12.168C74.5532 12.168 74.3732 12.104 74.2052 11.976C74.0372 11.848 73.9012 11.68 73.7972 11.472C73.7012 11.264 73.6532 11.044 73.6532 10.812C73.6532 10.436 73.7252 10.032 73.8692 9.6C74.0212 9.16 74.2292 8.748 74.4932 8.364C74.7572 7.972 75.0612 7.652 75.4052 7.404C75.7572 7.156 76.1332 7.032 76.5332 7.032C76.9332 7.032 77.2412 7.168 77.4572 7.44C77.6812 7.712 77.7932 8.048 77.7932 8.448C77.7932 8.808 77.7212 9.204 77.5772 9.636C77.4332 10.06 77.2252 10.464 76.9532 10.848C76.6892 11.232 76.3692 11.548 75.9932 11.796C75.6252 12.044 75.2092 12.168 74.7452 12.168ZM74.9372 11.808C75.1292 11.808 75.3212 11.724 75.5132 11.556C75.7132 11.388 75.9012 11.168 76.0772 10.896C76.2612 10.624 76.4212 10.324 76.5572 9.996C76.7012 9.668 76.8132 9.34 76.8932 9.012C76.9812 8.684 77.0252 8.384 77.0252 8.112C77.0252 7.904 76.9892 7.732 76.9172 7.596C76.8532 7.46 76.7172 7.392 76.5092 7.392C76.3252 7.392 76.1332 7.468 75.9332 7.62C75.7412 7.772 75.5532 7.976 75.3692 8.232C75.1932 8.488 75.0332 8.776 74.8892 9.096C74.7452 9.408 74.6292 9.736 74.5412 10.08C74.4612 10.416 74.4212 10.744 74.4212 11.064C74.4212 11.328 74.4652 11.52 74.5532 11.64C74.6492 11.752 74.7772 11.808 74.9372 11.808ZM78.8118 12.168C78.7238 12.168 78.6318 12.128 78.5358 12.048C78.4478 11.976 78.3798 11.888 78.3318 11.784C78.2838 11.68 78.2718 11.596 78.2958 11.532L79.5558 8.496C79.6118 8.36 79.6478 8.244 79.6638 8.148C79.6798 8.052 79.6558 8.004 79.5918 8.004C79.5518 8.004 79.4838 8.036 79.3878 8.1C79.2998 8.164 79.1958 8.244 79.0758 8.34C78.9638 8.436 78.8478 8.536 78.7278 8.64C78.7118 8.656 78.6798 8.66 78.6318 8.652C78.5918 8.644 78.5718 8.628 78.5718 8.604C78.5718 8.572 78.5798 8.528 78.5958 8.472C78.6118 8.408 78.6518 8.332 78.7158 8.244C78.9158 7.972 79.1358 7.744 79.3758 7.56C79.6238 7.376 79.8558 7.236 80.0718 7.14C80.2958 7.036 80.4638 6.984 80.5758 6.984C80.6158 6.984 80.6598 7.008 80.7078 7.056C80.7638 7.096 80.8078 7.148 80.8398 7.212C80.8718 7.268 80.8718 7.324 80.8398 7.38C80.5758 7.924 80.3238 8.476 80.0838 9.036C79.8438 9.596 79.6038 10.148 79.3638 10.692C79.2918 10.852 79.2478 11 79.2318 11.136C79.2158 11.272 79.2478 11.34 79.3278 11.34C79.4078 11.34 79.5278 11.272 79.6878 11.136C79.8478 11 80.0278 10.824 80.2278 10.608C80.4358 10.392 80.6518 10.16 80.8758 9.912C81.1798 9.568 81.4718 9.212 81.7518 8.844C82.0398 8.476 82.2878 8.144 82.4958 7.848C82.7038 7.552 82.8398 7.344 82.9038 7.224C82.9438 7.144 82.9918 7.092 83.0478 7.068C83.1038 7.044 83.1558 7.032 83.2038 7.032C83.2518 7.032 83.2998 7.056 83.3478 7.104C83.3958 7.152 83.4318 7.208 83.4558 7.272C83.4878 7.336 83.4918 7.392 83.4678 7.44L81.9318 10.968C81.8678 11.12 81.8398 11.236 81.8478 11.316C81.8558 11.396 81.8958 11.436 81.9678 11.436C82.0718 11.436 82.2078 11.38 82.3758 11.268C82.5438 11.156 82.7158 11.028 82.8918 10.884C83.0678 10.732 83.2158 10.596 83.3358 10.476C83.3438 10.468 83.3558 10.464 83.3718 10.464C83.3958 10.464 83.4198 10.476 83.4438 10.5C83.4678 10.516 83.4798 10.54 83.4798 10.572C83.4798 10.588 83.4758 10.604 83.4678 10.62C83.4598 10.636 83.4478 10.656 83.4318 10.68C83.4238 10.704 83.4078 10.732 83.3838 10.764C83.3678 10.796 83.3438 10.832 83.3118 10.872C83.2878 10.904 83.2558 10.944 83.2158 10.992C83.0638 11.184 82.8878 11.372 82.6878 11.556C82.4878 11.732 82.2718 11.88 82.0398 12C81.8158 12.112 81.5758 12.168 81.3198 12.168C81.2158 12.168 81.1198 12.1 81.0318 11.964C80.9518 11.828 80.9358 11.708 80.9838 11.604C81.0958 11.364 81.2158 11.108 81.3438 10.836C81.4718 10.564 81.5838 10.312 81.6798 10.08C81.7838 9.848 81.8558 9.676 81.8958 9.564C81.9358 9.468 81.9318 9.416 81.8838 9.408C81.8358 9.4 81.7918 9.42 81.7518 9.468C81.3358 9.924 80.9678 10.324 80.6478 10.668C80.3278 11.004 80.0478 11.284 79.8078 11.508C79.5758 11.724 79.3758 11.888 79.2078 12C79.0478 12.112 78.9158 12.168 78.8118 12.168ZM84.6575 12.204C84.6175 12.204 84.5735 12.188 84.5255 12.156C84.4775 12.132 84.4375 12.096 84.4055 12.048C84.3735 12.008 84.3575 11.964 84.3575 11.916C84.3575 11.82 84.3815 11.7 84.4295 11.556C84.4855 11.404 84.5535 11.216 84.6335 10.992L85.7375 8.112C85.7775 8.008 85.7935 7.912 85.7855 7.824C85.7855 7.736 85.7455 7.692 85.6655 7.692C85.5535 7.692 85.4415 7.708 85.3295 7.74C85.2255 7.764 85.1455 7.792 85.0895 7.824C85.0415 7.856 84.9935 7.864 84.9455 7.848C84.9055 7.824 84.8855 7.784 84.8855 7.728C84.8855 7.664 84.9135 7.592 84.9695 7.512C85.0335 7.432 85.1175 7.356 85.2215 7.284C85.3175 7.212 85.4295 7.152 85.5575 7.104C85.6935 7.056 85.8335 7.032 85.9775 7.032C86.2015 7.032 86.3415 7.088 86.3975 7.2C86.4615 7.312 86.4695 7.464 86.4215 7.656C86.3815 7.84 86.3135 8.052 86.2175 8.292L85.6775 9.648C85.6455 9.704 85.6535 9.74 85.7015 9.756C85.7575 9.772 85.7975 9.76 85.8215 9.72C86.1415 9.168 86.4615 8.688 86.7815 8.28C87.1095 7.864 87.4135 7.544 87.6935 7.32C87.9735 7.088 88.2055 6.972 88.3895 6.972C88.5975 6.972 88.7415 7.032 88.8215 7.152C88.9095 7.272 88.9535 7.412 88.9535 7.572C88.9535 7.716 88.9255 7.864 88.8695 8.016C88.8215 8.168 88.7495 8.296 88.6535 8.4C88.5655 8.496 88.4655 8.544 88.3535 8.544C88.2895 8.544 88.2415 8.508 88.2095 8.436C88.1775 8.356 88.1615 8.252 88.1615 8.124C88.1615 8.004 88.1455 7.912 88.1135 7.848C88.0815 7.776 88.0215 7.74 87.9335 7.74C87.8535 7.74 87.7455 7.792 87.6095 7.896C87.4815 8 87.3175 8.18 87.1175 8.436C87.0295 8.556 86.9135 8.72 86.7695 8.928C86.6255 9.136 86.4695 9.368 86.3015 9.624C86.1415 9.872 85.9815 10.128 85.8215 10.392C85.6615 10.648 85.5215 10.884 85.4015 11.1C85.1855 11.484 85.0295 11.764 84.9335 11.94C84.8455 12.116 84.7535 12.204 84.6575 12.204ZM92.1587 12.18C91.9907 12.18 91.8187 12.116 91.6427 11.988C91.4747 11.86 91.3347 11.7 91.2227 11.508C91.1107 11.308 91.0547 11.116 91.0547 10.932C91.0547 10.532 91.1347 10.108 91.2947 9.66C91.4627 9.204 91.6907 8.78 91.9787 8.388C92.2667 7.988 92.5987 7.664 92.9747 7.416C93.3587 7.16 93.7627 7.032 94.1867 7.032C94.4667 7.032 94.6827 7.092 94.8347 7.212C94.9947 7.324 95.0747 7.484 95.0747 7.692C95.0747 7.94 94.9947 8.156 94.8347 8.34C94.6827 8.524 94.4747 8.684 94.2107 8.82C93.9467 8.948 93.6507 9.056 93.3227 9.144C93.0027 9.232 92.6747 9.308 92.3387 9.372C92.2907 9.38 92.2507 9.392 92.2187 9.408C92.1947 9.416 92.1747 9.444 92.1587 9.492C92.1027 9.668 92.0467 9.86 91.9907 10.068C91.9347 10.276 91.9067 10.472 91.9067 10.656C91.9067 10.936 91.9587 11.152 92.0627 11.304C92.1747 11.456 92.3347 11.532 92.5427 11.532C92.8307 11.532 93.0747 11.46 93.2747 11.316C93.4747 11.172 93.6387 11.028 93.7667 10.884C93.8467 10.796 93.9187 10.752 93.9827 10.752C94.0627 10.752 94.1027 10.792 94.1027 10.872C94.1027 10.88 94.1027 10.896 94.1027 10.92C94.1027 10.936 94.0947 10.952 94.0787 10.968C93.9187 11.232 93.7387 11.456 93.5387 11.64C93.3387 11.816 93.1227 11.948 92.8907 12.036C92.6667 12.132 92.4227 12.18 92.1587 12.18ZM92.4227 9.096C92.5107 9.096 92.6587 9.072 92.8667 9.024C93.0827 8.968 93.3067 8.884 93.5387 8.772C93.7707 8.652 93.9667 8.508 94.1267 8.34C94.2947 8.164 94.3787 7.956 94.3787 7.716C94.3787 7.612 94.3507 7.524 94.2947 7.452C94.2387 7.372 94.1587 7.332 94.0547 7.332C93.8867 7.332 93.7027 7.404 93.5027 7.548C93.3107 7.684 93.1267 7.852 92.9507 8.052C92.7747 8.244 92.6267 8.432 92.5067 8.616C92.3947 8.8 92.3387 8.936 92.3387 9.024C92.3387 9.072 92.3667 9.096 92.4227 9.096ZM95.7326 12.192C95.6846 12.192 95.6366 12.172 95.5886 12.132C95.5486 12.1 95.5126 12.056 95.4806 12C95.4486 11.952 95.4246 11.896 95.4086 11.832C95.4006 11.768 95.4086 11.712 95.4326 11.664L96.8246 8.256C96.9686 7.904 96.9766 7.728 96.8486 7.728C96.7686 7.728 96.6846 7.74 96.5966 7.764C96.5086 7.78 96.4126 7.828 96.3086 7.908C96.2046 7.988 96.0886 8.112 95.9606 8.28C95.9286 8.312 95.8926 8.328 95.8526 8.328C95.8206 8.32 95.7966 8.288 95.7806 8.232C95.7806 8.184 95.7926 8.124 95.8166 8.052C95.8486 7.972 95.8846 7.896 95.9246 7.824C95.9646 7.744 96.0006 7.68 96.0326 7.632C96.1526 7.448 96.3126 7.304 96.5126 7.2C96.7206 7.096 96.9606 7.04 97.2326 7.032C97.3206 7.032 97.4006 7.056 97.4726 7.104C97.5446 7.144 97.5966 7.204 97.6286 7.284C97.6686 7.364 97.6686 7.452 97.6286 7.548L96.8366 9.588C96.8126 9.644 96.8166 9.676 96.8486 9.684C96.8886 9.692 96.9206 9.676 96.9446 9.636C97.2726 9.076 97.6046 8.604 97.9406 8.22C98.2846 7.828 98.6126 7.532 98.9246 7.332C99.2366 7.132 99.5126 7.032 99.7526 7.032C99.9206 7.032 100.065 7.092 100.185 7.212C100.313 7.324 100.393 7.48 100.425 7.68C100.465 7.872 100.429 8.096 100.317 8.352L99.2126 10.968C99.0926 11.256 99.1126 11.4 99.2726 11.4C99.3686 11.4 99.4846 11.364 99.6206 11.292C99.7646 11.22 99.9086 11.136 100.053 11.04C100.197 10.936 100.321 10.844 100.425 10.764C100.537 10.676 100.609 10.616 100.641 10.584C100.649 10.576 100.653 10.572 100.653 10.572C100.661 10.572 100.669 10.572 100.677 10.572C100.701 10.572 100.721 10.584 100.737 10.608C100.761 10.624 100.773 10.648 100.773 10.68C100.773 10.744 100.757 10.8 100.725 10.848C100.517 11.096 100.293 11.32 100.053 11.52C99.8206 11.72 99.5766 11.88 99.3206 12C99.0726 12.112 98.8206 12.168 98.5646 12.168C98.4926 12.168 98.4206 12.14 98.3486 12.084C98.2766 12.036 98.2206 11.972 98.1806 11.892C98.1486 11.812 98.1526 11.728 98.1926 11.64C98.4246 11.104 98.6566 10.572 98.8886 10.044C99.1286 9.508 99.3526 8.972 99.5606 8.436C99.6886 8.108 99.7326 7.88 99.6926 7.752C99.6526 7.616 99.5766 7.544 99.4646 7.536C99.3766 7.528 99.2726 7.56 99.1526 7.632C99.0326 7.696 98.8966 7.8 98.7446 7.944C98.5926 8.08 98.4286 8.256 98.2526 8.472C98.1566 8.584 98.0286 8.76 97.8686 9C97.7086 9.232 97.5286 9.504 97.3286 9.816C97.1286 10.12 96.9206 10.448 96.7046 10.8C96.4966 11.144 96.2966 11.484 96.1046 11.82C96.0326 11.948 95.9686 12.04 95.9126 12.096C95.8566 12.16 95.7966 12.192 95.7326 12.192ZM35.312 28.168C35.136 28.168 34.984 28.116 34.856 28.012C34.728 27.916 34.664 27.792 34.664 27.64C34.664 27.456 34.708 27.32 34.796 27.232C34.876 27.136 34.944 27.088 35 27.088C35.056 27.088 35.112 27.112 35.168 27.16C35.232 27.2 35.3 27.252 35.372 27.316C35.46 27.38 35.556 27.444 35.66 27.508C35.772 27.564 35.916 27.592 36.092 27.592C36.308 27.592 36.48 27.516 36.608 27.364C36.736 27.204 36.804 27.036 36.812 26.86C36.812 26.684 36.78 26.496 36.716 26.296C36.66 26.088 36.576 25.884 36.464 25.684C36.36 25.492 36.272 25.312 36.2 25.144C36.136 24.968 36.104 24.82 36.104 24.7C36.104 24.468 36.164 24.252 36.284 24.052C36.412 23.844 36.564 23.664 36.74 23.512C36.924 23.36 37.104 23.244 37.28 23.164C37.456 23.076 37.596 23.032 37.7 23.032C37.804 23.032 37.908 23.064 38.012 23.128C38.116 23.184 38.2 23.252 38.264 23.332C38.336 23.404 38.372 23.468 38.372 23.524C38.372 23.572 38.348 23.632 38.3 23.704C38.252 23.768 38.196 23.828 38.132 23.884C38.068 23.94 38.012 23.968 37.964 23.968C37.924 23.968 37.884 23.948 37.844 23.908C37.804 23.868 37.76 23.824 37.712 23.776C37.664 23.728 37.604 23.684 37.532 23.644C37.468 23.604 37.38 23.584 37.268 23.584C37.14 23.584 37.028 23.64 36.932 23.752C36.836 23.856 36.788 23.996 36.788 24.172C36.788 24.236 36.808 24.336 36.848 24.472C36.896 24.608 36.948 24.748 37.004 24.892C37.068 25.036 37.128 25.164 37.184 25.276C37.272 25.436 37.352 25.64 37.424 25.888C37.504 26.128 37.544 26.34 37.544 26.524C37.544 26.764 37.472 26.984 37.328 27.184C37.192 27.384 37.012 27.56 36.788 27.712C36.564 27.856 36.32 27.968 36.056 28.048C35.8 28.128 35.552 28.168 35.312 28.168ZM38.8564 28.168C38.7604 28.168 38.6644 28.14 38.5684 28.084C38.4724 28.036 38.3924 27.972 38.3284 27.892C38.2724 27.812 38.2444 27.728 38.2444 27.64C38.2444 27.352 38.3404 27.02 38.5324 26.644C38.7244 26.26 38.9924 25.86 39.3364 25.444C39.6804 25.02 40.0764 24.612 40.5244 24.22C40.9564 23.844 41.3084 23.564 41.5804 23.38C41.8524 23.188 42.0524 23.092 42.1804 23.092C42.3084 23.092 42.4204 23.148 42.5164 23.26C42.6284 23.404 42.6764 23.472 42.6604 23.464C42.6524 23.448 42.6524 23.44 42.6604 23.44C42.6764 23.44 42.6884 23.436 42.6964 23.428C42.7124 23.412 42.7244 23.392 42.7324 23.368C42.8444 23.176 42.9124 23.06 42.9364 23.02C42.9604 22.98 42.9604 22.976 42.9364 23.008C42.9844 22.928 43.0324 22.888 43.0804 22.888C43.1524 22.888 43.2244 22.9 43.2964 22.924C43.3684 22.948 43.4244 22.98 43.4644 23.02C43.5124 23.06 43.5364 23.1 43.5364 23.14C43.5364 23.18 43.5084 23.28 43.4524 23.44L42.1084 27.004C42.0044 27.276 42.0564 27.412 42.2644 27.412C42.4084 27.412 42.5804 27.344 42.7804 27.208C42.9884 27.064 43.1684 26.892 43.3204 26.692C43.3364 26.676 43.3524 26.664 43.3684 26.656C43.3924 26.64 43.4124 26.632 43.4284 26.632C43.4604 26.632 43.4804 26.644 43.4884 26.668C43.5044 26.684 43.5124 26.716 43.5124 26.764C43.5124 26.82 43.4564 26.932 43.3444 27.1C43.2324 27.26 43.1164 27.4 42.9964 27.52C42.7724 27.728 42.5444 27.888 42.3124 28C42.0884 28.112 41.8804 28.168 41.6884 28.168C41.6084 28.168 41.5284 28.144 41.4484 28.096C41.3684 28.048 41.3004 27.988 41.2444 27.916C41.1964 27.844 41.1724 27.772 41.1724 27.7C41.1724 27.612 41.1964 27.52 41.2444 27.424C41.2124 27.496 41.2084 27.496 41.2324 27.424C41.2644 27.352 41.3124 27.24 41.3764 27.088C41.4484 26.936 41.5244 26.776 41.6044 26.608C41.6844 26.44 41.7524 26.292 41.8084 26.164C41.8484 26.076 41.8644 26.012 41.8564 25.972C41.8564 25.924 41.8324 25.928 41.7844 25.984C41.2964 26.528 40.8764 26.96 40.5244 27.28C40.1804 27.6 39.8764 27.828 39.6124 27.964C39.3484 28.1 39.0964 28.168 38.8564 28.168ZM39.5284 27.412C39.7044 27.412 39.9644 27.268 40.3084 26.98C40.6604 26.684 41.0564 26.276 41.4964 25.756C41.8004 25.404 42.0404 25.08 42.2164 24.784C42.3924 24.488 42.4804 24.268 42.4804 24.124C42.4804 24.06 42.4284 23.984 42.3244 23.896C42.2764 23.856 42.2244 23.824 42.1684 23.8C42.1124 23.776 42.0644 23.764 42.0244 23.764C41.8804 23.764 41.6804 23.836 41.4244 23.98C41.1764 24.124 40.9484 24.296 40.7404 24.496C40.4764 24.752 40.2244 25.04 39.9844 25.36C39.7444 25.68 39.5484 25.988 39.3964 26.284C39.2524 26.58 39.1804 26.82 39.1804 27.004C39.1804 27.124 39.2124 27.224 39.2764 27.304C39.3404 27.376 39.4244 27.412 39.5284 27.412ZM45.6389 28.168C45.4549 28.168 45.2949 28.088 45.1589 27.928C45.0229 27.768 44.9309 27.568 44.8829 27.328C44.8429 27.088 44.8669 26.852 44.9549 26.62L45.7349 24.544C45.7989 24.384 45.8349 24.256 45.8429 24.16C45.8509 24.056 45.8069 24.004 45.7109 24.004C45.6549 24.004 45.5549 24.064 45.4109 24.184C45.2749 24.304 45.1429 24.432 45.0149 24.568C44.9749 24.616 44.9429 24.644 44.9189 24.652C44.8949 24.66 44.8749 24.664 44.8589 24.664C44.8029 24.664 44.7749 24.644 44.7749 24.604C44.7749 24.556 44.7829 24.504 44.7989 24.448C44.8229 24.392 44.8629 24.324 44.9189 24.244C45.0629 24.044 45.2069 23.868 45.3509 23.716C45.5029 23.556 45.6469 23.424 45.7829 23.32C45.9189 23.208 46.0429 23.124 46.1549 23.068C46.2749 23.012 46.3789 22.984 46.4669 22.984C46.5309 22.984 46.5909 23.008 46.6469 23.056C46.7029 23.104 46.7429 23.164 46.7669 23.236C46.7989 23.3 46.8029 23.372 46.7789 23.452L45.6989 26.572C45.6109 26.844 45.5989 27.064 45.6629 27.232C45.7269 27.4 45.8589 27.484 46.0589 27.484C46.3469 27.484 46.6269 27.404 46.8989 27.244C47.1789 27.076 47.4269 26.856 47.6429 26.584C47.8589 26.304 48.0309 25.996 48.1589 25.66C48.2869 25.324 48.3509 24.984 48.3509 24.64C48.3509 24.504 48.3229 24.368 48.2669 24.232C48.2189 24.096 48.1509 23.976 48.0629 23.872C48.0069 23.808 47.9669 23.744 47.9429 23.68C47.9269 23.616 47.9189 23.548 47.9189 23.476C47.9189 23.404 47.9549 23.332 48.0269 23.26C48.0989 23.18 48.1869 23.116 48.2909 23.068C48.4029 23.012 48.5149 22.984 48.6269 22.984C48.7149 22.984 48.7949 23.052 48.8669 23.188C48.9389 23.324 48.9749 23.532 48.9749 23.812C48.9749 24.164 48.9349 24.512 48.8549 24.856C48.7829 25.2 48.6629 25.54 48.4949 25.876C48.3349 26.204 48.1149 26.528 47.8349 26.848C47.4589 27.288 47.0789 27.62 46.6949 27.844C46.3189 28.06 45.9669 28.168 45.6389 28.168ZM50.4288 28.168C50.2368 28.168 50.0568 28.104 49.8888 27.976C49.7208 27.848 49.5848 27.68 49.4808 27.472C49.3848 27.264 49.3368 27.044 49.3368 26.812C49.3368 26.436 49.4088 26.032 49.5528 25.6C49.7048 25.16 49.9128 24.748 50.1768 24.364C50.4408 23.972 50.7448 23.652 51.0888 23.404C51.4408 23.156 51.8168 23.032 52.2168 23.032C52.6168 23.032 52.9248 23.168 53.1408 23.44C53.3648 23.712 53.4768 24.048 53.4768 24.448C53.4768 24.808 53.4048 25.204 53.2608 25.636C53.1168 26.06 52.9088 26.464 52.6368 26.848C52.3728 27.232 52.0528 27.548 51.6768 27.796C51.3088 28.044 50.8928 28.168 50.4288 28.168ZM50.6208 27.808C50.8128 27.808 51.0048 27.724 51.1968 27.556C51.3968 27.388 51.5848 27.168 51.7608 26.896C51.9448 26.624 52.1048 26.324 52.2408 25.996C52.3848 25.668 52.4968 25.34 52.5768 25.012C52.6648 24.684 52.7088 24.384 52.7088 24.112C52.7088 23.904 52.6728 23.732 52.6008 23.596C52.5368 23.46 52.4008 23.392 52.1928 23.392C52.0088 23.392 51.8168 23.468 51.6168 23.62C51.4248 23.772 51.2368 23.976 51.0528 24.232C50.8768 24.488 50.7168 24.776 50.5728 25.096C50.4288 25.408 50.3128 25.736 50.2248 26.08C50.1448 26.416 50.1048 26.744 50.1048 27.064C50.1048 27.328 50.1488 27.52 50.2368 27.64C50.3328 27.752 50.4608 27.808 50.6208 27.808ZM54.4834 28.168C54.3474 28.168 54.2354 28.124 54.1474 28.036C54.0594 27.948 54.0154 27.856 54.0154 27.76C54.0154 27.728 54.0154 27.696 54.0154 27.664C54.0234 27.632 54.0354 27.6 54.0514 27.568C54.3794 26.904 54.6554 26.28 54.8794 25.696C55.1034 25.104 55.3034 24.588 55.4794 24.148C55.5114 24.052 55.4914 24.004 55.4194 24.004C55.3794 24.004 55.2994 24.028 55.1794 24.076C55.0674 24.116 54.9474 24.172 54.8194 24.244C54.6914 24.316 54.5794 24.388 54.4834 24.46C54.4434 24.492 54.4034 24.5 54.3634 24.484C54.3234 24.468 54.3034 24.44 54.3034 24.4C54.3034 24.36 54.3314 24.304 54.3874 24.232C54.4514 24.152 54.5354 24.064 54.6394 23.968C54.7514 23.872 54.8834 23.772 55.0354 23.668C55.1874 23.556 55.3514 23.448 55.5274 23.344C55.7114 23.232 55.9034 23.132 56.1034 23.044C56.1754 23.012 56.2474 23.02 56.3194 23.068C56.3914 23.116 56.4474 23.176 56.4874 23.248C56.5354 23.32 56.5514 23.376 56.5354 23.416L55.0714 26.884C55.0394 26.948 55.0154 27.012 54.9994 27.076C54.9914 27.132 54.9874 27.184 54.9874 27.232C54.9874 27.288 55.0074 27.328 55.0474 27.352C55.0954 27.368 55.1394 27.376 55.1794 27.376C55.2914 27.376 55.4194 27.324 55.5634 27.22C55.7074 27.108 55.8594 26.976 56.0194 26.824C56.1874 26.664 56.3474 26.508 56.4994 26.356C56.5154 26.34 56.5314 26.332 56.5474 26.332C56.5634 26.332 56.5794 26.34 56.5954 26.356C56.6114 26.364 56.6194 26.376 56.6194 26.392C56.6194 26.52 56.5434 26.684 56.3914 26.884C56.2394 27.076 56.0474 27.272 55.8154 27.472C55.5914 27.664 55.3594 27.828 55.1194 27.964C54.8794 28.1 54.6674 28.168 54.4834 28.168ZM56.9074 21.844C56.7874 21.844 56.6874 21.796 56.6074 21.7C56.5274 21.604 56.4874 21.496 56.4874 21.376C56.4874 21.184 56.5514 21.016 56.6794 20.872C56.8074 20.72 56.9674 20.644 57.1594 20.644C57.2874 20.644 57.3874 20.7 57.4594 20.812C57.5314 20.916 57.5674 21.032 57.5674 21.16C57.5674 21.336 57.5034 21.496 57.3754 21.64C57.2474 21.776 57.0914 21.844 56.9074 21.844ZM57.763 28.204C57.723 28.204 57.679 28.188 57.631 28.156C57.583 28.132 57.543 28.096 57.511 28.048C57.479 28.008 57.463 27.964 57.463 27.916C57.463 27.82 57.487 27.7 57.535 27.556C57.591 27.404 57.659 27.216 57.739 26.992L58.843 24.112C58.883 24.008 58.899 23.912 58.891 23.824C58.891 23.736 58.851 23.692 58.771 23.692C58.659 23.692 58.547 23.708 58.435 23.74C58.331 23.764 58.251 23.792 58.195 23.824C58.147 23.856 58.099 23.864 58.051 23.848C58.011 23.824 57.991 23.784 57.991 23.728C57.991 23.664 58.019 23.592 58.075 23.512C58.139 23.432 58.223 23.356 58.327 23.284C58.423 23.212 58.535 23.152 58.663 23.104C58.799 23.056 58.939 23.032 59.083 23.032C59.307 23.032 59.447 23.088 59.503 23.2C59.567 23.312 59.575 23.464 59.527 23.656C59.487 23.84 59.419 24.052 59.323 24.292L58.783 25.648C58.751 25.704 58.759 25.74 58.807 25.756C58.863 25.772 58.903 25.76 58.927 25.72C59.247 25.168 59.567 24.688 59.887 24.28C60.215 23.864 60.519 23.544 60.799 23.32C61.079 23.088 61.311 22.972 61.495 22.972C61.703 22.972 61.847 23.032 61.927 23.152C62.015 23.272 62.059 23.412 62.059 23.572C62.059 23.716 62.031 23.864 61.975 24.016C61.927 24.168 61.855 24.296 61.759 24.4C61.671 24.496 61.571 24.544 61.459 24.544C61.395 24.544 61.347 24.508 61.315 24.436C61.283 24.356 61.267 24.252 61.267 24.124C61.267 24.004 61.251 23.912 61.219 23.848C61.187 23.776 61.127 23.74 61.039 23.74C60.959 23.74 60.851 23.792 60.715 23.896C60.587 24 60.423 24.18 60.223 24.436C60.135 24.556 60.019 24.72 59.875 24.928C59.731 25.136 59.575 25.368 59.407 25.624C59.247 25.872 59.087 26.128 58.927 26.392C58.767 26.648 58.627 26.884 58.507 27.1C58.291 27.484 58.135 27.764 58.039 27.94C57.951 28.116 57.859 28.204 57.763 28.204ZM62.7082 31.432C62.6682 31.432 62.6282 31.424 62.5882 31.408C62.5402 31.392 62.5162 31.364 62.5162 31.324C62.5162 31.26 62.5602 31.204 62.6482 31.156C62.7282 31.116 62.8042 31.092 62.8762 31.084C63.0442 31.052 63.1762 31.008 63.2722 30.952C63.3682 30.896 63.4442 30.792 63.5002 30.64L65.8162 24.172C65.8562 24.06 65.8802 23.976 65.8882 23.92C65.8962 23.864 65.8842 23.828 65.8522 23.812C65.8202 23.788 65.7642 23.784 65.6842 23.8C65.4922 23.832 65.3242 23.868 65.1802 23.908C65.0442 23.94 64.8922 23.996 64.7242 24.076C64.6602 24.108 64.6002 24.116 64.5442 24.1C64.4962 24.076 64.4722 24.04 64.4722 23.992C64.4722 23.928 64.4882 23.876 64.5202 23.836C64.5602 23.796 64.6042 23.764 64.6522 23.74C64.7802 23.676 64.9642 23.588 65.2042 23.476C65.4442 23.364 65.7242 23.268 66.0442 23.188C66.1002 23.172 66.1442 23.152 66.1762 23.128C66.2162 23.096 66.2442 23.052 66.2602 22.996C66.3722 22.62 66.4762 22.348 66.5722 22.18C66.6682 22.012 66.8042 21.928 66.9802 21.928C67.0442 21.928 67.1002 21.948 67.1482 21.988C67.1962 22.028 67.2122 22.084 67.1962 22.156L66.9922 22.852C66.9682 22.932 66.9642 22.992 66.9802 23.032C66.9962 23.064 67.0202 23.076 67.0522 23.068C67.1562 23.052 67.2482 23.04 67.3282 23.032C67.4162 23.024 67.5002 23.02 67.5802 23.02C67.9802 23.02 68.2922 23.088 68.5162 23.224C68.7482 23.352 68.9082 23.532 68.9962 23.764C69.0922 23.988 69.1402 24.24 69.1402 24.52C69.1402 24.904 69.0522 25.308 68.8762 25.732C68.7002 26.148 68.4602 26.544 68.1562 26.92C67.8602 27.288 67.5242 27.588 67.1482 27.82C66.7802 28.052 66.3962 28.168 65.9962 28.168C65.9242 28.168 65.8442 28.144 65.7562 28.096C65.6682 28.048 65.5842 28 65.5042 27.952C65.4322 27.904 65.3722 27.892 65.3242 27.916C65.2842 27.932 65.2362 28.016 65.1802 28.168L64.3882 30.508C64.3322 30.676 64.3482 30.8 64.4362 30.88C64.5322 30.968 64.6802 31.02 64.8802 31.036C64.9602 31.044 65.0402 31.06 65.1202 31.084C65.2002 31.108 65.2402 31.152 65.2402 31.216C65.2402 31.264 65.2042 31.296 65.1322 31.312C65.0602 31.336 64.9802 31.348 64.8922 31.348C64.7722 31.348 64.6482 31.344 64.5202 31.336C64.3922 31.336 64.2722 31.336 64.1602 31.336C64.0562 31.336 63.9682 31.34 63.8962 31.348C63.6962 31.372 63.5042 31.392 63.3202 31.408C63.1282 31.424 62.9242 31.432 62.7082 31.432ZM66.2242 27.76C66.4082 27.76 66.6162 27.66 66.8482 27.46C67.0802 27.252 67.3002 26.988 67.5082 26.668C67.7242 26.348 67.9002 26.008 68.0362 25.648C68.1802 25.288 68.2522 24.948 68.2522 24.628C68.2522 24.18 68.1722 23.876 68.0122 23.716C67.8522 23.556 67.6282 23.472 67.3402 23.464C67.2682 23.464 67.1962 23.464 67.1242 23.464C67.0522 23.464 66.9722 23.472 66.8842 23.488L65.7802 26.728C65.7322 26.872 65.7042 27.008 65.6962 27.136C65.6962 27.256 65.7122 27.36 65.7442 27.448C65.7842 27.552 65.8402 27.632 65.9122 27.688C65.9922 27.736 66.0962 27.76 66.2242 27.76ZM69.7033 28.168C69.5993 28.168 69.4833 28.112 69.3553 28C69.2273 27.888 69.1633 27.768 69.1633 27.64C69.1633 27.592 69.1713 27.544 69.1873 27.496L71.4673 21.004C71.5073 20.892 71.5353 20.784 71.5513 20.68C71.5753 20.576 71.5873 20.472 71.5873 20.368C71.5873 20.296 71.5473 20.228 71.4673 20.164C71.3953 20.1 71.3033 20.056 71.1913 20.032C71.1113 20.016 71.0473 19.996 70.9993 19.972C70.9513 19.94 70.9273 19.908 70.9273 19.876C70.9273 19.852 70.9273 19.832 70.9273 19.816C70.9353 19.8 70.9433 19.784 70.9513 19.768C70.9673 19.752 70.9833 19.744 70.9993 19.744C71.1513 19.704 71.3353 19.668 71.5513 19.636C71.7673 19.596 71.9673 19.564 72.1513 19.54C72.3433 19.508 72.4713 19.492 72.5353 19.492C72.5753 19.492 72.6073 19.508 72.6313 19.54C72.6633 19.564 72.6793 19.608 72.6793 19.672C72.6793 19.72 72.6713 19.776 72.6553 19.84C72.6393 19.896 72.6233 19.952 72.6073 20.008L70.1833 26.92C70.1593 26.984 70.1433 27.048 70.1353 27.112C70.1273 27.168 70.1233 27.22 70.1233 27.268C70.1233 27.396 70.1633 27.46 70.2433 27.46C70.3553 27.46 70.4913 27.4 70.6513 27.28C70.8193 27.152 70.9833 27 71.1433 26.824C71.3033 26.648 71.4313 26.492 71.5273 26.356C71.5753 26.292 71.6313 26.232 71.6953 26.176C71.7593 26.112 71.8073 26.08 71.8393 26.08C71.8713 26.08 71.8873 26.096 71.8873 26.128C71.8953 26.152 71.8993 26.188 71.8993 26.236C71.8993 26.396 71.8433 26.564 71.7313 26.74C71.6273 26.916 71.4873 27.092 71.3113 27.268C71.1353 27.436 70.9473 27.588 70.7473 27.724C70.5473 27.86 70.3553 27.968 70.1713 28.048C69.9873 28.128 69.8313 28.168 69.7033 28.168ZM73.2688 28.168C73.1808 28.168 73.0888 28.128 72.9928 28.048C72.9048 27.976 72.8368 27.888 72.7888 27.784C72.7408 27.68 72.7288 27.596 72.7528 27.532L74.0128 24.496C74.0688 24.36 74.1048 24.244 74.1208 24.148C74.1368 24.052 74.1128 24.004 74.0488 24.004C74.0088 24.004 73.9408 24.036 73.8448 24.1C73.7568 24.164 73.6528 24.244 73.5328 24.34C73.4208 24.436 73.3048 24.536 73.1848 24.64C73.1688 24.656 73.1368 24.66 73.0888 24.652C73.0488 24.644 73.0288 24.628 73.0288 24.604C73.0288 24.572 73.0368 24.528 73.0528 24.472C73.0688 24.408 73.1088 24.332 73.1728 24.244C73.3728 23.972 73.5928 23.744 73.8328 23.56C74.0808 23.376 74.3128 23.236 74.5288 23.14C74.7528 23.036 74.9208 22.984 75.0328 22.984C75.0728 22.984 75.1168 23.008 75.1648 23.056C75.2208 23.096 75.2648 23.148 75.2968 23.212C75.3288 23.268 75.3288 23.324 75.2968 23.38C75.0328 23.924 74.7808 24.476 74.5408 25.036C74.3008 25.596 74.0608 26.148 73.8208 26.692C73.7488 26.852 73.7048 27 73.6888 27.136C73.6728 27.272 73.7048 27.34 73.7848 27.34C73.8648 27.34 73.9848 27.272 74.1448 27.136C74.3048 27 74.4848 26.824 74.6848 26.608C74.8928 26.392 75.1088 26.16 75.3328 25.912C75.6368 25.568 75.9288 25.212 76.2088 24.844C76.4968 24.476 76.7448 24.144 76.9528 23.848C77.1608 23.552 77.2968 23.344 77.3608 23.224C77.4008 23.144 77.4488 23.092 77.5048 23.068C77.5608 23.044 77.6128 23.032 77.6608 23.032C77.7088 23.032 77.7568 23.056 77.8048 23.104C77.8528 23.152 77.8888 23.208 77.9128 23.272C77.9448 23.336 77.9488 23.392 77.9248 23.44L76.3888 26.968C76.3248 27.12 76.2968 27.236 76.3048 27.316C76.3128 27.396 76.3528 27.436 76.4248 27.436C76.5288 27.436 76.6648 27.38 76.8328 27.268C77.0008 27.156 77.1728 27.028 77.3488 26.884C77.5248 26.732 77.6728 26.596 77.7928 26.476C77.8008 26.468 77.8128 26.464 77.8288 26.464C77.8528 26.464 77.8768 26.476 77.9008 26.5C77.9248 26.516 77.9368 26.54 77.9368 26.572C77.9368 26.588 77.9328 26.604 77.9248 26.62C77.9168 26.636 77.9048 26.656 77.8888 26.68C77.8808 26.704 77.8648 26.732 77.8408 26.764C77.8248 26.796 77.8008 26.832 77.7688 26.872C77.7448 26.904 77.7128 26.944 77.6728 26.992C77.5208 27.184 77.3448 27.372 77.1448 27.556C76.9448 27.732 76.7288 27.88 76.4968 28C76.2728 28.112 76.0328 28.168 75.7768 28.168C75.6728 28.168 75.5768 28.1 75.4888 27.964C75.4088 27.828 75.3928 27.708 75.4408 27.604C75.5528 27.364 75.6728 27.108 75.8008 26.836C75.9288 26.564 76.0408 26.312 76.1368 26.08C76.2408 25.848 76.3128 25.676 76.3528 25.564C76.3928 25.468 76.3888 25.416 76.3408 25.408C76.2928 25.4 76.2488 25.42 76.2088 25.468C75.7928 25.924 75.4248 26.324 75.1048 26.668C74.7848 27.004 74.5048 27.284 74.2648 27.508C74.0328 27.724 73.8328 27.888 73.6648 28C73.5048 28.112 73.3728 28.168 73.2688 28.168ZM78.8823 28.168C78.7063 28.168 78.5543 28.116 78.4263 28.012C78.2983 27.916 78.2343 27.792 78.2343 27.64C78.2343 27.456 78.2783 27.32 78.3663 27.232C78.4463 27.136 78.5143 27.088 78.5703 27.088C78.6263 27.088 78.6823 27.112 78.7383 27.16C78.8023 27.2 78.8703 27.252 78.9423 27.316C79.0303 27.38 79.1263 27.444 79.2303 27.508C79.3423 27.564 79.4863 27.592 79.6623 27.592C79.8783 27.592 80.0503 27.516 80.1783 27.364C80.3063 27.204 80.3743 27.036 80.3823 26.86C80.3823 26.684 80.3503 26.496 80.2863 26.296C80.2303 26.088 80.1463 25.884 80.0343 25.684C79.9303 25.492 79.8423 25.312 79.7703 25.144C79.7063 24.968 79.6743 24.82 79.6743 24.7C79.6743 24.468 79.7343 24.252 79.8543 24.052C79.9823 23.844 80.1343 23.664 80.3103 23.512C80.4943 23.36 80.6743 23.244 80.8503 23.164C81.0263 23.076 81.1663 23.032 81.2703 23.032C81.3743 23.032 81.4783 23.064 81.5823 23.128C81.6863 23.184 81.7703 23.252 81.8343 23.332C81.9063 23.404 81.9423 23.468 81.9423 23.524C81.9423 23.572 81.9183 23.632 81.8703 23.704C81.8223 23.768 81.7663 23.828 81.7023 23.884C81.6383 23.94 81.5823 23.968 81.5343 23.968C81.4943 23.968 81.4543 23.948 81.4143 23.908C81.3743 23.868 81.3303 23.824 81.2823 23.776C81.2343 23.728 81.1743 23.684 81.1023 23.644C81.0383 23.604 80.9503 23.584 80.8383 23.584C80.7103 23.584 80.5983 23.64 80.5023 23.752C80.4063 23.856 80.3583 23.996 80.3583 24.172C80.3583 24.236 80.3783 24.336 80.4183 24.472C80.4663 24.608 80.5183 24.748 80.5743 24.892C80.6383 25.036 80.6983 25.164 80.7543 25.276C80.8423 25.436 80.9223 25.64 80.9943 25.888C81.0743 26.128 81.1143 26.34 81.1143 26.524C81.1143 26.764 81.0423 26.984 80.8983 27.184C80.7623 27.384 80.5823 27.56 80.3583 27.712C80.1343 27.856 79.8903 27.968 79.6263 28.048C79.3703 28.128 79.1223 28.168 78.8823 28.168Z" fill="#B0B0B0"/>
<path d="M2.63219 36.7984L5.42277 33.2702C5.42277 33.2702 5.94797 32.5642 5.13713 32.6089L3.16703 32.8445L1.55428 31.8647C1.55428 31.8647 0.777588 31.4479 0.94829 32.2446L2.10516 36.5979C2.10532 36.5972 2.26548 37.1851 2.63219 36.7984Z" fill="#B0B0B0"/>
<path d="M20.3178 13.0797C16.2048 12.2254 12.7473 12.7619 10.0035 14.688C2.82579 19.7256 3.01401 32.7166 3.01652 32.8472C3.01851 32.9307 3.08756 32.9965 3.17093 32.9953C3.25438 32.9937 3.32063 32.9243 3.31903 32.8409C3.31619 32.7119 3.13169 19.8792 10.1777 14.9348C13.7113 12.4552 18.4805 12.345 24.3538 14.608C24.4345 14.6371 24.5194 14.5992 24.5491 14.5214C24.5793 14.4434 24.5402 14.3562 24.4625 14.3261C23.0152 13.7683 21.6329 13.3529 20.3178 13.0797Z" fill="#B0B0B0"/>
</svg>
