<svg width="99" height="41" viewBox="0 0 99 41" fill="none" xmlns="http://www.w3.org/2000/svg">
<path d="M2.188 12.18C2.044 12.18 1.892 12.124 1.732 12.012C1.58 11.908 1.448 11.764 1.336 11.58C1.232 11.388 1.18 11.168 1.18 10.92C1.188 10.632 1.236 10.316 1.324 9.972C1.412 9.62 1.54 9.272 1.708 8.928C1.876 8.584 2.084 8.268 2.332 7.98C2.588 7.692 2.88 7.464 3.208 7.296C3.536 7.12 3.904 7.032 4.312 7.032C4.528 7.032 4.692 7.072 4.804 7.152C4.916 7.224 4.972 7.312 4.972 7.416C4.972 7.544 4.932 7.676 4.852 7.812C4.78 7.94 4.7 8.004 4.612 8.004C4.548 8.004 4.492 7.976 4.444 7.92C4.404 7.864 4.364 7.796 4.324 7.716C4.276 7.628 4.216 7.548 4.144 7.476C4.072 7.396 3.968 7.356 3.832 7.356C3.64 7.356 3.44 7.472 3.232 7.704C3.024 7.936 2.828 8.232 2.644 8.592C2.468 8.952 2.324 9.332 2.212 9.732C2.1 10.132 2.044 10.496 2.044 10.824C2.044 11.088 2.096 11.268 2.2 11.364C2.304 11.46 2.444 11.508 2.62 11.508C2.876 11.508 3.08 11.46 3.232 11.364C3.384 11.26 3.536 11.136 3.688 10.992C3.744 10.936 3.784 10.896 3.808 10.872C3.84 10.848 3.88 10.836 3.928 10.836C3.992 10.836 4.024 10.888 4.024 10.992C4.024 11.056 3.972 11.152 3.868 11.28C3.772 11.408 3.636 11.544 3.46 11.688C3.292 11.824 3.096 11.94 2.872 12.036C2.656 12.132 2.428 12.18 2.188 12.18ZM5.19934 12.168C5.09534 12.168 4.97934 12.112 4.85134 12C4.72334 11.888 4.65934 11.768 4.65934 11.64C4.65934 11.592 4.66734 11.544 4.68334 11.496L6.96334 5.004C7.00334 4.892 7.03134 4.784 7.04734 4.68C7.07134 4.576 7.08334 4.472 7.08334 4.368C7.08334 4.296 7.04334 4.228 6.96334 4.164C6.89134 4.1 6.79934 4.056 6.68734 4.032C6.60734 4.016 6.54334 3.996 6.49534 3.972C6.44734 3.94 6.42334 3.908 6.42334 3.876C6.42334 3.852 6.42334 3.832 6.42334 3.816C6.43134 3.8 6.43934 3.784 6.44734 3.768C6.46334 3.752 6.47934 3.744 6.49534 3.744C6.64734 3.704 6.83134 3.668 7.04734 3.636C7.26334 3.596 7.46334 3.564 7.64734 3.54C7.83934 3.508 7.96734 3.492 8.03134 3.492C8.07134 3.492 8.10334 3.508 8.12734 3.54C8.15934 3.564 8.17534 3.608 8.17534 3.672C8.17534 3.72 8.16734 3.776 8.15134 3.84C8.13534 3.896 8.11934 3.952 8.10334 4.008L5.67934 10.92C5.65534 10.984 5.63934 11.048 5.63134 11.112C5.62334 11.168 5.61934 11.22 5.61934 11.268C5.61934 11.396 5.65934 11.46 5.73934 11.46C5.85134 11.46 5.98734 11.4 6.14734 11.28C6.31534 11.152 6.47934 11 6.63934 10.824C6.79934 10.648 6.92734 10.492 7.02334 10.356C7.07134 10.292 7.12734 10.232 7.19134 10.176C7.25534 10.112 7.30334 10.08 7.33534 10.08C7.36734 10.08 7.38334 10.096 7.38334 10.128C7.39134 10.152 7.39534 10.188 7.39534 10.236C7.39534 10.396 7.33934 10.564 7.22734 10.74C7.12334 10.916 6.98334 11.092 6.80734 11.268C6.63134 11.436 6.44334 11.588 6.24334 11.724C6.04334 11.86 5.85134 11.968 5.66734 12.048C5.48334 12.128 5.32734 12.168 5.19934 12.168ZM8.75294 12.168C8.61694 12.168 8.50494 12.124 8.41694 12.036C8.32894 11.948 8.28494 11.856 8.28494 11.76C8.28494 11.728 8.28494 11.696 8.28494 11.664C8.29294 11.632 8.30494 11.6 8.32094 11.568C8.64894 10.904 8.92494 10.28 9.14894 9.696C9.37294 9.104 9.57294 8.588 9.74894 8.148C9.78094 8.052 9.76094 8.004 9.68894 8.004C9.64894 8.004 9.56894 8.028 9.44894 8.076C9.33694 8.116 9.21694 8.172 9.08894 8.244C8.96094 8.316 8.84894 8.388 8.75294 8.46C8.71294 8.492 8.67294 8.5 8.63294 8.484C8.59294 8.468 8.57294 8.44 8.57294 8.4C8.57294 8.36 8.60094 8.304 8.65694 8.232C8.72094 8.152 8.80494 8.064 8.90894 7.968C9.02094 7.872 9.15294 7.772 9.30494 7.668C9.45694 7.556 9.62094 7.448 9.79694 7.344C9.98094 7.232 10.1729 7.132 10.3729 7.044C10.4449 7.012 10.5169 7.02 10.5889 7.068C10.6609 7.116 10.7169 7.176 10.7569 7.248C10.8049 7.32 10.8209 7.376 10.8049 7.416L9.34094 10.884C9.30894 10.948 9.28494 11.012 9.26894 11.076C9.26094 11.132 9.25694 11.184 9.25694 11.232C9.25694 11.288 9.27694 11.328 9.31694 11.352C9.36494 11.368 9.40894 11.376 9.44894 11.376C9.56094 11.376 9.68894 11.324 9.83294 11.22C9.97694 11.108 10.1289 10.976 10.2889 10.824C10.4569 10.664 10.6169 10.508 10.7689 10.356C10.7849 10.34 10.8009 10.332 10.8169 10.332C10.8329 10.332 10.8489 10.34 10.8649 10.356C10.8809 10.364 10.8889 10.376 10.8889 10.392C10.8889 10.52 10.8129 10.684 10.6609 10.884C10.5089 11.076 10.3169 11.272 10.0849 11.472C9.86094 11.664 9.62894 11.828 9.38894 11.964C9.14894 12.1 8.93694 12.168 8.75294 12.168ZM11.1769 5.844C11.0569 5.844 10.9569 5.796 10.8769 5.7C10.7969 5.604 10.7569 5.496 10.7569 5.376C10.7569 5.184 10.8209 5.016 10.9489 4.872C11.0769 4.72 11.2369 4.644 11.4289 4.644C11.5569 4.644 11.6569 4.7 11.7289 4.812C11.8009 4.916 11.8369 5.032 11.8369 5.16C11.8369 5.336 11.7729 5.496 11.6449 5.64C11.5169 5.776 11.3609 5.844 11.1769 5.844ZM12.5739 15.432C12.5339 15.44 12.4819 15.436 12.4179 15.42C12.3619 15.404 12.3339 15.372 12.3339 15.324C12.3339 15.26 12.3739 15.204 12.4539 15.156C12.5419 15.116 12.6219 15.092 12.6939 15.084C12.8619 15.06 13.0139 15 13.1499 14.904C13.2939 14.808 13.3939 14.684 13.4499 14.532C13.6099 14.1 13.7699 13.672 13.9299 13.248C14.0899 12.824 14.2499 12.4 14.4099 11.976C14.5779 11.544 14.7419 11.112 14.9019 10.68C14.9419 10.592 14.9419 10.524 14.9019 10.476C14.8699 10.42 14.8059 10.448 14.7099 10.56C14.4139 10.888 14.1219 11.176 13.8339 11.424C13.5459 11.664 13.2579 11.848 12.9699 11.976C12.6819 12.104 12.3939 12.168 12.1059 12.168C11.8499 12.168 11.6459 12.1 11.4939 11.964C11.3419 11.82 11.2659 11.644 11.2659 11.436C11.2659 11.1 11.3459 10.732 11.5059 10.332C11.6659 9.932 11.8779 9.532 12.1419 9.132C12.4139 8.732 12.7099 8.364 13.0299 8.028C13.3419 7.7 13.6859 7.44 14.0619 7.248C14.4379 7.056 14.7739 6.96 15.0699 6.96C15.2539 6.96 15.3979 6.992 15.5019 7.056C15.6139 7.12 15.6979 7.192 15.7539 7.272C15.8179 7.336 15.8659 7.396 15.8979 7.452C15.9299 7.508 15.9659 7.536 16.0059 7.536C16.0939 7.536 16.1699 7.472 16.2339 7.344L16.3419 7.116C16.3819 7.02 16.4299 6.956 16.4859 6.924C16.5499 6.884 16.6099 6.864 16.6659 6.864C16.7139 6.864 16.7459 6.904 16.7619 6.984C16.7779 7.056 16.7579 7.168 16.7019 7.32L14.3619 14.388C14.3059 14.556 14.3059 14.688 14.3619 14.784C14.4179 14.88 14.5219 14.936 14.6739 14.952C14.7539 14.96 14.8339 14.976 14.9139 15C14.9939 15.024 15.0339 15.068 15.0339 15.132C15.0339 15.18 14.9979 15.212 14.9259 15.228C14.8539 15.252 14.7739 15.264 14.6859 15.264C14.4219 15.264 14.1459 15.272 13.8579 15.288C13.5779 15.312 13.3219 15.336 13.0899 15.36C12.8579 15.384 12.6859 15.408 12.5739 15.432ZM12.4059 11.736C12.5659 11.736 12.7539 11.676 12.9699 11.556C13.1859 11.428 13.4059 11.268 13.6299 11.076C13.8619 10.876 14.0779 10.66 14.2779 10.428C14.4779 10.188 14.6419 9.96 14.7699 9.744C14.9459 9.44 15.0979 9.128 15.2259 8.808C15.3619 8.488 15.4299 8.204 15.4299 7.956C15.4299 7.852 15.4099 7.756 15.3699 7.668C15.3379 7.572 15.2859 7.496 15.2139 7.44C15.1499 7.384 15.0659 7.356 14.9619 7.356C14.8099 7.356 14.6139 7.448 14.3739 7.632C14.1419 7.808 13.8939 8.044 13.6299 8.34C13.3659 8.628 13.1179 8.948 12.8859 9.3C12.6539 9.644 12.4659 9.988 12.3219 10.332C12.1779 10.676 12.1059 10.988 12.1059 11.268C12.1059 11.428 12.1259 11.548 12.1659 11.628C12.2139 11.7 12.2939 11.736 12.4059 11.736ZM17.7298 12.168C17.6418 12.168 17.5498 12.128 17.4538 12.048C17.3658 11.976 17.2978 11.888 17.2498 11.784C17.2018 11.68 17.1898 11.596 17.2138 11.532L18.4738 8.496C18.5298 8.36 18.5658 8.244 18.5818 8.148C18.5978 8.052 18.5738 8.004 18.5098 8.004C18.4698 8.004 18.4018 8.036 18.3058 8.1C18.2178 8.164 18.1138 8.244 17.9938 8.34C17.8818 8.436 17.7658 8.536 17.6458 8.64C17.6298 8.656 17.5978 8.66 17.5498 8.652C17.5098 8.644 17.4898 8.628 17.4898 8.604C17.4898 8.572 17.4978 8.528 17.5138 8.472C17.5298 8.408 17.5698 8.332 17.6338 8.244C17.8338 7.972 18.0538 7.744 18.2938 7.56C18.5418 7.376 18.7738 7.236 18.9898 7.14C19.2138 7.036 19.3818 6.984 19.4938 6.984C19.5338 6.984 19.5778 7.008 19.6258 7.056C19.6818 7.096 19.7258 7.148 19.7578 7.212C19.7898 7.268 19.7898 7.324 19.7578 7.38C19.4938 7.924 19.2418 8.476 19.0018 9.036C18.7618 9.596 18.5218 10.148 18.2818 10.692C18.2098 10.852 18.1658 11 18.1498 11.136C18.1338 11.272 18.1658 11.34 18.2458 11.34C18.3258 11.34 18.4458 11.272 18.6058 11.136C18.7658 11 18.9458 10.824 19.1458 10.608C19.3538 10.392 19.5698 10.16 19.7938 9.912C20.0978 9.568 20.3898 9.212 20.6698 8.844C20.9578 8.476 21.2058 8.144 21.4138 7.848C21.6218 7.552 21.7578 7.344 21.8218 7.224C21.8618 7.144 21.9098 7.092 21.9658 7.068C22.0218 7.044 22.0738 7.032 22.1218 7.032C22.1698 7.032 22.2178 7.056 22.2658 7.104C22.3138 7.152 22.3498 7.208 22.3738 7.272C22.4058 7.336 22.4098 7.392 22.3858 7.44L20.8498 10.968C20.7858 11.12 20.7578 11.236 20.7658 11.316C20.7738 11.396 20.8138 11.436 20.8858 11.436C20.9898 11.436 21.1258 11.38 21.2938 11.268C21.4618 11.156 21.6338 11.028 21.8098 10.884C21.9858 10.732 22.1338 10.596 22.2538 10.476C22.2618 10.468 22.2738 10.464 22.2898 10.464C22.3138 10.464 22.3378 10.476 22.3618 10.5C22.3858 10.516 22.3978 10.54 22.3978 10.572C22.3978 10.588 22.3938 10.604 22.3858 10.62C22.3778 10.636 22.3658 10.656 22.3498 10.68C22.3418 10.704 22.3258 10.732 22.3018 10.764C22.2858 10.796 22.2618 10.832 22.2298 10.872C22.2058 10.904 22.1738 10.944 22.1338 10.992C21.9818 11.184 21.8058 11.372 21.6058 11.556C21.4058 11.732 21.1898 11.88 20.9578 12C20.7338 12.112 20.4938 12.168 20.2378 12.168C20.1338 12.168 20.0378 12.1 19.9498 11.964C19.8698 11.828 19.8538 11.708 19.9018 11.604C20.0138 11.364 20.1338 11.108 20.2618 10.836C20.3898 10.564 20.5018 10.312 20.5978 10.08C20.7018 9.848 20.7738 9.676 20.8138 9.564C20.8538 9.468 20.8498 9.416 20.8018 9.408C20.7538 9.4 20.7098 9.42 20.6698 9.468C20.2538 9.924 19.8858 10.324 19.5658 10.668C19.2458 11.004 18.9658 11.284 18.7258 11.508C18.4938 11.724 18.2938 11.888 18.1258 12C17.9658 12.112 17.8338 12.168 17.7298 12.168ZM24.0689 12.18C23.9009 12.18 23.7289 12.116 23.5529 11.988C23.3849 11.86 23.2449 11.7 23.1329 11.508C23.0209 11.308 22.9649 11.116 22.9649 10.932C22.9649 10.532 23.0449 10.108 23.2049 9.66C23.3729 9.204 23.6009 8.78 23.8889 8.388C24.1769 7.988 24.5089 7.664 24.8849 7.416C25.2689 7.16 25.6729 7.032 26.0969 7.032C26.3769 7.032 26.5929 7.092 26.7449 7.212C26.9049 7.324 26.9849 7.484 26.9849 7.692C26.9849 7.94 26.9049 8.156 26.7449 8.34C26.5929 8.524 26.3849 8.684 26.1209 8.82C25.8569 8.948 25.5609 9.056 25.2329 9.144C24.9129 9.232 24.5849 9.308 24.2489 9.372C24.2009 9.38 24.1609 9.392 24.1289 9.408C24.1049 9.416 24.0849 9.444 24.0689 9.492C24.0129 9.668 23.9569 9.86 23.9009 10.068C23.8449 10.276 23.8169 10.472 23.8169 10.656C23.8169 10.936 23.8689 11.152 23.9729 11.304C24.0849 11.456 24.2449 11.532 24.4529 11.532C24.7409 11.532 24.9849 11.46 25.1849 11.316C25.3849 11.172 25.5489 11.028 25.6769 10.884C25.7569 10.796 25.8289 10.752 25.8929 10.752C25.9729 10.752 26.0129 10.792 26.0129 10.872C26.0129 10.88 26.0129 10.896 26.0129 10.92C26.0129 10.936 26.0049 10.952 25.9889 10.968C25.8289 11.232 25.6489 11.456 25.4489 11.64C25.2489 11.816 25.0329 11.948 24.8009 12.036C24.5769 12.132 24.3329 12.18 24.0689 12.18ZM24.3329 9.096C24.4209 9.096 24.5689 9.072 24.7769 9.024C24.9929 8.968 25.2169 8.884 25.4489 8.772C25.6809 8.652 25.8769 8.508 26.0369 8.34C26.2049 8.164 26.2889 7.956 26.2889 7.716C26.2889 7.612 26.2609 7.524 26.2049 7.452C26.1489 7.372 26.0689 7.332 25.9649 7.332C25.7969 7.332 25.6129 7.404 25.4129 7.548C25.2209 7.684 25.0369 7.852 24.8609 8.052C24.6849 8.244 24.5369 8.432 24.4169 8.616C24.3049 8.8 24.2489 8.936 24.2489 9.024C24.2489 9.072 24.2769 9.096 24.3329 9.096ZM29.6347 12.408C29.4347 12.408 29.2507 12.344 29.0827 12.216C28.9147 12.088 28.7547 11.952 28.6027 11.808C28.4827 11.696 28.3707 11.596 28.2667 11.508C28.1707 11.42 28.0827 11.376 28.0027 11.376C27.7627 11.376 27.5747 11.448 27.4387 11.592C27.3107 11.728 27.2467 11.888 27.2467 12.072C27.2467 12.152 27.2227 12.2 27.1747 12.216C27.1347 12.232 27.0987 12.24 27.0667 12.24C27.0427 12.24 27.0107 12.208 26.9707 12.144C26.9307 12.08 26.9067 12.008 26.8987 11.928C26.8907 11.84 26.9067 11.74 26.9467 11.628C26.9947 11.508 27.0747 11.396 27.1867 11.292L30.6427 7.944L30.9187 7.848C30.8387 7.96 30.7667 8.044 30.7027 8.1C30.6387 8.148 30.5547 8.172 30.4507 8.172C30.3307 8.172 30.2067 8.148 30.0787 8.1C29.9587 8.044 29.8307 7.984 29.6947 7.92C29.5427 7.84 29.3827 7.768 29.2147 7.704C29.0467 7.64 28.8667 7.608 28.6747 7.608C28.5307 7.608 28.3987 7.668 28.2787 7.788C28.1587 7.9 28.0987 8.016 28.0987 8.136C28.0987 8.192 28.1067 8.26 28.1227 8.34C28.1387 8.42 28.1707 8.496 28.2187 8.568C28.2667 8.648 28.2667 8.72 28.2187 8.784C28.1627 8.84 28.0747 8.9 27.9547 8.964C27.8427 9.02 27.7667 9.048 27.7267 9.048C27.6867 9.048 27.6347 9.012 27.5707 8.94C27.5067 8.868 27.4747 8.768 27.4747 8.64C27.4747 8.424 27.5267 8.24 27.6307 8.088C27.7347 7.928 27.8827 7.76 28.0747 7.584C28.1707 7.496 28.2907 7.412 28.4347 7.332C28.5787 7.244 28.7227 7.172 28.8667 7.116C29.0107 7.06 29.1267 7.032 29.2147 7.032C29.3507 7.032 29.4827 7.052 29.6107 7.092C29.7467 7.132 29.8787 7.176 30.0067 7.224C30.1507 7.28 30.2867 7.332 30.4147 7.38C30.5427 7.428 30.6587 7.452 30.7627 7.452C30.8827 7.452 30.9787 7.432 31.0507 7.392C31.1307 7.352 31.2147 7.288 31.3027 7.2C31.3427 7.16 31.3987 7.116 31.4707 7.068C31.5427 7.012 31.6067 6.984 31.6627 6.984C31.6867 6.984 31.7107 7 31.7347 7.032C31.7587 7.056 31.7707 7.088 31.7707 7.128C31.7707 7.184 31.7347 7.272 31.6627 7.392C31.5907 7.504 31.4987 7.616 31.3867 7.728L27.9667 11.1L27.7867 11.016C27.8827 10.928 27.9627 10.876 28.0267 10.86C28.0987 10.836 28.1827 10.824 28.2787 10.824C28.4627 10.824 28.6307 10.876 28.7827 10.98C28.9347 11.084 29.0867 11.2 29.2387 11.328C29.3747 11.44 29.5067 11.544 29.6347 11.64C29.7707 11.736 29.9067 11.784 30.0427 11.784C30.2267 11.784 30.3587 11.728 30.4387 11.616C30.5187 11.496 30.5707 11.348 30.5947 11.172C30.6187 10.988 30.6307 10.808 30.6307 10.632C30.6307 10.488 30.6427 10.396 30.6667 10.356C30.6907 10.308 30.7387 10.284 30.8107 10.284C30.8987 10.284 30.9867 10.34 31.0747 10.452C31.1627 10.556 31.2067 10.704 31.2067 10.896C31.2067 11.064 31.1467 11.236 31.0267 11.412C30.9067 11.588 30.7587 11.752 30.5827 11.904C30.4067 12.056 30.2307 12.176 30.0547 12.264C29.8867 12.36 29.7467 12.408 29.6347 12.408ZM32.8918 15.432C32.8518 15.432 32.8118 15.424 32.7718 15.408C32.7238 15.392 32.6998 15.364 32.6998 15.324C32.6998 15.26 32.7438 15.204 32.8318 15.156C32.9118 15.116 32.9878 15.092 33.0598 15.084C33.2278 15.052 33.3598 15.008 33.4558 14.952C33.5518 14.896 33.6278 14.792 33.6838 14.64L35.9998 8.172C36.0398 8.06 36.0638 7.976 36.0718 7.92C36.0798 7.864 36.0678 7.828 36.0358 7.812C36.0038 7.788 35.9478 7.784 35.8678 7.8C35.6758 7.832 35.5078 7.868 35.3638 7.908C35.2278 7.94 35.0758 7.996 34.9078 8.076C34.8438 8.108 34.7838 8.116 34.7278 8.1C34.6798 8.076 34.6558 8.04 34.6558 7.992C34.6558 7.928 34.6718 7.876 34.7038 7.836C34.7438 7.796 34.7878 7.764 34.8358 7.74C34.9638 7.676 35.1478 7.588 35.3878 7.476C35.6278 7.364 35.9078 7.268 36.2278 7.188C36.2838 7.172 36.3278 7.152 36.3598 7.128C36.3998 7.096 36.4278 7.052 36.4438 6.996C36.5558 6.62 36.6598 6.348 36.7558 6.18C36.8518 6.012 36.9878 5.928 37.1638 5.928C37.2278 5.928 37.2838 5.948 37.3318 5.988C37.3798 6.028 37.3958 6.084 37.3798 6.156L37.1758 6.852C37.1518 6.932 37.1478 6.992 37.1638 7.032C37.1798 7.064 37.2038 7.076 37.2358 7.068C37.3398 7.052 37.4318 7.04 37.5118 7.032C37.5998 7.024 37.6838 7.02 37.7638 7.02C38.1638 7.02 38.4758 7.088 38.6998 7.224C38.9318 7.352 39.0918 7.532 39.1798 7.764C39.2758 7.988 39.3238 8.24 39.3238 8.52C39.3238 8.904 39.2358 9.308 39.0598 9.732C38.8838 10.148 38.6438 10.544 38.3398 10.92C38.0438 11.288 37.7078 11.588 37.3318 11.82C36.9638 12.052 36.5798 12.168 36.1798 12.168C36.1078 12.168 36.0278 12.144 35.9398 12.096C35.8518 12.048 35.7678 12 35.6878 11.952C35.6158 11.904 35.5558 11.892 35.5078 11.916C35.4678 11.932 35.4198 12.016 35.3638 12.168L34.5718 14.508C34.5158 14.676 34.5318 14.8 34.6198 14.88C34.7158 14.968 34.8638 15.02 35.0638 15.036C35.1438 15.044 35.2238 15.06 35.3038 15.084C35.3838 15.108 35.4238 15.152 35.4238 15.216C35.4238 15.264 35.3878 15.296 35.3158 15.312C35.2438 15.336 35.1638 15.348 35.0758 15.348C34.9558 15.348 34.8318 15.344 34.7038 15.336C34.5758 15.336 34.4558 15.336 34.3438 15.336C34.2398 15.336 34.1518 15.34 34.0798 15.348C33.8798 15.372 33.6878 15.392 33.5038 15.408C33.3118 15.424 33.1078 15.432 32.8918 15.432ZM36.4078 11.76C36.5918 11.76 36.7998 11.66 37.0318 11.46C37.2638 11.252 37.4838 10.988 37.6918 10.668C37.9078 10.348 38.0838 10.008 38.2198 9.648C38.3638 9.288 38.4358 8.948 38.4358 8.628C38.4358 8.18 38.3558 7.876 38.1958 7.716C38.0358 7.556 37.8118 7.472 37.5238 7.464C37.4518 7.464 37.3798 7.464 37.3078 7.464C37.2358 7.464 37.1558 7.472 37.0678 7.488L35.9638 10.728C35.9158 10.872 35.8878 11.008 35.8798 11.136C35.8798 11.256 35.8958 11.36 35.9278 11.448C35.9678 11.552 36.0238 11.632 36.0958 11.688C36.1758 11.736 36.2798 11.76 36.4078 11.76ZM40.7452 12.168C40.5532 12.168 40.3732 12.104 40.2052 11.976C40.0372 11.848 39.9012 11.68 39.7972 11.472C39.7012 11.264 39.6532 11.044 39.6532 10.812C39.6532 10.436 39.7252 10.032 39.8692 9.6C40.0212 9.16 40.2292 8.748 40.4932 8.364C40.7572 7.972 41.0612 7.652 41.4052 7.404C41.7572 7.156 42.1332 7.032 42.5332 7.032C42.9332 7.032 43.2412 7.168 43.4572 7.44C43.6812 7.712 43.7932 8.048 43.7932 8.448C43.7932 8.808 43.7212 9.204 43.5772 9.636C43.4332 10.06 43.2252 10.464 42.9532 10.848C42.6892 11.232 42.3692 11.548 41.9932 11.796C41.6252 12.044 41.2092 12.168 40.7452 12.168ZM40.9372 11.808C41.1292 11.808 41.3212 11.724 41.5132 11.556C41.7132 11.388 41.9012 11.168 42.0772 10.896C42.2612 10.624 42.4212 10.324 42.5572 9.996C42.7012 9.668 42.8132 9.34 42.8932 9.012C42.9812 8.684 43.0252 8.384 43.0252 8.112C43.0252 7.904 42.9892 7.732 42.9172 7.596C42.8532 7.46 42.7172 7.392 42.5092 7.392C42.3252 7.392 42.1332 7.468 41.9332 7.62C41.7412 7.772 41.5532 7.976 41.3692 8.232C41.1932 8.488 41.0332 8.776 40.8892 9.096C40.7452 9.408 40.6292 9.736 40.5412 10.08C40.4612 10.416 40.4212 10.744 40.4212 11.064C40.4212 11.328 40.4652 11.52 40.5532 11.64C40.6492 11.752 40.7772 11.808 40.9372 11.808ZM44.8118 12.168C44.7238 12.168 44.6318 12.128 44.5358 12.048C44.4478 11.976 44.3798 11.888 44.3318 11.784C44.2838 11.68 44.2718 11.596 44.2958 11.532L45.5558 8.496C45.6118 8.36 45.6478 8.244 45.6638 8.148C45.6798 8.052 45.6558 8.004 45.5918 8.004C45.5518 8.004 45.4838 8.036 45.3878 8.1C45.2998 8.164 45.1958 8.244 45.0758 8.34C44.9638 8.436 44.8478 8.536 44.7278 8.64C44.7118 8.656 44.6798 8.66 44.6318 8.652C44.5918 8.644 44.5718 8.628 44.5718 8.604C44.5718 8.572 44.5798 8.528 44.5958 8.472C44.6118 8.408 44.6518 8.332 44.7158 8.244C44.9158 7.972 45.1358 7.744 45.3758 7.56C45.6238 7.376 45.8558 7.236 46.0718 7.14C46.2958 7.036 46.4638 6.984 46.5758 6.984C46.6158 6.984 46.6598 7.008 46.7078 7.056C46.7638 7.096 46.8078 7.148 46.8398 7.212C46.8718 7.268 46.8718 7.324 46.8398 7.38C46.5758 7.924 46.3238 8.476 46.0838 9.036C45.8438 9.596 45.6038 10.148 45.3638 10.692C45.2918 10.852 45.2478 11 45.2318 11.136C45.2158 11.272 45.2478 11.34 45.3278 11.34C45.4078 11.34 45.5278 11.272 45.6878 11.136C45.8478 11 46.0278 10.824 46.2278 10.608C46.4358 10.392 46.6518 10.16 46.8758 9.912C47.1798 9.568 47.4718 9.212 47.7518 8.844C48.0398 8.476 48.2878 8.144 48.4958 7.848C48.7038 7.552 48.8398 7.344 48.9038 7.224C48.9438 7.144 48.9918 7.092 49.0478 7.068C49.1038 7.044 49.1558 7.032 49.2038 7.032C49.2518 7.032 49.2998 7.056 49.3478 7.104C49.3958 7.152 49.4318 7.208 49.4558 7.272C49.4878 7.336 49.4918 7.392 49.4678 7.44L47.9318 10.968C47.8678 11.12 47.8398 11.236 47.8478 11.316C47.8558 11.396 47.8958 11.436 47.9678 11.436C48.0718 11.436 48.2078 11.38 48.3758 11.268C48.5438 11.156 48.7158 11.028 48.8918 10.884C49.0678 10.732 49.2158 10.596 49.3358 10.476C49.3438 10.468 49.3558 10.464 49.3718 10.464C49.3958 10.464 49.4198 10.476 49.4438 10.5C49.4678 10.516 49.4798 10.54 49.4798 10.572C49.4798 10.588 49.4758 10.604 49.4678 10.62C49.4598 10.636 49.4478 10.656 49.4318 10.68C49.4238 10.704 49.4078 10.732 49.3838 10.764C49.3678 10.796 49.3438 10.832 49.3118 10.872C49.2878 10.904 49.2558 10.944 49.2158 10.992C49.0638 11.184 48.8878 11.372 48.6878 11.556C48.4878 11.732 48.2718 11.88 48.0398 12C47.8158 12.112 47.5758 12.168 47.3198 12.168C47.2158 12.168 47.1198 12.1 47.0318 11.964C46.9518 11.828 46.9358 11.708 46.9838 11.604C47.0958 11.364 47.2158 11.108 47.3438 10.836C47.4718 10.564 47.5838 10.312 47.6798 10.08C47.7838 9.848 47.8558 9.676 47.8958 9.564C47.9358 9.468 47.9318 9.416 47.8838 9.408C47.8358 9.4 47.7918 9.42 47.7518 9.468C47.3358 9.924 46.9678 10.324 46.6478 10.668C46.3278 11.004 46.0478 11.284 45.8078 11.508C45.5758 11.724 45.3758 11.888 45.2078 12C45.0478 12.112 44.9158 12.168 44.8118 12.168ZM50.6575 12.204C50.6175 12.204 50.5735 12.188 50.5255 12.156C50.4775 12.132 50.4375 12.096 50.4055 12.048C50.3735 12.008 50.3575 11.964 50.3575 11.916C50.3575 11.82 50.3815 11.7 50.4295 11.556C50.4855 11.404 50.5535 11.216 50.6335 10.992L51.7375 8.112C51.7775 8.008 51.7935 7.912 51.7855 7.824C51.7855 7.736 51.7455 7.692 51.6655 7.692C51.5535 7.692 51.4415 7.708 51.3295 7.74C51.2255 7.764 51.1455 7.792 51.0895 7.824C51.0415 7.856 50.9935 7.864 50.9455 7.848C50.9055 7.824 50.8855 7.784 50.8855 7.728C50.8855 7.664 50.9135 7.592 50.9695 7.512C51.0335 7.432 51.1175 7.356 51.2215 7.284C51.3175 7.212 51.4295 7.152 51.5575 7.104C51.6935 7.056 51.8335 7.032 51.9775 7.032C52.2015 7.032 52.3415 7.088 52.3975 7.2C52.4615 7.312 52.4695 7.464 52.4215 7.656C52.3815 7.84 52.3135 8.052 52.2175 8.292L51.6775 9.648C51.6455 9.704 51.6535 9.74 51.7015 9.756C51.7575 9.772 51.7975 9.76 51.8215 9.72C52.1415 9.168 52.4615 8.688 52.7815 8.28C53.1095 7.864 53.4135 7.544 53.6935 7.32C53.9735 7.088 54.2055 6.972 54.3895 6.972C54.5975 6.972 54.7415 7.032 54.8215 7.152C54.9095 7.272 54.9535 7.412 54.9535 7.572C54.9535 7.716 54.9255 7.864 54.8695 8.016C54.8215 8.168 54.7495 8.296 54.6535 8.4C54.5655 8.496 54.4655 8.544 54.3535 8.544C54.2895 8.544 54.2415 8.508 54.2095 8.436C54.1775 8.356 54.1615 8.252 54.1615 8.124C54.1615 8.004 54.1455 7.912 54.1135 7.848C54.0815 7.776 54.0215 7.74 53.9335 7.74C53.8535 7.74 53.7455 7.792 53.6095 7.896C53.4815 8 53.3175 8.18 53.1175 8.436C53.0295 8.556 52.9135 8.72 52.7695 8.928C52.6255 9.136 52.4695 9.368 52.3015 9.624C52.1415 9.872 51.9815 10.128 51.8215 10.392C51.6615 10.648 51.5215 10.884 51.4015 11.1C51.1855 11.484 51.0295 11.764 50.9335 11.94C50.8455 12.116 50.7535 12.204 50.6575 12.204ZM58.1587 12.18C57.9907 12.18 57.8187 12.116 57.6427 11.988C57.4747 11.86 57.3347 11.7 57.2227 11.508C57.1107 11.308 57.0547 11.116 57.0547 10.932C57.0547 10.532 57.1347 10.108 57.2947 9.66C57.4627 9.204 57.6907 8.78 57.9787 8.388C58.2667 7.988 58.5987 7.664 58.9747 7.416C59.3587 7.16 59.7627 7.032 60.1867 7.032C60.4667 7.032 60.6827 7.092 60.8347 7.212C60.9947 7.324 61.0747 7.484 61.0747 7.692C61.0747 7.94 60.9947 8.156 60.8347 8.34C60.6827 8.524 60.4747 8.684 60.2107 8.82C59.9467 8.948 59.6507 9.056 59.3227 9.144C59.0027 9.232 58.6747 9.308 58.3387 9.372C58.2907 9.38 58.2507 9.392 58.2187 9.408C58.1947 9.416 58.1747 9.444 58.1587 9.492C58.1027 9.668 58.0467 9.86 57.9907 10.068C57.9347 10.276 57.9067 10.472 57.9067 10.656C57.9067 10.936 57.9587 11.152 58.0627 11.304C58.1747 11.456 58.3347 11.532 58.5427 11.532C58.8307 11.532 59.0747 11.46 59.2747 11.316C59.4747 11.172 59.6387 11.028 59.7667 10.884C59.8467 10.796 59.9187 10.752 59.9827 10.752C60.0627 10.752 60.1027 10.792 60.1027 10.872C60.1027 10.88 60.1027 10.896 60.1027 10.92C60.1027 10.936 60.0947 10.952 60.0787 10.968C59.9187 11.232 59.7387 11.456 59.5387 11.64C59.3387 11.816 59.1227 11.948 58.8907 12.036C58.6667 12.132 58.4227 12.18 58.1587 12.18ZM58.4227 9.096C58.5107 9.096 58.6587 9.072 58.8667 9.024C59.0827 8.968 59.3067 8.884 59.5387 8.772C59.7707 8.652 59.9667 8.508 60.1267 8.34C60.2947 8.164 60.3787 7.956 60.3787 7.716C60.3787 7.612 60.3507 7.524 60.2947 7.452C60.2387 7.372 60.1587 7.332 60.0547 7.332C59.8867 7.332 59.7027 7.404 59.5027 7.548C59.3107 7.684 59.1267 7.852 58.9507 8.052C58.7747 8.244 58.6267 8.432 58.5067 8.616C58.3947 8.8 58.3387 8.936 58.3387 9.024C58.3387 9.072 58.3667 9.096 58.4227 9.096ZM61.7326 12.192C61.6846 12.192 61.6366 12.172 61.5886 12.132C61.5486 12.1 61.5126 12.056 61.4806 12C61.4486 11.952 61.4246 11.896 61.4086 11.832C61.4006 11.768 61.4086 11.712 61.4326 11.664L62.8246 8.256C62.9686 7.904 62.9766 7.728 62.8486 7.728C62.7686 7.728 62.6846 7.74 62.5966 7.764C62.5086 7.78 62.4126 7.828 62.3086 7.908C62.2046 7.988 62.0886 8.112 61.9606 8.28C61.9286 8.312 61.8926 8.328 61.8526 8.328C61.8206 8.32 61.7966 8.288 61.7806 8.232C61.7806 8.184 61.7926 8.124 61.8166 8.052C61.8486 7.972 61.8846 7.896 61.9246 7.824C61.9646 7.744 62.0006 7.68 62.0326 7.632C62.1526 7.448 62.3126 7.304 62.5126 7.2C62.7206 7.096 62.9606 7.04 63.2326 7.032C63.3206 7.032 63.4006 7.056 63.4726 7.104C63.5446 7.144 63.5966 7.204 63.6286 7.284C63.6686 7.364 63.6686 7.452 63.6286 7.548L62.8366 9.588C62.8126 9.644 62.8166 9.676 62.8486 9.684C62.8886 9.692 62.9206 9.676 62.9446 9.636C63.2726 9.076 63.6046 8.604 63.9406 8.22C64.2846 7.828 64.6126 7.532 64.9246 7.332C65.2366 7.132 65.5126 7.032 65.7526 7.032C65.9206 7.032 66.0646 7.092 66.1846 7.212C66.3126 7.324 66.3926 7.48 66.4246 7.68C66.4646 7.872 66.4286 8.096 66.3166 8.352L65.2126 10.968C65.0926 11.256 65.1126 11.4 65.2726 11.4C65.3686 11.4 65.4846 11.364 65.6206 11.292C65.7646 11.22 65.9086 11.136 66.0526 11.04C66.1966 10.936 66.3206 10.844 66.4246 10.764C66.5366 10.676 66.6086 10.616 66.6406 10.584C66.6486 10.576 66.6526 10.572 66.6526 10.572C66.6606 10.572 66.6686 10.572 66.6766 10.572C66.7006 10.572 66.7206 10.584 66.7366 10.608C66.7606 10.624 66.7726 10.648 66.7726 10.68C66.7726 10.744 66.7566 10.8 66.7246 10.848C66.5166 11.096 66.2926 11.32 66.0526 11.52C65.8206 11.72 65.5766 11.88 65.3206 12C65.0726 12.112 64.8206 12.168 64.5646 12.168C64.4926 12.168 64.4206 12.14 64.3486 12.084C64.2766 12.036 64.2206 11.972 64.1806 11.892C64.1486 11.812 64.1526 11.728 64.1926 11.64C64.4246 11.104 64.6566 10.572 64.8886 10.044C65.1286 9.508 65.3526 8.972 65.5606 8.436C65.6886 8.108 65.7326 7.88 65.6926 7.752C65.6526 7.616 65.5766 7.544 65.4646 7.536C65.3766 7.528 65.2726 7.56 65.1526 7.632C65.0326 7.696 64.8966 7.8 64.7446 7.944C64.5926 8.08 64.4286 8.256 64.2526 8.472C64.1566 8.584 64.0286 8.76 63.8686 9C63.7086 9.232 63.5286 9.504 63.3286 9.816C63.1286 10.12 62.9206 10.448 62.7046 10.8C62.4966 11.144 62.2966 11.484 62.1046 11.82C62.0326 11.948 61.9686 12.04 61.9126 12.096C61.8566 12.16 61.7966 12.192 61.7326 12.192ZM1.312 28.168C1.136 28.168 0.984 28.116 0.856 28.012C0.728 27.916 0.664 27.792 0.664 27.64C0.664 27.456 0.708 27.32 0.796 27.232C0.876 27.136 0.944 27.088 1 27.088C1.056 27.088 1.112 27.112 1.168 27.16C1.232 27.2 1.3 27.252 1.372 27.316C1.46 27.38 1.556 27.444 1.66 27.508C1.772 27.564 1.916 27.592 2.092 27.592C2.308 27.592 2.48 27.516 2.608 27.364C2.736 27.204 2.804 27.036 2.812 26.86C2.812 26.684 2.78 26.496 2.716 26.296C2.66 26.088 2.576 25.884 2.464 25.684C2.36 25.492 2.272 25.312 2.2 25.144C2.136 24.968 2.104 24.82 2.104 24.7C2.104 24.468 2.164 24.252 2.284 24.052C2.412 23.844 2.564 23.664 2.74 23.512C2.924 23.36 3.104 23.244 3.28 23.164C3.456 23.076 3.596 23.032 3.7 23.032C3.804 23.032 3.908 23.064 4.012 23.128C4.116 23.184 4.2 23.252 4.264 23.332C4.336 23.404 4.372 23.468 4.372 23.524C4.372 23.572 4.348 23.632 4.3 23.704C4.252 23.768 4.196 23.828 4.132 23.884C4.068 23.94 4.012 23.968 3.964 23.968C3.924 23.968 3.884 23.948 3.844 23.908C3.804 23.868 3.76 23.824 3.712 23.776C3.664 23.728 3.604 23.684 3.532 23.644C3.468 23.604 3.38 23.584 3.268 23.584C3.14 23.584 3.028 23.64 2.932 23.752C2.836 23.856 2.788 23.996 2.788 24.172C2.788 24.236 2.808 24.336 2.848 24.472C2.896 24.608 2.948 24.748 3.004 24.892C3.068 25.036 3.128 25.164 3.184 25.276C3.272 25.436 3.352 25.64 3.424 25.888C3.504 26.128 3.544 26.34 3.544 26.524C3.544 26.764 3.472 26.984 3.328 27.184C3.192 27.384 3.012 27.56 2.788 27.712C2.564 27.856 2.32 27.968 2.056 28.048C1.8 28.128 1.552 28.168 1.312 28.168ZM4.85641 28.168C4.76041 28.168 4.66441 28.14 4.56841 28.084C4.47241 28.036 4.39241 27.972 4.32841 27.892C4.27241 27.812 4.24441 27.728 4.24441 27.64C4.24441 27.352 4.34041 27.02 4.53241 26.644C4.72441 26.26 4.99241 25.86 5.33641 25.444C5.68041 25.02 6.07641 24.612 6.52441 24.22C6.95641 23.844 7.30841 23.564 7.58041 23.38C7.85241 23.188 8.05241 23.092 8.18041 23.092C8.30841 23.092 8.42041 23.148 8.51641 23.26C8.62841 23.404 8.67641 23.472 8.66041 23.464C8.65241 23.448 8.65241 23.44 8.66041 23.44C8.67641 23.44 8.68841 23.436 8.69641 23.428C8.71241 23.412 8.72441 23.392 8.73241 23.368C8.84441 23.176 8.91241 23.06 8.93641 23.02C8.96041 22.98 8.96041 22.976 8.93641 23.008C8.98441 22.928 9.03241 22.888 9.08041 22.888C9.15241 22.888 9.22441 22.9 9.29641 22.924C9.36841 22.948 9.42441 22.98 9.46441 23.02C9.51241 23.06 9.53641 23.1 9.53641 23.14C9.53641 23.18 9.50841 23.28 9.45241 23.44L8.10841 27.004C8.00441 27.276 8.05641 27.412 8.26441 27.412C8.40841 27.412 8.58041 27.344 8.78041 27.208C8.98841 27.064 9.16841 26.892 9.32041 26.692C9.33641 26.676 9.35241 26.664 9.36841 26.656C9.39241 26.64 9.41241 26.632 9.42841 26.632C9.46041 26.632 9.48041 26.644 9.48841 26.668C9.50441 26.684 9.51241 26.716 9.51241 26.764C9.51241 26.82 9.45641 26.932 9.34441 27.1C9.23241 27.26 9.11641 27.4 8.99641 27.52C8.77241 27.728 8.54441 27.888 8.31241 28C8.08841 28.112 7.88041 28.168 7.68841 28.168C7.60841 28.168 7.52841 28.144 7.44841 28.096C7.36841 28.048 7.30041 27.988 7.24441 27.916C7.19641 27.844 7.17241 27.772 7.17241 27.7C7.17241 27.612 7.19641 27.52 7.24441 27.424C7.21241 27.496 7.20841 27.496 7.23241 27.424C7.26441 27.352 7.31241 27.24 7.37641 27.088C7.44841 26.936 7.52441 26.776 7.60441 26.608C7.68441 26.44 7.75241 26.292 7.80841 26.164C7.84841 26.076 7.86441 26.012 7.85641 25.972C7.85641 25.924 7.83241 25.928 7.78441 25.984C7.29641 26.528 6.87641 26.96 6.52441 27.28C6.18041 27.6 5.87641 27.828 5.61241 27.964C5.34841 28.1 5.09641 28.168 4.85641 28.168ZM5.52841 27.412C5.70441 27.412 5.96441 27.268 6.30841 26.98C6.66041 26.684 7.05641 26.276 7.49641 25.756C7.80041 25.404 8.04041 25.08 8.21641 24.784C8.39241 24.488 8.48041 24.268 8.48041 24.124C8.48041 24.06 8.42841 23.984 8.32441 23.896C8.27641 23.856 8.22441 23.824 8.16841 23.8C8.11241 23.776 8.06441 23.764 8.02441 23.764C7.88041 23.764 7.68041 23.836 7.42441 23.98C7.17641 24.124 6.94841 24.296 6.74041 24.496C6.47641 24.752 6.22441 25.04 5.98441 25.36C5.74441 25.68 5.54841 25.988 5.39641 26.284C5.25241 26.58 5.18041 26.82 5.18041 27.004C5.18041 27.124 5.21241 27.224 5.27641 27.304C5.34041 27.376 5.42441 27.412 5.52841 27.412ZM11.6389 28.168C11.4549 28.168 11.2949 28.088 11.1589 27.928C11.0229 27.768 10.9309 27.568 10.8829 27.328C10.8429 27.088 10.8669 26.852 10.9549 26.62L11.7349 24.544C11.7989 24.384 11.8349 24.256 11.8429 24.16C11.8509 24.056 11.8069 24.004 11.7109 24.004C11.6549 24.004 11.5549 24.064 11.4109 24.184C11.2749 24.304 11.1429 24.432 11.0149 24.568C10.9749 24.616 10.9429 24.644 10.9189 24.652C10.8949 24.66 10.8749 24.664 10.8589 24.664C10.8029 24.664 10.7749 24.644 10.7749 24.604C10.7749 24.556 10.7829 24.504 10.7989 24.448C10.8229 24.392 10.8629 24.324 10.9189 24.244C11.0629 24.044 11.2069 23.868 11.3509 23.716C11.5029 23.556 11.6469 23.424 11.7829 23.32C11.9189 23.208 12.0429 23.124 12.1549 23.068C12.2749 23.012 12.3789 22.984 12.4669 22.984C12.5309 22.984 12.5909 23.008 12.6469 23.056C12.7029 23.104 12.7429 23.164 12.7669 23.236C12.7989 23.3 12.8029 23.372 12.7789 23.452L11.6989 26.572C11.6109 26.844 11.5989 27.064 11.6629 27.232C11.7269 27.4 11.8589 27.484 12.0589 27.484C12.3469 27.484 12.6269 27.404 12.8989 27.244C13.1789 27.076 13.4269 26.856 13.6429 26.584C13.8589 26.304 14.0309 25.996 14.1589 25.66C14.2869 25.324 14.3509 24.984 14.3509 24.64C14.3509 24.504 14.3229 24.368 14.2669 24.232C14.2189 24.096 14.1509 23.976 14.0629 23.872C14.0069 23.808 13.9669 23.744 13.9429 23.68C13.9269 23.616 13.9189 23.548 13.9189 23.476C13.9189 23.404 13.9549 23.332 14.0269 23.26C14.0989 23.18 14.1869 23.116 14.2909 23.068C14.4029 23.012 14.5149 22.984 14.6269 22.984C14.7149 22.984 14.7949 23.052 14.8669 23.188C14.9389 23.324 14.9749 23.532 14.9749 23.812C14.9749 24.164 14.9349 24.512 14.8549 24.856C14.7829 25.2 14.6629 25.54 14.4949 25.876C14.3349 26.204 14.1149 26.528 13.8349 26.848C13.4589 27.288 13.0789 27.62 12.6949 27.844C12.3189 28.06 11.9669 28.168 11.6389 28.168ZM16.4288 28.168C16.2368 28.168 16.0568 28.104 15.8888 27.976C15.7208 27.848 15.5848 27.68 15.4808 27.472C15.3848 27.264 15.3368 27.044 15.3368 26.812C15.3368 26.436 15.4088 26.032 15.5528 25.6C15.7048 25.16 15.9128 24.748 16.1768 24.364C16.4408 23.972 16.7448 23.652 17.0888 23.404C17.4408 23.156 17.8168 23.032 18.2168 23.032C18.6168 23.032 18.9248 23.168 19.1408 23.44C19.3648 23.712 19.4768 24.048 19.4768 24.448C19.4768 24.808 19.4048 25.204 19.2608 25.636C19.1168 26.06 18.9088 26.464 18.6368 26.848C18.3728 27.232 18.0528 27.548 17.6768 27.796C17.3088 28.044 16.8928 28.168 16.4288 28.168ZM16.6208 27.808C16.8128 27.808 17.0048 27.724 17.1968 27.556C17.3968 27.388 17.5848 27.168 17.7608 26.896C17.9448 26.624 18.1048 26.324 18.2408 25.996C18.3848 25.668 18.4968 25.34 18.5768 25.012C18.6648 24.684 18.7088 24.384 18.7088 24.112C18.7088 23.904 18.6728 23.732 18.6008 23.596C18.5368 23.46 18.4008 23.392 18.1928 23.392C18.0088 23.392 17.8168 23.468 17.6168 23.62C17.4248 23.772 17.2368 23.976 17.0528 24.232C16.8768 24.488 16.7168 24.776 16.5728 25.096C16.4288 25.408 16.3128 25.736 16.2248 26.08C16.1448 26.416 16.1048 26.744 16.1048 27.064C16.1048 27.328 16.1488 27.52 16.2368 27.64C16.3328 27.752 16.4608 27.808 16.6208 27.808ZM20.4834 28.168C20.3474 28.168 20.2354 28.124 20.1474 28.036C20.0594 27.948 20.0154 27.856 20.0154 27.76C20.0154 27.728 20.0154 27.696 20.0154 27.664C20.0234 27.632 20.0354 27.6 20.0514 27.568C20.3794 26.904 20.6554 26.28 20.8794 25.696C21.1034 25.104 21.3034 24.588 21.4794 24.148C21.5114 24.052 21.4914 24.004 21.4194 24.004C21.3794 24.004 21.2994 24.028 21.1794 24.076C21.0674 24.116 20.9474 24.172 20.8194 24.244C20.6914 24.316 20.5794 24.388 20.4834 24.46C20.4434 24.492 20.4034 24.5 20.3634 24.484C20.3234 24.468 20.3034 24.44 20.3034 24.4C20.3034 24.36 20.3314 24.304 20.3874 24.232C20.4514 24.152 20.5354 24.064 20.6394 23.968C20.7514 23.872 20.8834 23.772 21.0354 23.668C21.1874 23.556 21.3514 23.448 21.5274 23.344C21.7114 23.232 21.9034 23.132 22.1034 23.044C22.1754 23.012 22.2474 23.02 22.3194 23.068C22.3914 23.116 22.4474 23.176 22.4874 23.248C22.5354 23.32 22.5514 23.376 22.5354 23.416L21.0714 26.884C21.0394 26.948 21.0154 27.012 20.9994 27.076C20.9914 27.132 20.9874 27.184 20.9874 27.232C20.9874 27.288 21.0074 27.328 21.0474 27.352C21.0954 27.368 21.1394 27.376 21.1794 27.376C21.2914 27.376 21.4194 27.324 21.5634 27.22C21.7074 27.108 21.8594 26.976 22.0194 26.824C22.1874 26.664 22.3474 26.508 22.4994 26.356C22.5154 26.34 22.5314 26.332 22.5474 26.332C22.5634 26.332 22.5794 26.34 22.5954 26.356C22.6114 26.364 22.6194 26.376 22.6194 26.392C22.6194 26.52 22.5434 26.684 22.3914 26.884C22.2394 27.076 22.0474 27.272 21.8154 27.472C21.5914 27.664 21.3594 27.828 21.1194 27.964C20.8794 28.1 20.6674 28.168 20.4834 28.168ZM22.9074 21.844C22.7874 21.844 22.6874 21.796 22.6074 21.7C22.5274 21.604 22.4874 21.496 22.4874 21.376C22.4874 21.184 22.5514 21.016 22.6794 20.872C22.8074 20.72 22.9674 20.644 23.1594 20.644C23.2874 20.644 23.3874 20.7 23.4594 20.812C23.5314 20.916 23.5674 21.032 23.5674 21.16C23.5674 21.336 23.5034 21.496 23.3754 21.64C23.2474 21.776 23.0914 21.844 22.9074 21.844ZM23.763 28.204C23.723 28.204 23.679 28.188 23.631 28.156C23.583 28.132 23.543 28.096 23.511 28.048C23.479 28.008 23.463 27.964 23.463 27.916C23.463 27.82 23.487 27.7 23.535 27.556C23.591 27.404 23.659 27.216 23.739 26.992L24.843 24.112C24.883 24.008 24.899 23.912 24.891 23.824C24.891 23.736 24.851 23.692 24.771 23.692C24.659 23.692 24.547 23.708 24.435 23.74C24.331 23.764 24.251 23.792 24.195 23.824C24.147 23.856 24.099 23.864 24.051 23.848C24.011 23.824 23.991 23.784 23.991 23.728C23.991 23.664 24.019 23.592 24.075 23.512C24.139 23.432 24.223 23.356 24.327 23.284C24.423 23.212 24.535 23.152 24.663 23.104C24.799 23.056 24.939 23.032 25.083 23.032C25.307 23.032 25.447 23.088 25.503 23.2C25.567 23.312 25.575 23.464 25.527 23.656C25.487 23.84 25.419 24.052 25.323 24.292L24.783 25.648C24.751 25.704 24.759 25.74 24.807 25.756C24.863 25.772 24.903 25.76 24.927 25.72C25.247 25.168 25.567 24.688 25.887 24.28C26.215 23.864 26.519 23.544 26.799 23.32C27.079 23.088 27.311 22.972 27.495 22.972C27.703 22.972 27.847 23.032 27.927 23.152C28.015 23.272 28.059 23.412 28.059 23.572C28.059 23.716 28.031 23.864 27.975 24.016C27.927 24.168 27.855 24.296 27.759 24.4C27.671 24.496 27.571 24.544 27.459 24.544C27.395 24.544 27.347 24.508 27.315 24.436C27.283 24.356 27.267 24.252 27.267 24.124C27.267 24.004 27.251 23.912 27.219 23.848C27.187 23.776 27.127 23.74 27.039 23.74C26.959 23.74 26.851 23.792 26.715 23.896C26.587 24 26.423 24.18 26.223 24.436C26.135 24.556 26.019 24.72 25.875 24.928C25.731 25.136 25.575 25.368 25.407 25.624C25.247 25.872 25.087 26.128 24.927 26.392C24.767 26.648 24.627 26.884 24.507 27.1C24.291 27.484 24.135 27.764 24.039 27.94C23.951 28.116 23.859 28.204 23.763 28.204ZM28.7082 31.432C28.6682 31.432 28.6282 31.424 28.5882 31.408C28.5402 31.392 28.5162 31.364 28.5162 31.324C28.5162 31.26 28.5602 31.204 28.6482 31.156C28.7282 31.116 28.8042 31.092 28.8762 31.084C29.0442 31.052 29.1762 31.008 29.2722 30.952C29.3682 30.896 29.4442 30.792 29.5002 30.64L31.8162 24.172C31.8562 24.06 31.8802 23.976 31.8882 23.92C31.8962 23.864 31.8842 23.828 31.8522 23.812C31.8202 23.788 31.7642 23.784 31.6842 23.8C31.4922 23.832 31.3242 23.868 31.1802 23.908C31.0442 23.94 30.8922 23.996 30.7242 24.076C30.6602 24.108 30.6002 24.116 30.5442 24.1C30.4962 24.076 30.4722 24.04 30.4722 23.992C30.4722 23.928 30.4882 23.876 30.5202 23.836C30.5602 23.796 30.6042 23.764 30.6522 23.74C30.7802 23.676 30.9642 23.588 31.2042 23.476C31.4442 23.364 31.7242 23.268 32.0442 23.188C32.1002 23.172 32.1442 23.152 32.1762 23.128C32.2162 23.096 32.2442 23.052 32.2602 22.996C32.3722 22.62 32.4762 22.348 32.5722 22.18C32.6682 22.012 32.8042 21.928 32.9802 21.928C33.0442 21.928 33.1002 21.948 33.1482 21.988C33.1962 22.028 33.2122 22.084 33.1962 22.156L32.9922 22.852C32.9682 22.932 32.9642 22.992 32.9802 23.032C32.9962 23.064 33.0202 23.076 33.0522 23.068C33.1562 23.052 33.2482 23.04 33.3282 23.032C33.4162 23.024 33.5002 23.02 33.5802 23.02C33.9802 23.02 34.2922 23.088 34.5162 23.224C34.7482 23.352 34.9082 23.532 34.9962 23.764C35.0922 23.988 35.1402 24.24 35.1402 24.52C35.1402 24.904 35.0522 25.308 34.8762 25.732C34.7002 26.148 34.4602 26.544 34.1562 26.92C33.8602 27.288 33.5242 27.588 33.1482 27.82C32.7802 28.052 32.3962 28.168 31.9962 28.168C31.9242 28.168 31.8442 28.144 31.7562 28.096C31.6682 28.048 31.5842 28 31.5042 27.952C31.4322 27.904 31.3722 27.892 31.3242 27.916C31.2842 27.932 31.2362 28.016 31.1802 28.168L30.3882 30.508C30.3322 30.676 30.3482 30.8 30.4362 30.88C30.5322 30.968 30.6802 31.02 30.8802 31.036C30.9602 31.044 31.0402 31.06 31.1202 31.084C31.2002 31.108 31.2402 31.152 31.2402 31.216C31.2402 31.264 31.2042 31.296 31.1322 31.312C31.0602 31.336 30.9802 31.348 30.8922 31.348C30.7722 31.348 30.6482 31.344 30.5202 31.336C30.3922 31.336 30.2722 31.336 30.1602 31.336C30.0562 31.336 29.9682 31.34 29.8962 31.348C29.6962 31.372 29.5042 31.392 29.3202 31.408C29.1282 31.424 28.9242 31.432 28.7082 31.432ZM32.2242 27.76C32.4082 27.76 32.6162 27.66 32.8482 27.46C33.0802 27.252 33.3002 26.988 33.5082 26.668C33.7242 26.348 33.9002 26.008 34.0362 25.648C34.1802 25.288 34.2522 24.948 34.2522 24.628C34.2522 24.18 34.1722 23.876 34.0122 23.716C33.8522 23.556 33.6282 23.472 33.3402 23.464C33.2682 23.464 33.1962 23.464 33.1242 23.464C33.0522 23.464 32.9722 23.472 32.8842 23.488L31.7802 26.728C31.7322 26.872 31.7042 27.008 31.6962 27.136C31.6962 27.256 31.7122 27.36 31.7442 27.448C31.7842 27.552 31.8402 27.632 31.9122 27.688C31.9922 27.736 32.0962 27.76 32.2242 27.76ZM35.7033 28.168C35.5993 28.168 35.4833 28.112 35.3553 28C35.2273 27.888 35.1633 27.768 35.1633 27.64C35.1633 27.592 35.1713 27.544 35.1873 27.496L37.4673 21.004C37.5073 20.892 37.5353 20.784 37.5513 20.68C37.5753 20.576 37.5873 20.472 37.5873 20.368C37.5873 20.296 37.5473 20.228 37.4673 20.164C37.3953 20.1 37.3033 20.056 37.1913 20.032C37.1113 20.016 37.0473 19.996 36.9993 19.972C36.9513 19.94 36.9273 19.908 36.9273 19.876C36.9273 19.852 36.9273 19.832 36.9273 19.816C36.9353 19.8 36.9433 19.784 36.9513 19.768C36.9673 19.752 36.9833 19.744 36.9993 19.744C37.1513 19.704 37.3353 19.668 37.5513 19.636C37.7673 19.596 37.9673 19.564 38.1513 19.54C38.3433 19.508 38.4713 19.492 38.5353 19.492C38.5753 19.492 38.6073 19.508 38.6313 19.54C38.6633 19.564 38.6793 19.608 38.6793 19.672C38.6793 19.72 38.6713 19.776 38.6553 19.84C38.6393 19.896 38.6233 19.952 38.6073 20.008L36.1833 26.92C36.1593 26.984 36.1433 27.048 36.1353 27.112C36.1273 27.168 36.1233 27.22 36.1233 27.268C36.1233 27.396 36.1633 27.46 36.2433 27.46C36.3553 27.46 36.4913 27.4 36.6513 27.28C36.8193 27.152 36.9833 27 37.1433 26.824C37.3033 26.648 37.4313 26.492 37.5273 26.356C37.5753 26.292 37.6313 26.232 37.6953 26.176C37.7593 26.112 37.8073 26.08 37.8393 26.08C37.8713 26.08 37.8873 26.096 37.8873 26.128C37.8953 26.152 37.8993 26.188 37.8993 26.236C37.8993 26.396 37.8433 26.564 37.7313 26.74C37.6273 26.916 37.4873 27.092 37.3113 27.268C37.1353 27.436 36.9473 27.588 36.7473 27.724C36.5473 27.86 36.3553 27.968 36.1713 28.048C35.9873 28.128 35.8313 28.168 35.7033 28.168ZM39.2688 28.168C39.1808 28.168 39.0888 28.128 38.9928 28.048C38.9048 27.976 38.8368 27.888 38.7888 27.784C38.7408 27.68 38.7288 27.596 38.7528 27.532L40.0128 24.496C40.0688 24.36 40.1048 24.244 40.1208 24.148C40.1368 24.052 40.1128 24.004 40.0488 24.004C40.0088 24.004 39.9408 24.036 39.8448 24.1C39.7568 24.164 39.6528 24.244 39.5328 24.34C39.4208 24.436 39.3048 24.536 39.1848 24.64C39.1688 24.656 39.1368 24.66 39.0888 24.652C39.0488 24.644 39.0288 24.628 39.0288 24.604C39.0288 24.572 39.0368 24.528 39.0528 24.472C39.0688 24.408 39.1088 24.332 39.1728 24.244C39.3728 23.972 39.5928 23.744 39.8328 23.56C40.0808 23.376 40.3128 23.236 40.5288 23.14C40.7528 23.036 40.9208 22.984 41.0328 22.984C41.0728 22.984 41.1168 23.008 41.1648 23.056C41.2208 23.096 41.2648 23.148 41.2968 23.212C41.3288 23.268 41.3288 23.324 41.2968 23.38C41.0328 23.924 40.7808 24.476 40.5408 25.036C40.3008 25.596 40.0608 26.148 39.8208 26.692C39.7488 26.852 39.7048 27 39.6888 27.136C39.6728 27.272 39.7048 27.34 39.7848 27.34C39.8648 27.34 39.9848 27.272 40.1448 27.136C40.3048 27 40.4848 26.824 40.6848 26.608C40.8928 26.392 41.1088 26.16 41.3328 25.912C41.6368 25.568 41.9288 25.212 42.2088 24.844C42.4968 24.476 42.7448 24.144 42.9528 23.848C43.1608 23.552 43.2968 23.344 43.3608 23.224C43.4008 23.144 43.4488 23.092 43.5048 23.068C43.5608 23.044 43.6128 23.032 43.6608 23.032C43.7088 23.032 43.7568 23.056 43.8048 23.104C43.8528 23.152 43.8888 23.208 43.9128 23.272C43.9448 23.336 43.9488 23.392 43.9248 23.44L42.3888 26.968C42.3248 27.12 42.2968 27.236 42.3048 27.316C42.3128 27.396 42.3528 27.436 42.4248 27.436C42.5288 27.436 42.6648 27.38 42.8328 27.268C43.0008 27.156 43.1728 27.028 43.3488 26.884C43.5248 26.732 43.6728 26.596 43.7928 26.476C43.8008 26.468 43.8128 26.464 43.8288 26.464C43.8528 26.464 43.8768 26.476 43.9008 26.5C43.9248 26.516 43.9368 26.54 43.9368 26.572C43.9368 26.588 43.9328 26.604 43.9248 26.62C43.9168 26.636 43.9048 26.656 43.8888 26.68C43.8808 26.704 43.8648 26.732 43.8408 26.764C43.8248 26.796 43.8008 26.832 43.7688 26.872C43.7448 26.904 43.7128 26.944 43.6728 26.992C43.5208 27.184 43.3448 27.372 43.1448 27.556C42.9448 27.732 42.7288 27.88 42.4968 28C42.2728 28.112 42.0328 28.168 41.7768 28.168C41.6728 28.168 41.5768 28.1 41.4888 27.964C41.4088 27.828 41.3928 27.708 41.4408 27.604C41.5528 27.364 41.6728 27.108 41.8008 26.836C41.9288 26.564 42.0408 26.312 42.1368 26.08C42.2408 25.848 42.3128 25.676 42.3528 25.564C42.3928 25.468 42.3888 25.416 42.3408 25.408C42.2928 25.4 42.2488 25.42 42.2088 25.468C41.7928 25.924 41.4248 26.324 41.1048 26.668C40.7848 27.004 40.5048 27.284 40.2648 27.508C40.0328 27.724 39.8328 27.888 39.6648 28C39.5048 28.112 39.3728 28.168 39.2688 28.168ZM44.8823 28.168C44.7063 28.168 44.5543 28.116 44.4263 28.012C44.2983 27.916 44.2343 27.792 44.2343 27.64C44.2343 27.456 44.2783 27.32 44.3663 27.232C44.4463 27.136 44.5143 27.088 44.5703 27.088C44.6263 27.088 44.6823 27.112 44.7383 27.16C44.8023 27.2 44.8703 27.252 44.9423 27.316C45.0303 27.38 45.1263 27.444 45.2303 27.508C45.3423 27.564 45.4863 27.592 45.6623 27.592C45.8783 27.592 46.0503 27.516 46.1783 27.364C46.3063 27.204 46.3743 27.036 46.3823 26.86C46.3823 26.684 46.3503 26.496 46.2863 26.296C46.2303 26.088 46.1463 25.884 46.0343 25.684C45.9303 25.492 45.8423 25.312 45.7703 25.144C45.7063 24.968 45.6743 24.82 45.6743 24.7C45.6743 24.468 45.7343 24.252 45.8543 24.052C45.9823 23.844 46.1343 23.664 46.3103 23.512C46.4943 23.36 46.6743 23.244 46.8503 23.164C47.0263 23.076 47.1663 23.032 47.2703 23.032C47.3743 23.032 47.4783 23.064 47.5823 23.128C47.6863 23.184 47.7703 23.252 47.8343 23.332C47.9063 23.404 47.9423 23.468 47.9423 23.524C47.9423 23.572 47.9183 23.632 47.8703 23.704C47.8223 23.768 47.7663 23.828 47.7023 23.884C47.6383 23.94 47.5823 23.968 47.5343 23.968C47.4943 23.968 47.4543 23.948 47.4143 23.908C47.3743 23.868 47.3303 23.824 47.2823 23.776C47.2343 23.728 47.1743 23.684 47.1023 23.644C47.0383 23.604 46.9503 23.584 46.8383 23.584C46.7103 23.584 46.5983 23.64 46.5023 23.752C46.4063 23.856 46.3583 23.996 46.3583 24.172C46.3583 24.236 46.3783 24.336 46.4183 24.472C46.4663 24.608 46.5183 24.748 46.5743 24.892C46.6383 25.036 46.6983 25.164 46.7543 25.276C46.8423 25.436 46.9223 25.64 46.9943 25.888C47.0743 26.128 47.1143 26.34 47.1143 26.524C47.1143 26.764 47.0423 26.984 46.8983 27.184C46.7623 27.384 46.5823 27.56 46.3583 27.712C46.1343 27.856 45.8903 27.968 45.6263 28.048C45.3703 28.128 45.1223 28.168 44.8823 28.168Z" fill="#B0B0B0"/>
<path d="M96.3678 36.7984L93.5772 33.2702C93.5772 33.2702 93.052 32.5642 93.8629 32.6089L95.833 32.8445L97.4457 31.8647C97.4457 31.8647 98.2224 31.4479 98.0517 32.2446L96.8948 36.5979C96.8947 36.5972 96.7345 37.1851 96.3678 36.7984Z" fill="#B0B0B0"/>
<path d="M78.6822 13.0797C82.7952 12.2254 86.2527 12.7619 88.9965 14.688C96.1742 19.7256 95.986 32.7166 95.9835 32.8472C95.9815 32.9307 95.9124 32.9965 95.8291 32.9953C95.7456 32.9937 95.6794 32.9243 95.681 32.8409C95.6838 32.7119 95.8683 19.8792 88.8223 14.9348C85.2887 12.4552 80.5195 12.345 74.6462 14.608C74.5655 14.6371 74.4806 14.5992 74.4509 14.5214C74.4207 14.4434 74.4598 14.3562 74.5375 14.3261C75.9848 13.7683 77.3671 13.3529 78.6822 13.0797Z" fill="#B0B0B0"/>
</svg>
