<svg width="63" height="23" viewBox="0 0 63 23" fill="none" xmlns="http://www.w3.org/2000/svg">
<path fill-rule="evenodd" clip-rule="evenodd" d="M60.4232 8.39238C61.3228 8.36541 62.0434 9.04412 62.0704 9.94371C62.0974 10.8433 61.4187 11.564 60.5191 11.5909C37.5234 12.0803 37.5994 11.2777 14.6307 12.6666C13.7311 12.6936 13.0134 12.1148 12.9865 11.2152C12.9595 10.3156 13.5382 9.59795 14.4378 9.57098C37.5035 8.07909 37.4275 8.88173 60.4262 8.49233L60.4232 8.39238Z" fill="#B0B0B0"/>
<path fill-rule="evenodd" clip-rule="evenodd" d="M17.0997 1.58781C17.7844 1.06705 18.793 1.33695 19.2138 2.02465C19.7345 2.70935 19.4646 3.71789 18.7769 4.13869C12.3997 8.33168 11.3242 9.16429 6.48933 11.4102C13.6491 13.2965 15.1574 13.5514 23.4216 18.9061C24.1362 19.3849 24.3661 20.3785 23.8873 21.0932C23.4085 21.8078 22.415 22.0377 21.7003 21.5589C12.4156 15.5344 12.0397 16.3461 1.44557 13.3622C0.839841 13.1803 0.322086 12.5955 0.304106 11.9958C0.283128 11.2961 0.664968 10.6844 1.25871 10.4665C9.55005 6.71636 9.44709 6.6194 16.9998 1.5908L17.0997 1.58781Z" fill="#B0B0B0"/>
</svg>
