<svg width="256" height="862" viewBox="0 0 256 862" fill="none" xmlns="http://www.w3.org/2000/svg">
<path d="M129.946 861.01C130.337 861.401 130.97 861.401 131.36 861.01L137.724 854.646C138.115 854.256 138.115 853.623 137.724 853.232C137.334 852.842 136.701 852.842 136.31 853.232L130.653 858.889L124.996 853.232C124.606 852.842 123.973 852.842 123.582 853.232C123.192 853.623 123.192 854.256 123.582 854.646L129.946 861.01ZM129.653 0.303223L129.653 860.303H131.653L131.653 0.303223L129.653 0.303223Z" fill="#E41A07"/>
<path fill-rule="evenodd" clip-rule="evenodd" d="M151 97C153.761 97 156 94.7614 156 92C156 89.2386 153.761 87 151 87C148.581 87 146.563 88.7178 146.1 91H131V93H146.1C146.563 95.2822 148.581 97 151 97Z" fill="#E41A07"/>
<path fill-rule="evenodd" clip-rule="evenodd" d="M151 692C153.761 692 156 689.761 156 687C156 684.239 153.761 682 151 682C148.581 682 146.563 683.718 146.1 686H131V688H146.1C146.563 690.282 148.581 692 151 692Z" fill="#E41A07"/>
<path fill-rule="evenodd" clip-rule="evenodd" d="M111 393C108.239 393 106 395.239 106 398C106 400.761 108.239 403 111 403C113.419 403 115.437 401.282 115.9 399H131V397H115.9C115.437 394.718 113.419 393 111 393Z" fill="#E41A07"/>
<path d="M0.56 94.28C0.496 94.28 0.464 94.248 0.464 94.184C0.464 94.0027 0.485333 93.816 0.528 93.624C0.581333 93.432 0.645333 93.3307 0.72 93.32C1.232 93.2453 1.744 93.176 2.256 93.112C2.768 93.0373 3.28 92.9733 3.792 92.92C3.824 92.92 3.85067 92.9307 3.872 92.952C3.904 92.9627 3.92 92.984 3.92 93.016C3.92 93.2187 3.89333 93.4107 3.84 93.592C3.79733 93.7627 3.712 93.8587 3.584 93.88C3.104 93.9547 2.61333 94.0293 2.112 94.104C1.62133 94.168 1.104 94.2267 0.56 94.28ZM6.42263 97.512C6.30529 97.512 6.21996 97.4693 6.16663 97.384C6.11329 97.3093 6.08663 97.2133 6.08663 97.096C6.08663 97.064 6.12396 96.9787 6.19863 96.84C6.27329 96.7013 6.34796 96.568 6.42263 96.44L10.9506 88.344C10.972 88.312 10.9773 88.28 10.9666 88.248C10.9666 88.216 10.908 88.1947 10.7906 88.184H6.69463C6.43863 88.184 6.21463 88.232 6.02263 88.328C5.83063 88.424 5.64396 88.6213 5.46263 88.92C5.44129 88.952 5.40929 89 5.36663 89.064C5.33463 89.128 5.29196 89.1867 5.23863 89.24C5.18529 89.2933 5.13196 89.32 5.07863 89.32C5.03596 89.32 5.00396 89.2933 4.98263 89.24C4.97196 89.1867 4.96663 89.1387 4.96663 89.096C4.96663 89.0427 4.97196 88.984 4.98263 88.92C5.00396 88.8453 5.01996 88.7867 5.03063 88.744C5.08396 88.5093 5.13196 88.2373 5.17463 87.928C5.22796 87.6187 5.26529 87.3627 5.28663 87.16C5.29729 87.0853 5.31863 87.0373 5.35063 87.016C5.39329 86.9947 5.42529 86.984 5.44662 86.984C5.46796 86.984 5.61196 87.0107 5.87863 87.064C6.15596 87.1067 6.45996 87.128 6.79063 87.128C6.95063 87.128 7.09996 87.128 7.23863 87.128C7.38796 87.128 7.55329 87.1333 7.73463 87.144C7.91596 87.144 8.12929 87.144 8.37463 87.144C8.89729 87.144 9.41996 87.144 9.94263 87.144C10.476 87.1333 10.9346 87.1227 11.3186 87.112C11.7133 87.0907 11.9586 87.0747 12.0546 87.064C12.076 87.064 12.0973 87.0907 12.1186 87.144C12.14 87.1867 12.1506 87.2293 12.1506 87.272C12.1506 87.3573 12.108 87.4747 12.0226 87.624C11.948 87.7627 11.8626 87.9013 11.7666 88.04C11.6706 88.1787 11.596 88.296 11.5426 88.392L6.72663 97.08C6.68396 97.1653 6.63063 97.256 6.56663 97.352C6.50263 97.4587 6.45463 97.512 6.42263 97.512ZM15.9981 97.224C15.4541 97.224 14.9795 97.0747 14.5741 96.776C14.1795 96.4773 13.8488 96.0827 13.5821 95.592C13.3155 95.0907 13.1181 94.5413 12.9901 93.944C12.8621 93.3467 12.7981 92.7547 12.7981 92.168C12.7981 91.56 12.8621 90.9467 12.9901 90.328C13.1181 89.7093 13.3155 89.144 13.5821 88.632C13.8595 88.12 14.2115 87.7093 14.6381 87.4C15.0648 87.08 15.5715 86.92 16.1581 86.92C16.7021 86.92 17.1715 87.0693 17.5661 87.368C17.9715 87.6667 18.3075 88.0667 18.5741 88.568C18.8408 89.0587 19.0381 89.6027 19.1661 90.2C19.2941 90.7867 19.3581 91.368 19.3581 91.944C19.3581 92.5413 19.2941 93.1493 19.1661 93.768C19.0381 94.3867 18.8355 94.9573 18.5581 95.48C18.2915 96.0027 17.9448 96.424 17.5181 96.744C17.1021 97.064 16.5955 97.224 15.9981 97.224ZM16.2701 96.808C16.6968 96.808 17.0381 96.5947 17.2941 96.168C17.5608 95.7307 17.7528 95.1653 17.8701 94.472C17.9875 93.7787 18.0461 93.032 18.0461 92.232C18.0461 91.6347 17.9981 91.048 17.9021 90.472C17.8168 89.896 17.6781 89.3733 17.4861 88.904C17.3048 88.4347 17.0755 88.0613 16.7981 87.784C16.5315 87.5067 16.2168 87.368 15.8541 87.368C15.4275 87.368 15.0861 87.576 14.8301 87.992C14.5848 88.408 14.4035 88.9627 14.2861 89.656C14.1795 90.3387 14.1261 91.08 14.1261 91.88C14.1261 92.4773 14.1688 93.0693 14.2541 93.656C14.3501 94.2427 14.4835 94.776 14.6541 95.256C14.8355 95.7253 15.0595 96.104 15.3261 96.392C15.5928 96.6693 15.9075 96.808 16.2701 96.808ZM26.8888 97.224C26.3448 97.224 25.8701 97.0747 25.4648 96.776C25.0701 96.4773 24.7394 96.0827 24.4728 95.592C24.2061 95.0907 24.0088 94.5413 23.8808 93.944C23.7528 93.3467 23.6888 92.7547 23.6888 92.168C23.6888 91.56 23.7528 90.9467 23.8808 90.328C24.0088 89.7093 24.2061 89.144 24.4728 88.632C24.7501 88.12 25.1021 87.7093 25.5288 87.4C25.9554 87.08 26.4621 86.92 27.0488 86.92C27.5928 86.92 28.0621 87.0693 28.4568 87.368C28.8621 87.6667 29.1981 88.0667 29.4648 88.568C29.7314 89.0587 29.9288 89.6027 30.0568 90.2C30.1848 90.7867 30.2488 91.368 30.2488 91.944C30.2488 92.5413 30.1848 93.1493 30.0568 93.768C29.9288 94.3867 29.7261 94.9573 29.4488 95.48C29.1821 96.0027 28.8354 96.424 28.4088 96.744C27.9928 97.064 27.4861 97.224 26.8888 97.224ZM27.1608 96.808C27.5874 96.808 27.9288 96.5947 28.1848 96.168C28.4514 95.7307 28.6434 95.1653 28.7608 94.472C28.8781 93.7787 28.9368 93.032 28.9368 92.232C28.9368 91.6347 28.8888 91.048 28.7928 90.472C28.7074 89.896 28.5688 89.3733 28.3768 88.904C28.1954 88.4347 27.9661 88.0613 27.6888 87.784C27.4221 87.5067 27.1074 87.368 26.7448 87.368C26.3181 87.368 25.9768 87.576 25.7208 87.992C25.4754 88.408 25.2941 88.9627 25.1768 89.656C25.0701 90.3387 25.0168 91.08 25.0168 91.88C25.0168 92.4773 25.0594 93.0693 25.1448 93.656C25.2408 94.2427 25.3741 94.776 25.5448 95.256C25.7261 95.7253 25.9501 96.104 26.2168 96.392C26.4834 96.6693 26.7981 96.808 27.1608 96.808ZM34.5763 97.224C34.0323 97.224 33.5576 97.0747 33.1523 96.776C32.7576 96.4773 32.4269 96.0827 32.1603 95.592C31.8936 95.0907 31.6963 94.5413 31.5683 93.944C31.4403 93.3467 31.3763 92.7547 31.3763 92.168C31.3763 91.56 31.4403 90.9467 31.5683 90.328C31.6963 89.7093 31.8936 89.144 32.1603 88.632C32.4376 88.12 32.7896 87.7093 33.2163 87.4C33.6429 87.08 34.1496 86.92 34.7363 86.92C35.2803 86.92 35.7496 87.0693 36.1443 87.368C36.5496 87.6667 36.8856 88.0667 37.1523 88.568C37.4189 89.0587 37.6163 89.6027 37.7443 90.2C37.8723 90.7867 37.9363 91.368 37.9363 91.944C37.9363 92.5413 37.8723 93.1493 37.7443 93.768C37.6163 94.3867 37.4136 94.9573 37.1363 95.48C36.8696 96.0027 36.5229 96.424 36.0963 96.744C35.6803 97.064 35.1736 97.224 34.5763 97.224ZM34.8483 96.808C35.2749 96.808 35.6163 96.5947 35.8723 96.168C36.1389 95.7307 36.3309 95.1653 36.4483 94.472C36.5656 93.7787 36.6243 93.032 36.6243 92.232C36.6243 91.6347 36.5763 91.048 36.4803 90.472C36.3949 89.896 36.2563 89.3733 36.0643 88.904C35.8829 88.4347 35.6536 88.0613 35.3763 87.784C35.1096 87.5067 34.7949 87.368 34.4323 87.368C34.0056 87.368 33.6643 87.576 33.4083 87.992C33.1629 88.408 32.9816 88.9627 32.8643 89.656C32.7576 90.3387 32.7043 91.08 32.7043 91.88C32.7043 92.4773 32.7469 93.0693 32.8323 93.656C32.9283 94.2427 33.0616 94.776 33.2323 95.256C33.4136 95.7253 33.6376 96.104 33.9043 96.392C34.1709 96.6693 34.4856 96.808 34.8483 96.808ZM42.2638 97.224C41.7198 97.224 41.2451 97.0747 40.8398 96.776C40.4451 96.4773 40.1144 96.0827 39.8478 95.592C39.5811 95.0907 39.3838 94.5413 39.2558 93.944C39.1278 93.3467 39.0638 92.7547 39.0638 92.168C39.0638 91.56 39.1278 90.9467 39.2558 90.328C39.3838 89.7093 39.5811 89.144 39.8478 88.632C40.1251 88.12 40.4771 87.7093 40.9038 87.4C41.3304 87.08 41.8371 86.92 42.4238 86.92C42.9678 86.92 43.4371 87.0693 43.8318 87.368C44.2371 87.6667 44.5731 88.0667 44.8398 88.568C45.1064 89.0587 45.3038 89.6027 45.4318 90.2C45.5598 90.7867 45.6238 91.368 45.6238 91.944C45.6238 92.5413 45.5598 93.1493 45.4318 93.768C45.3038 94.3867 45.1011 94.9573 44.8238 95.48C44.5571 96.0027 44.2104 96.424 43.7838 96.744C43.3678 97.064 42.8611 97.224 42.2638 97.224ZM42.5358 96.808C42.9624 96.808 43.3038 96.5947 43.5598 96.168C43.8264 95.7307 44.0184 95.1653 44.1358 94.472C44.2531 93.7787 44.3118 93.032 44.3118 92.232C44.3118 91.6347 44.2638 91.048 44.1678 90.472C44.0824 89.896 43.9438 89.3733 43.7518 88.904C43.5704 88.4347 43.3411 88.0613 43.0638 87.784C42.7971 87.5067 42.4824 87.368 42.1198 87.368C41.6931 87.368 41.3518 87.576 41.0958 87.992C40.8504 88.408 40.6691 88.9627 40.5518 89.656C40.4451 90.3387 40.3918 91.08 40.3918 91.88C40.3918 92.4773 40.4344 93.0693 40.5198 93.656C40.6158 94.2427 40.7491 94.776 40.9198 95.256C41.1011 95.7253 41.3251 96.104 41.5918 96.392C41.8584 96.6693 42.1731 96.808 42.5358 96.808ZM49.6664 97.08C49.5277 97.08 49.4157 97.0587 49.3304 97.016C49.245 96.984 49.2024 96.936 49.2024 96.872C49.2024 96.7973 49.245 96.7333 49.3304 96.68C49.4264 96.616 49.5597 96.5573 49.7304 96.504C50.0077 96.4187 50.2637 96.2907 50.4984 96.12C50.733 95.9493 50.9357 95.6667 51.1064 95.272C51.405 94.5893 51.677 93.9493 51.9224 93.352C52.1784 92.7547 52.4184 92.168 52.6424 91.592C52.8664 91.016 53.0957 90.4187 53.3304 89.8C53.5757 89.1707 53.8317 88.488 54.0984 87.752C54.1517 87.6027 54.1997 87.4533 54.2424 87.304C54.285 87.1547 54.3117 86.9947 54.3224 86.824C54.4184 86.792 54.5144 86.76 54.6104 86.728C54.7064 86.696 54.8024 86.648 54.8984 86.584C54.9944 86.52 55.0584 86.424 55.0904 86.296C55.133 86.168 55.1704 86.0827 55.2024 86.04C55.213 86.0293 55.2237 86.024 55.2344 86.024C55.2557 86.024 55.2717 86.0347 55.2824 86.056C55.3037 86.0987 55.3197 86.152 55.3304 86.216C55.3517 86.28 55.373 86.344 55.3944 86.408C55.6504 87.2187 55.917 88.0453 56.1944 88.888C56.4717 89.7307 56.7384 90.5467 56.9944 91.336C57.261 92.1147 57.501 92.8187 57.7144 93.448C57.9384 94.0667 58.1144 94.568 58.2424 94.952C58.3917 95.3787 58.5517 95.6987 58.7224 95.912C58.893 96.1253 59.069 96.2747 59.2504 96.36C59.4424 96.4453 59.645 96.5093 59.8584 96.552C60.0397 96.584 60.173 96.6373 60.2584 96.712C60.3437 96.776 60.3864 96.8453 60.3864 96.92C60.3864 96.984 60.3437 97.0267 60.2584 97.048C60.173 97.0693 60.061 97.08 59.9224 97.08C59.773 97.08 59.5704 97.0693 59.3144 97.048C59.0584 97.0373 58.7864 97.0213 58.4984 97C58.2104 96.9893 57.9437 96.984 57.6984 96.984C57.4957 96.984 57.2877 96.984 57.0744 96.984C56.861 96.984 56.6637 96.9893 56.4824 97C56.301 97 56.1464 97 56.0184 97C55.8797 97 55.7677 96.984 55.6824 96.952C55.597 96.92 55.5544 96.872 55.5544 96.808C55.5544 96.7333 55.6077 96.6693 55.7144 96.616C55.821 96.5627 55.9437 96.5253 56.0824 96.504C56.4344 96.4507 56.685 96.36 56.8344 96.232C56.9837 96.104 57.0584 95.9547 57.0584 95.784C57.0584 95.624 57.021 95.3947 56.9464 95.096C56.8824 94.7867 56.8024 94.4613 56.7064 94.12C56.6104 93.768 56.5197 93.4587 56.4344 93.192C56.413 93.1067 56.3704 93.0587 56.3064 93.048C56.253 93.0267 56.1517 93.016 56.0024 93.016H52.9784C52.9357 93.016 52.8877 93.0373 52.8344 93.08C52.7917 93.112 52.749 93.1867 52.7064 93.304C52.6744 93.4107 52.621 93.5813 52.5464 93.816C52.4717 94.04 52.397 94.28 52.3224 94.536C52.2477 94.792 52.1837 95.0213 52.1304 95.224C52.077 95.4267 52.0504 95.5547 52.0504 95.608C52.0504 95.8427 52.141 96.04 52.3224 96.2C52.5037 96.3493 52.7224 96.456 52.9784 96.52C53.3304 96.616 53.5064 96.7227 53.5064 96.84C53.5064 96.904 53.4637 96.952 53.3784 96.984C53.293 97.0053 53.181 97.016 53.0424 97.016C52.9037 97.016 52.701 97.0107 52.4344 97C52.1677 96.9893 51.885 96.984 51.5864 96.984C51.2344 96.984 50.893 97 50.5624 97.032C50.2317 97.064 49.933 97.08 49.6664 97.08ZM53.4104 92.488H55.8904C56.0397 92.488 56.1144 92.4613 56.1144 92.408C56.1144 92.3867 56.109 92.3653 56.0984 92.344C56.0984 92.312 56.093 92.28 56.0824 92.248L54.8344 88.344C54.7704 88.152 54.7224 88.056 54.6904 88.056C54.669 88.056 54.6264 88.1467 54.5624 88.328L53.1064 92.248C53.085 92.312 53.0744 92.3547 53.0744 92.376C53.0744 92.4293 53.101 92.4613 53.1544 92.472C53.2184 92.4827 53.3037 92.488 53.4104 92.488ZM62.6115 97.336C62.5688 97.336 62.5155 97.2507 62.4515 97.08C62.3875 96.92 62.3448 96.8027 62.3235 96.728C62.2488 96.5467 62.1795 96.36 62.1155 96.168C62.0515 95.9653 61.9875 95.7787 61.9235 95.608C61.6888 94.9467 61.4328 94.3013 61.1555 93.672C60.8888 93.032 60.6275 92.3867 60.3715 91.736C60.2968 91.544 60.1795 91.3733 60.0195 91.224C59.8702 91.064 59.7155 90.9627 59.5555 90.92C59.4702 90.888 59.4008 90.856 59.3475 90.824C59.2942 90.792 59.2675 90.7387 59.2675 90.664C59.2675 90.6 59.3048 90.5627 59.3795 90.552C59.4648 90.5307 59.5342 90.52 59.5875 90.52C59.8008 90.52 59.9555 90.5253 60.0515 90.536C60.1475 90.5467 60.2435 90.5627 60.3395 90.584C60.4355 90.5947 60.5742 90.6 60.7555 90.6C60.9475 90.6 61.0915 90.5947 61.1875 90.584C61.2835 90.5627 61.3848 90.5467 61.4915 90.536C61.5982 90.5253 61.7528 90.52 61.9555 90.52C62.0088 90.52 62.0728 90.5307 62.1475 90.552C62.2328 90.5627 62.2755 90.6 62.2755 90.664C62.2755 90.7387 62.2382 90.7973 62.1635 90.84C62.0888 90.8827 62.0035 90.92 61.9075 90.952C61.8008 90.9947 61.7208 91.08 61.6675 91.208C61.6142 91.3253 61.5875 91.4587 61.5875 91.608C61.5875 91.6827 61.5928 91.7573 61.6035 91.832C61.6142 91.9067 61.6302 91.976 61.6515 92.04L62.9155 95.4C62.9262 95.4107 62.9315 95.416 62.9315 95.416C62.9422 95.416 62.9528 95.4107 62.9635 95.4L64.1795 92.28C64.2222 92.1733 64.2542 92.0613 64.2755 91.944C64.2968 91.816 64.3075 91.7093 64.3075 91.624C64.3075 91.4107 64.2755 91.2613 64.2115 91.176C64.1475 91.08 64.0408 91.0053 63.8915 90.952C63.7528 90.8987 63.6568 90.856 63.6035 90.824C63.5502 90.792 63.5235 90.7387 63.5235 90.664C63.5235 90.6 63.5555 90.5627 63.6195 90.552C63.6942 90.5307 63.7688 90.52 63.8435 90.52C63.9608 90.52 64.1155 90.536 64.3075 90.568C64.4995 90.5893 64.7342 90.6 65.0115 90.6C65.2888 90.6 65.4755 90.5893 65.5715 90.568C65.6782 90.536 65.8062 90.52 65.9555 90.52C66.0408 90.52 66.1155 90.5307 66.1795 90.552C66.2435 90.5627 66.2755 90.6 66.2755 90.664C66.2755 90.7813 66.1528 90.8773 65.9075 90.952C65.7475 90.9947 65.5715 91.1173 65.3795 91.32C65.1875 91.5227 65.0328 91.7573 64.9155 92.024L63.6675 95.032C63.6462 95.0747 63.6035 95.1813 63.5395 95.352C63.4755 95.512 63.4062 95.6933 63.3315 95.896C63.2568 96.088 63.1928 96.2587 63.1395 96.408C63.0862 96.5467 63.0595 96.616 63.0595 96.616C63.0595 96.616 63.0382 96.6693 62.9955 96.776C62.9528 96.872 62.9048 96.9733 62.8515 97.08C62.7982 97.1973 62.7502 97.2827 62.7075 97.336H62.6115ZM66.9181 97.224C66.6835 97.224 66.4755 97.1387 66.2941 96.968C66.1235 96.7867 66.0381 96.5787 66.0381 96.344C66.0381 96.0987 66.1235 95.8907 66.2941 95.72C66.4755 95.5493 66.6835 95.464 66.9181 95.464C67.1635 95.464 67.3715 95.5493 67.5421 95.72C67.7128 95.8907 67.7981 96.0987 67.7981 96.344C67.7981 96.5787 67.7128 96.7867 67.5421 96.968C67.3715 97.1387 67.1635 97.224 66.9181 97.224ZM72.5128 100.2C71.4141 100.2 70.8647 99.9387 70.8647 99.416C70.8647 99.2347 70.9394 99.064 71.0887 98.904C71.2381 98.744 71.3714 98.664 71.4887 98.664C71.6274 98.664 71.7607 98.6907 71.8887 98.744C72.0168 98.808 72.1341 98.9147 72.2408 99.064C72.3794 99.2347 72.5021 99.3573 72.6088 99.432C72.7261 99.5067 72.8541 99.544 72.9928 99.544C73.3661 99.544 73.6328 99.3147 73.7928 98.856C73.9634 98.408 74.0488 97.7947 74.0488 97.016V88.184C74.0488 87.8107 73.9688 87.5493 73.8088 87.4C73.6488 87.24 73.3768 87.1227 72.9928 87.048C72.6408 86.984 72.4648 86.8773 72.4648 86.728C72.4648 86.664 72.5074 86.6213 72.5928 86.6C72.6781 86.568 72.7901 86.552 72.9288 86.552C73.2168 86.552 73.4514 86.5573 73.6328 86.568C73.8248 86.5787 74.0061 86.5893 74.1768 86.6C74.3474 86.6 74.5554 86.6 74.8008 86.6C75.0034 86.6 75.1581 86.6 75.2648 86.6C75.3821 86.5893 75.5101 86.5787 75.6488 86.568C75.7981 86.5573 76.0168 86.552 76.3048 86.552C76.4434 86.552 76.5554 86.568 76.6408 86.6C76.7261 86.6213 76.7688 86.664 76.7688 86.728C76.7688 86.8027 76.7261 86.8667 76.6408 86.92C76.5554 86.9733 76.4221 87.016 76.2408 87.048C75.8461 87.1227 75.5954 87.24 75.4888 87.4C75.3821 87.5493 75.3288 87.8107 75.3288 88.184V96.248C75.3288 96.696 75.2594 97.1173 75.1208 97.512C74.9821 97.9067 74.8114 98.2587 74.6088 98.568C74.4168 98.8773 74.2354 99.1333 74.0648 99.336C73.8514 99.592 73.6168 99.8 73.3608 99.96C73.1048 100.12 72.8221 100.2 72.5128 100.2ZM77.9663 94.28C77.9023 94.28 77.8703 94.248 77.8703 94.184C77.8703 94.0027 77.8916 93.816 77.9342 93.624C77.9876 93.432 78.0516 93.3307 78.1263 93.32C78.6383 93.2453 79.1503 93.176 79.6623 93.112C80.1743 93.0373 80.6863 92.9733 81.1983 92.92C81.2303 92.92 81.2569 92.9307 81.2783 92.952C81.3103 92.9627 81.3263 92.984 81.3263 93.016C81.3263 93.2187 81.2996 93.4107 81.2463 93.592C81.2036 93.7627 81.1183 93.8587 80.9903 93.88C80.5103 93.9547 80.0196 94.0293 79.5182 94.104C79.0276 94.168 78.5103 94.2267 77.9663 94.28ZM88.3089 97.24C87.5622 97.24 86.8422 97.112 86.1489 96.856C85.4555 96.6 84.8369 96.2373 84.2929 95.768C83.7489 95.288 83.3169 94.7173 82.9969 94.056C82.6875 93.384 82.5329 92.6427 82.5329 91.832C82.5329 91.0533 82.6982 90.3333 83.0289 89.672C83.3595 89.0107 83.8129 88.4347 84.3889 87.944C84.9649 87.4533 85.6209 87.0747 86.3569 86.808C87.1035 86.5307 87.8875 86.392 88.7089 86.392C89.1249 86.392 89.4769 86.408 89.7649 86.44C90.0529 86.472 90.3302 86.52 90.5969 86.584C90.8742 86.6373 91.1942 86.712 91.5569 86.808C91.7169 86.8507 91.8289 86.9147 91.8929 87C91.9675 87.0853 92.0102 87.2027 92.0209 87.352C92.0422 87.5973 92.0689 87.864 92.1009 88.152C92.1329 88.4293 92.1542 88.776 92.1649 89.192C92.1755 89.2667 92.1382 89.3307 92.0529 89.384C91.9782 89.4267 91.8929 89.4373 91.7969 89.416C91.7115 89.3947 91.6529 89.3253 91.6209 89.208C91.5142 88.8027 91.3915 88.456 91.2529 88.168C91.1142 87.8693 90.9062 87.624 90.6289 87.432C90.3622 87.2507 90.0369 87.1173 89.6529 87.032C89.2795 86.936 88.8742 86.888 88.4369 86.888C87.8182 86.888 87.2422 87.016 86.7089 87.272C86.1862 87.5173 85.7329 87.8587 85.3489 88.296C84.9755 88.7227 84.6822 89.208 84.4689 89.752C84.2555 90.296 84.1489 90.8613 84.1489 91.448C84.1489 92.0987 84.2502 92.7387 84.4529 93.368C84.6662 93.9973 84.9649 94.568 85.3489 95.08C85.7435 95.5813 86.2075 95.9867 86.7409 96.296C87.2849 96.5947 87.8875 96.744 88.5489 96.744C89.3169 96.744 89.9515 96.568 90.4529 96.216C90.9542 95.864 91.3809 95.3733 91.7329 94.744C91.8075 94.6053 91.9142 94.536 92.0529 94.536C92.2022 94.536 92.2769 94.6213 92.2769 94.792C92.2769 94.8773 92.2555 95.016 92.2129 95.208C92.1702 95.3893 92.1115 95.5867 92.0369 95.8C91.9729 96.0027 91.9089 96.184 91.8449 96.344C91.7702 96.4933 91.7062 96.5893 91.6529 96.632C91.6102 96.6747 91.5035 96.7227 91.3329 96.776C90.9382 96.936 90.4635 97.0533 89.9089 97.128C89.3649 97.2027 88.8315 97.24 88.3089 97.24ZM104.955 92.84C104.677 92.84 104.416 92.7867 104.171 92.68C103.925 92.5733 103.685 92.4613 103.451 92.344C103.237 92.2267 103.019 92.12 102.795 92.024C102.581 91.928 102.357 91.88 102.123 91.88C101.856 91.88 101.616 91.9547 101.403 92.104C101.2 92.2427 101.035 92.3867 100.907 92.536C100.779 92.6853 100.699 92.76 100.667 92.76C100.603 92.76 100.533 92.7387 100.459 92.696C100.395 92.6427 100.363 92.5893 100.363 92.536C100.363 92.4293 100.411 92.2853 100.507 92.104C100.603 91.9227 100.736 91.7413 100.907 91.56C101.088 91.3787 101.296 91.224 101.531 91.096C101.765 90.968 102.021 90.904 102.299 90.904C102.576 90.904 102.827 90.9573 103.051 91.064C103.285 91.1707 103.504 91.2827 103.707 91.4C103.92 91.528 104.128 91.6453 104.331 91.752C104.533 91.848 104.741 91.896 104.955 91.896C105.136 91.896 105.312 91.848 105.483 91.752C105.653 91.6453 105.803 91.528 105.931 91.4C106.069 91.2613 106.181 91.144 106.267 91.048C106.363 90.9413 106.421 90.888 106.443 90.888C106.485 90.888 106.549 90.9147 106.635 90.968C106.72 91.0213 106.763 91.1013 106.763 91.208C106.763 91.368 106.704 91.544 106.587 91.736C106.48 91.928 106.336 92.1093 106.155 92.28C105.973 92.44 105.776 92.5733 105.563 92.68C105.349 92.7867 105.147 92.84 104.955 92.84Z" fill="black"/>
<path d="M148.56 400.28C148.496 400.28 148.464 400.248 148.464 400.184C148.464 400.003 148.485 399.816 148.528 399.624C148.581 399.432 148.645 399.331 148.72 399.32C149.232 399.245 149.744 399.176 150.256 399.112C150.768 399.037 151.28 398.973 151.792 398.92C151.824 398.92 151.851 398.931 151.872 398.952C151.904 398.963 151.92 398.984 151.92 399.016C151.92 399.219 151.893 399.411 151.84 399.592C151.797 399.763 151.712 399.859 151.584 399.88C151.104 399.955 150.613 400.029 150.112 400.104C149.621 400.168 149.104 400.227 148.56 400.28ZM154.103 403.048C154.028 403.048 153.969 403.027 153.927 402.984C153.884 402.941 153.863 402.899 153.863 402.856C153.863 402.76 153.943 402.691 154.103 402.648C154.508 402.541 154.839 402.445 155.095 402.36C155.361 402.264 155.553 402.136 155.671 401.976C155.799 401.805 155.863 401.565 155.863 401.256V395.144C155.863 394.941 155.799 394.787 155.671 394.68C155.543 394.573 155.377 394.499 155.175 394.456C154.972 394.413 154.753 394.387 154.519 394.376C154.412 394.365 154.316 394.339 154.231 394.296C154.145 394.253 154.103 394.189 154.103 394.104C154.103 394.029 154.14 393.965 154.215 393.912C154.3 393.859 154.396 393.827 154.503 393.816C154.983 393.741 155.409 393.651 155.783 393.544C156.167 393.427 156.54 393.187 156.903 392.824C156.913 392.813 156.924 392.808 156.935 392.808C156.956 392.808 156.972 392.808 156.983 392.808C157.036 392.808 157.084 392.824 157.127 392.856C157.169 392.877 157.185 392.909 157.175 392.952C157.153 393.112 157.137 393.288 157.127 393.48C157.116 393.661 157.111 393.864 157.111 394.088V401.448C157.111 401.715 157.159 401.917 157.255 402.056C157.361 402.195 157.537 402.307 157.783 402.392C158.028 402.467 158.369 402.557 158.807 402.664C158.871 402.675 158.929 402.701 158.983 402.744C159.047 402.776 159.079 402.819 159.079 402.872C159.079 402.989 159.004 403.048 158.855 403.048C158.556 403.048 158.279 403.037 158.023 403.016C157.777 403.005 157.532 402.995 157.287 402.984C157.052 402.973 156.791 402.968 156.503 402.968C156.215 402.968 155.943 402.973 155.687 402.984C155.431 402.995 155.175 403.005 154.919 403.016C154.663 403.037 154.391 403.048 154.103 403.048ZM166.782 403.048C166.707 403.048 166.59 403.043 166.43 403.032C166.27 403.021 166.089 403.011 165.886 403C165.683 402.989 165.47 402.979 165.246 402.968C165.033 402.957 164.825 402.952 164.622 402.952C164.419 402.952 164.131 402.957 163.758 402.968C163.385 402.979 162.99 402.989 162.574 403C162.169 403 161.811 403.005 161.502 403.016C161.193 403.027 160.995 403.032 160.91 403.032C160.867 403.032 160.803 403 160.718 402.936C160.633 402.861 160.59 402.803 160.59 402.76C160.59 402.707 160.601 402.669 160.622 402.648C160.643 402.627 160.675 402.595 160.718 402.552L163.454 399.72C163.987 399.165 164.43 398.547 164.782 397.864C165.134 397.171 165.31 396.472 165.31 395.768C165.31 395.203 165.139 394.76 164.798 394.44C164.457 394.109 164.057 393.944 163.598 393.944C163.161 393.944 162.755 394.067 162.382 394.312C162.009 394.547 161.71 394.856 161.486 395.24C161.454 395.304 161.411 395.357 161.358 395.4C161.315 395.443 161.267 395.464 161.214 395.464C161.171 395.464 161.118 395.421 161.054 395.336C161.001 395.24 160.974 395.123 160.974 394.984C160.974 394.856 161.049 394.68 161.198 394.456C161.358 394.232 161.577 394.003 161.854 393.768C162.131 393.533 162.462 393.336 162.846 393.176C163.23 393.005 163.646 392.92 164.094 392.92C164.627 392.92 165.086 393.032 165.47 393.256C165.854 393.48 166.147 393.789 166.35 394.184C166.553 394.579 166.654 395.037 166.654 395.56C166.654 395.848 166.601 396.157 166.494 396.488C166.398 396.819 166.259 397.144 166.078 397.464C165.907 397.784 165.71 398.083 165.486 398.36C165.347 398.531 165.139 398.76 164.862 399.048C164.595 399.325 164.302 399.624 163.982 399.944C163.673 400.264 163.374 400.568 163.086 400.856C162.809 401.133 162.579 401.368 162.398 401.56C162.217 401.741 162.126 401.843 162.126 401.864C162.126 401.917 162.201 401.955 162.35 401.976C162.531 401.987 162.734 401.997 162.958 402.008C163.193 402.019 163.459 402.024 163.758 402.024C164.067 402.024 164.377 402.019 164.686 402.008C164.995 401.997 165.294 401.987 165.582 401.976C165.891 401.955 166.131 401.928 166.302 401.896C166.473 401.864 166.617 401.8 166.734 401.704C166.851 401.597 166.974 401.437 167.102 401.224C167.145 401.16 167.198 401.085 167.262 401C167.337 400.904 167.417 400.856 167.502 400.856C167.555 400.856 167.587 400.877 167.598 400.92C167.609 400.963 167.614 401.005 167.614 401.048C167.614 401.101 167.582 401.208 167.518 401.368C167.465 401.517 167.401 401.704 167.326 401.928C167.251 402.152 167.187 402.397 167.134 402.664C167.102 402.835 167.049 402.941 166.974 402.984C166.899 403.027 166.835 403.048 166.782 403.048ZM174.889 403.224C174.345 403.224 173.87 403.075 173.465 402.776C173.07 402.477 172.739 402.083 172.473 401.592C172.206 401.091 172.009 400.541 171.881 399.944C171.753 399.347 171.689 398.755 171.689 398.168C171.689 397.56 171.753 396.947 171.881 396.328C172.009 395.709 172.206 395.144 172.473 394.632C172.75 394.12 173.102 393.709 173.529 393.4C173.955 393.08 174.462 392.92 175.049 392.92C175.593 392.92 176.062 393.069 176.457 393.368C176.862 393.667 177.198 394.067 177.465 394.568C177.731 395.059 177.929 395.603 178.057 396.2C178.185 396.787 178.249 397.368 178.249 397.944C178.249 398.541 178.185 399.149 178.057 399.768C177.929 400.387 177.726 400.957 177.449 401.48C177.182 402.003 176.835 402.424 176.409 402.744C175.993 403.064 175.486 403.224 174.889 403.224ZM175.161 402.808C175.587 402.808 175.929 402.595 176.185 402.168C176.451 401.731 176.643 401.165 176.761 400.472C176.878 399.779 176.937 399.032 176.937 398.232C176.937 397.635 176.889 397.048 176.793 396.472C176.707 395.896 176.569 395.373 176.377 394.904C176.195 394.435 175.966 394.061 175.689 393.784C175.422 393.507 175.107 393.368 174.745 393.368C174.318 393.368 173.977 393.576 173.721 393.992C173.475 394.408 173.294 394.963 173.177 395.656C173.07 396.339 173.017 397.08 173.017 397.88C173.017 398.477 173.059 399.069 173.145 399.656C173.241 400.243 173.374 400.776 173.545 401.256C173.726 401.725 173.95 402.104 174.217 402.392C174.483 402.669 174.798 402.808 175.161 402.808ZM182.576 403.224C182.032 403.224 181.558 403.075 181.152 402.776C180.758 402.477 180.427 402.083 180.16 401.592C179.894 401.091 179.696 400.541 179.568 399.944C179.44 399.347 179.376 398.755 179.376 398.168C179.376 397.56 179.44 396.947 179.568 396.328C179.696 395.709 179.894 395.144 180.16 394.632C180.438 394.12 180.79 393.709 181.216 393.4C181.643 393.08 182.15 392.92 182.736 392.92C183.28 392.92 183.75 393.069 184.144 393.368C184.55 393.667 184.886 394.067 185.152 394.568C185.419 395.059 185.616 395.603 185.744 396.2C185.872 396.787 185.936 397.368 185.936 397.944C185.936 398.541 185.872 399.149 185.744 399.768C185.616 400.387 185.414 400.957 185.136 401.48C184.87 402.003 184.523 402.424 184.096 402.744C183.68 403.064 183.174 403.224 182.576 403.224ZM182.848 402.808C183.275 402.808 183.616 402.595 183.872 402.168C184.139 401.731 184.331 401.165 184.448 400.472C184.566 399.779 184.624 399.032 184.624 398.232C184.624 397.635 184.576 397.048 184.48 396.472C184.395 395.896 184.256 395.373 184.064 394.904C183.883 394.435 183.654 394.061 183.376 393.784C183.11 393.507 182.795 393.368 182.432 393.368C182.006 393.368 181.664 393.576 181.408 393.992C181.163 394.408 180.982 394.963 180.864 395.656C180.758 396.339 180.704 397.08 180.704 397.88C180.704 398.477 180.747 399.069 180.832 399.656C180.928 400.243 181.062 400.776 181.232 401.256C181.414 401.725 181.638 402.104 181.904 402.392C182.171 402.669 182.486 402.808 182.848 402.808ZM190.264 403.224C189.72 403.224 189.245 403.075 188.84 402.776C188.445 402.477 188.114 402.083 187.848 401.592C187.581 401.091 187.384 400.541 187.256 399.944C187.128 399.347 187.064 398.755 187.064 398.168C187.064 397.56 187.128 396.947 187.256 396.328C187.384 395.709 187.581 395.144 187.848 394.632C188.125 394.12 188.477 393.709 188.904 393.4C189.33 393.08 189.837 392.92 190.424 392.92C190.968 392.92 191.437 393.069 191.832 393.368C192.237 393.667 192.573 394.067 192.84 394.568C193.106 395.059 193.304 395.603 193.432 396.2C193.56 396.787 193.624 397.368 193.624 397.944C193.624 398.541 193.56 399.149 193.432 399.768C193.304 400.387 193.101 400.957 192.824 401.48C192.557 402.003 192.21 402.424 191.784 402.744C191.368 403.064 190.861 403.224 190.264 403.224ZM190.536 402.808C190.962 402.808 191.304 402.595 191.56 402.168C191.826 401.731 192.018 401.165 192.136 400.472C192.253 399.779 192.312 399.032 192.312 398.232C192.312 397.635 192.264 397.048 192.168 396.472C192.082 395.896 191.944 395.373 191.752 394.904C191.57 394.435 191.341 394.061 191.064 393.784C190.797 393.507 190.482 393.368 190.12 393.368C189.693 393.368 189.352 393.576 189.096 393.992C188.85 394.408 188.669 394.963 188.552 395.656C188.445 396.339 188.392 397.08 188.392 397.88C188.392 398.477 188.434 399.069 188.52 399.656C188.616 400.243 188.749 400.776 188.92 401.256C189.101 401.725 189.325 402.104 189.592 402.392C189.858 402.669 190.173 402.808 190.536 402.808ZM197.666 403.08C197.528 403.08 197.416 403.059 197.33 403.016C197.245 402.984 197.202 402.936 197.202 402.872C197.202 402.797 197.245 402.733 197.33 402.68C197.426 402.616 197.56 402.557 197.73 402.504C198.008 402.419 198.264 402.291 198.498 402.12C198.733 401.949 198.936 401.667 199.106 401.272C199.405 400.589 199.677 399.949 199.922 399.352C200.178 398.755 200.418 398.168 200.642 397.592C200.866 397.016 201.096 396.419 201.33 395.8C201.576 395.171 201.832 394.488 202.098 393.752C202.152 393.603 202.2 393.453 202.242 393.304C202.285 393.155 202.312 392.995 202.322 392.824C202.418 392.792 202.514 392.76 202.61 392.728C202.706 392.696 202.802 392.648 202.898 392.584C202.994 392.52 203.058 392.424 203.09 392.296C203.133 392.168 203.17 392.083 203.202 392.04C203.213 392.029 203.224 392.024 203.234 392.024C203.256 392.024 203.272 392.035 203.282 392.056C203.304 392.099 203.32 392.152 203.33 392.216C203.352 392.28 203.373 392.344 203.394 392.408C203.65 393.219 203.917 394.045 204.194 394.888C204.472 395.731 204.738 396.547 204.994 397.336C205.261 398.115 205.501 398.819 205.714 399.448C205.938 400.067 206.114 400.568 206.242 400.952C206.392 401.379 206.552 401.699 206.722 401.912C206.893 402.125 207.069 402.275 207.25 402.36C207.442 402.445 207.645 402.509 207.858 402.552C208.04 402.584 208.173 402.637 208.258 402.712C208.344 402.776 208.386 402.845 208.386 402.92C208.386 402.984 208.344 403.027 208.258 403.048C208.173 403.069 208.061 403.08 207.922 403.08C207.773 403.08 207.57 403.069 207.314 403.048C207.058 403.037 206.786 403.021 206.498 403C206.21 402.989 205.944 402.984 205.698 402.984C205.496 402.984 205.288 402.984 205.074 402.984C204.861 402.984 204.664 402.989 204.482 403C204.301 403 204.146 403 204.018 403C203.88 403 203.768 402.984 203.682 402.952C203.597 402.92 203.554 402.872 203.554 402.808C203.554 402.733 203.608 402.669 203.714 402.616C203.821 402.563 203.944 402.525 204.082 402.504C204.434 402.451 204.685 402.36 204.834 402.232C204.984 402.104 205.058 401.955 205.058 401.784C205.058 401.624 205.021 401.395 204.946 401.096C204.882 400.787 204.802 400.461 204.706 400.12C204.61 399.768 204.52 399.459 204.434 399.192C204.413 399.107 204.37 399.059 204.306 399.048C204.253 399.027 204.152 399.016 204.002 399.016H200.978C200.936 399.016 200.888 399.037 200.834 399.08C200.792 399.112 200.749 399.187 200.706 399.304C200.674 399.411 200.621 399.581 200.546 399.816C200.472 400.04 200.397 400.28 200.322 400.536C200.248 400.792 200.184 401.021 200.13 401.224C200.077 401.427 200.05 401.555 200.05 401.608C200.05 401.843 200.141 402.04 200.322 402.2C200.504 402.349 200.722 402.456 200.978 402.52C201.33 402.616 201.506 402.723 201.506 402.84C201.506 402.904 201.464 402.952 201.378 402.984C201.293 403.005 201.181 403.016 201.042 403.016C200.904 403.016 200.701 403.011 200.434 403C200.168 402.989 199.885 402.984 199.586 402.984C199.234 402.984 198.893 403 198.562 403.032C198.232 403.064 197.933 403.08 197.666 403.08ZM201.41 398.488H203.89C204.04 398.488 204.114 398.461 204.114 398.408C204.114 398.387 204.109 398.365 204.098 398.344C204.098 398.312 204.093 398.28 204.082 398.248L202.834 394.344C202.77 394.152 202.722 394.056 202.69 394.056C202.669 394.056 202.626 394.147 202.562 394.328L201.106 398.248C201.085 398.312 201.074 398.355 201.074 398.376C201.074 398.429 201.101 398.461 201.154 398.472C201.218 398.483 201.304 398.488 201.41 398.488ZM210.612 403.336C210.569 403.336 210.516 403.251 210.452 403.08C210.388 402.92 210.345 402.803 210.324 402.728C210.249 402.547 210.18 402.36 210.116 402.168C210.052 401.965 209.988 401.779 209.924 401.608C209.689 400.947 209.433 400.301 209.156 399.672C208.889 399.032 208.628 398.387 208.372 397.736C208.297 397.544 208.18 397.373 208.02 397.224C207.87 397.064 207.716 396.963 207.556 396.92C207.47 396.888 207.401 396.856 207.348 396.824C207.294 396.792 207.268 396.739 207.268 396.664C207.268 396.6 207.305 396.563 207.38 396.552C207.465 396.531 207.534 396.52 207.588 396.52C207.801 396.52 207.956 396.525 208.052 396.536C208.148 396.547 208.244 396.563 208.34 396.584C208.436 396.595 208.574 396.6 208.756 396.6C208.948 396.6 209.092 396.595 209.188 396.584C209.284 396.563 209.385 396.547 209.492 396.536C209.598 396.525 209.753 396.52 209.956 396.52C210.009 396.52 210.073 396.531 210.148 396.552C210.233 396.563 210.276 396.6 210.276 396.664C210.276 396.739 210.238 396.797 210.164 396.84C210.089 396.883 210.004 396.92 209.908 396.952C209.801 396.995 209.721 397.08 209.668 397.208C209.614 397.325 209.588 397.459 209.588 397.608C209.588 397.683 209.593 397.757 209.604 397.832C209.614 397.907 209.63 397.976 209.652 398.04L210.916 401.4C210.926 401.411 210.932 401.416 210.932 401.416C210.942 401.416 210.953 401.411 210.964 401.4L212.18 398.28C212.222 398.173 212.254 398.061 212.276 397.944C212.297 397.816 212.308 397.709 212.308 397.624C212.308 397.411 212.276 397.261 212.212 397.176C212.148 397.08 212.041 397.005 211.891 396.952C211.753 396.899 211.657 396.856 211.604 396.824C211.55 396.792 211.524 396.739 211.524 396.664C211.524 396.6 211.556 396.563 211.62 396.552C211.694 396.531 211.769 396.52 211.844 396.52C211.961 396.52 212.116 396.536 212.308 396.568C212.5 396.589 212.734 396.6 213.012 396.6C213.289 396.6 213.476 396.589 213.572 396.568C213.678 396.536 213.806 396.52 213.956 396.52C214.041 396.52 214.116 396.531 214.18 396.552C214.244 396.563 214.276 396.6 214.276 396.664C214.276 396.781 214.153 396.877 213.908 396.952C213.748 396.995 213.572 397.117 213.38 397.32C213.188 397.523 213.033 397.757 212.916 398.024L211.668 401.032C211.646 401.075 211.604 401.181 211.54 401.352C211.476 401.512 211.406 401.693 211.332 401.896C211.257 402.088 211.193 402.259 211.14 402.408C211.086 402.547 211.06 402.616 211.06 402.616C211.06 402.616 211.038 402.669 210.996 402.776C210.953 402.872 210.905 402.973 210.852 403.08C210.798 403.197 210.75 403.283 210.708 403.336H210.612ZM214.918 403.224C214.683 403.224 214.475 403.139 214.294 402.968C214.123 402.787 214.038 402.579 214.038 402.344C214.038 402.099 214.123 401.891 214.294 401.72C214.475 401.549 214.683 401.464 214.918 401.464C215.163 401.464 215.371 401.549 215.542 401.72C215.713 401.891 215.798 402.099 215.798 402.344C215.798 402.579 215.713 402.787 215.542 402.968C215.371 403.139 215.163 403.224 214.918 403.224ZM220.513 406.2C219.414 406.2 218.865 405.939 218.865 405.416C218.865 405.235 218.939 405.064 219.089 404.904C219.238 404.744 219.371 404.664 219.489 404.664C219.627 404.664 219.761 404.691 219.889 404.744C220.017 404.808 220.134 404.915 220.241 405.064C220.379 405.235 220.502 405.357 220.609 405.432C220.726 405.507 220.854 405.544 220.993 405.544C221.366 405.544 221.633 405.315 221.793 404.856C221.963 404.408 222.049 403.795 222.049 403.016V394.184C222.049 393.811 221.969 393.549 221.809 393.4C221.649 393.24 221.377 393.123 220.993 393.048C220.641 392.984 220.465 392.877 220.465 392.728C220.465 392.664 220.507 392.621 220.593 392.6C220.678 392.568 220.79 392.552 220.929 392.552C221.217 392.552 221.451 392.557 221.633 392.568C221.825 392.579 222.006 392.589 222.177 392.6C222.347 392.6 222.555 392.6 222.801 392.6C223.003 392.6 223.158 392.6 223.265 392.6C223.382 392.589 223.51 392.579 223.649 392.568C223.798 392.557 224.017 392.552 224.305 392.552C224.443 392.552 224.555 392.568 224.641 392.6C224.726 392.621 224.769 392.664 224.769 392.728C224.769 392.803 224.726 392.867 224.641 392.92C224.555 392.973 224.422 393.016 224.241 393.048C223.846 393.123 223.595 393.24 223.489 393.4C223.382 393.549 223.329 393.811 223.329 394.184V402.248C223.329 402.696 223.259 403.117 223.121 403.512C222.982 403.907 222.811 404.259 222.609 404.568C222.417 404.877 222.235 405.133 222.065 405.336C221.851 405.592 221.617 405.8 221.361 405.96C221.105 406.12 220.822 406.2 220.513 406.2ZM225.966 400.28C225.902 400.28 225.87 400.248 225.87 400.184C225.87 400.003 225.892 399.816 225.934 399.624C225.988 399.432 226.052 399.331 226.126 399.32C226.638 399.245 227.15 399.176 227.662 399.112C228.174 399.037 228.686 398.973 229.198 398.92C229.23 398.92 229.257 398.931 229.278 398.952C229.31 398.963 229.326 398.984 229.326 399.016C229.326 399.219 229.3 399.411 229.246 399.592C229.204 399.763 229.118 399.859 228.99 399.88C228.51 399.955 228.02 400.029 227.518 400.104C227.028 400.168 226.51 400.227 225.966 400.28ZM236.309 403.24C235.562 403.24 234.842 403.112 234.149 402.856C233.456 402.6 232.837 402.237 232.293 401.768C231.749 401.288 231.317 400.717 230.997 400.056C230.688 399.384 230.533 398.643 230.533 397.832C230.533 397.053 230.698 396.333 231.029 395.672C231.36 395.011 231.813 394.435 232.389 393.944C232.965 393.453 233.621 393.075 234.357 392.808C235.104 392.531 235.888 392.392 236.709 392.392C237.125 392.392 237.477 392.408 237.765 392.44C238.053 392.472 238.33 392.52 238.597 392.584C238.874 392.637 239.194 392.712 239.557 392.808C239.717 392.851 239.829 392.915 239.893 393C239.968 393.085 240.01 393.203 240.021 393.352C240.042 393.597 240.069 393.864 240.101 394.152C240.133 394.429 240.154 394.776 240.165 395.192C240.176 395.267 240.138 395.331 240.053 395.384C239.978 395.427 239.893 395.437 239.797 395.416C239.712 395.395 239.653 395.325 239.621 395.208C239.514 394.803 239.392 394.456 239.253 394.168C239.114 393.869 238.906 393.624 238.629 393.432C238.362 393.251 238.037 393.117 237.653 393.032C237.28 392.936 236.874 392.888 236.437 392.888C235.818 392.888 235.242 393.016 234.709 393.272C234.186 393.517 233.733 393.859 233.349 394.296C232.976 394.723 232.682 395.208 232.469 395.752C232.256 396.296 232.149 396.861 232.149 397.448C232.149 398.099 232.25 398.739 232.453 399.368C232.666 399.997 232.965 400.568 233.349 401.08C233.744 401.581 234.208 401.987 234.741 402.296C235.285 402.595 235.888 402.744 236.549 402.744C237.317 402.744 237.952 402.568 238.453 402.216C238.954 401.864 239.381 401.373 239.733 400.744C239.808 400.605 239.914 400.536 240.053 400.536C240.202 400.536 240.277 400.621 240.277 400.792C240.277 400.877 240.256 401.016 240.213 401.208C240.17 401.389 240.112 401.587 240.037 401.8C239.973 402.003 239.909 402.184 239.845 402.344C239.77 402.493 239.706 402.589 239.653 402.632C239.61 402.675 239.504 402.723 239.333 402.776C238.938 402.936 238.464 403.053 237.909 403.128C237.365 403.203 236.832 403.24 236.309 403.24ZM252.955 398.84C252.677 398.84 252.416 398.787 252.171 398.68C251.925 398.573 251.685 398.461 251.451 398.344C251.237 398.227 251.019 398.12 250.795 398.024C250.581 397.928 250.357 397.88 250.123 397.88C249.856 397.88 249.616 397.955 249.403 398.104C249.2 398.243 249.035 398.387 248.907 398.536C248.779 398.685 248.699 398.76 248.667 398.76C248.603 398.76 248.533 398.739 248.459 398.696C248.395 398.643 248.363 398.589 248.363 398.536C248.363 398.429 248.411 398.285 248.507 398.104C248.603 397.923 248.736 397.741 248.907 397.56C249.088 397.379 249.296 397.224 249.531 397.096C249.765 396.968 250.021 396.904 250.299 396.904C250.576 396.904 250.827 396.957 251.051 397.064C251.285 397.171 251.504 397.283 251.707 397.4C251.92 397.528 252.128 397.645 252.331 397.752C252.533 397.848 252.741 397.896 252.955 397.896C253.136 397.896 253.312 397.848 253.483 397.752C253.653 397.645 253.803 397.528 253.931 397.4C254.069 397.261 254.181 397.144 254.267 397.048C254.363 396.941 254.421 396.888 254.443 396.888C254.485 396.888 254.549 396.915 254.635 396.968C254.72 397.021 254.763 397.101 254.763 397.208C254.763 397.368 254.704 397.544 254.587 397.736C254.48 397.928 254.336 398.109 254.155 398.28C253.973 398.44 253.776 398.573 253.563 398.68C253.349 398.787 253.147 398.84 252.955 398.84Z" fill="black"/>
<path d="M36.712 692.048C36.6373 692.048 36.5787 692.027 36.536 691.984C36.4933 691.941 36.472 691.899 36.472 691.856C36.472 691.76 36.552 691.691 36.712 691.648C37.1173 691.541 37.448 691.445 37.704 691.36C37.9707 691.264 38.1627 691.136 38.28 690.976C38.408 690.805 38.472 690.565 38.472 690.256V684.144C38.472 683.941 38.408 683.787 38.28 683.68C38.152 683.573 37.9867 683.499 37.784 683.456C37.5813 683.413 37.3627 683.387 37.128 683.376C37.0213 683.365 36.9253 683.339 36.84 683.296C36.7547 683.253 36.712 683.189 36.712 683.104C36.712 683.029 36.7493 682.965 36.824 682.912C36.9093 682.859 37.0053 682.827 37.112 682.816C37.592 682.741 38.0187 682.651 38.392 682.544C38.776 682.427 39.1493 682.187 39.512 681.824C39.5227 681.813 39.5333 681.808 39.544 681.808C39.5653 681.808 39.5813 681.808 39.592 681.808C39.6453 681.808 39.6933 681.824 39.736 681.856C39.7787 681.877 39.7947 681.909 39.784 681.952C39.7627 682.112 39.7467 682.288 39.736 682.48C39.7253 682.661 39.72 682.864 39.72 683.088V690.448C39.72 690.715 39.768 690.917 39.864 691.056C39.9707 691.195 40.1467 691.307 40.392 691.392C40.6373 691.467 40.9787 691.557 41.416 691.664C41.48 691.675 41.5387 691.701 41.592 691.744C41.656 691.776 41.688 691.819 41.688 691.872C41.688 691.989 41.6133 692.048 41.464 692.048C41.1653 692.048 40.888 692.037 40.632 692.016C40.3867 692.005 40.1413 691.995 39.896 691.984C39.6613 691.973 39.4 691.968 39.112 691.968C38.824 691.968 38.552 691.973 38.296 691.984C38.04 691.995 37.784 692.005 37.528 692.016C37.272 692.037 37 692.048 36.712 692.048ZM44.4315 692.608C44.3142 692.608 44.1862 692.592 44.0475 692.56C43.9088 692.539 43.8395 692.491 43.8395 692.416C43.8395 692.331 43.9088 692.256 44.0475 692.192C44.1968 692.139 44.3195 692.112 44.4155 692.112C45.2582 692.112 45.9515 691.963 46.4955 691.664C47.0502 691.355 47.4608 690.971 47.7275 690.512C48.0048 690.053 48.1435 689.595 48.1435 689.136C48.1435 688.72 48.0208 688.352 47.7755 688.032C47.5302 687.712 47.1248 687.419 46.5595 687.152C46.0048 686.885 45.2528 686.629 44.3035 686.384C44.1648 686.267 44.0635 686.149 43.9995 686.032C43.9462 685.915 43.9195 685.787 43.9195 685.648C43.9195 685.499 43.9462 685.317 43.9995 685.104C44.0635 684.891 44.1382 684.667 44.2235 684.432C44.3088 684.187 44.3942 683.947 44.4795 683.712C44.5648 683.477 44.6342 683.275 44.6875 683.104C44.7408 682.944 44.8208 682.821 44.9275 682.736C45.0342 682.64 45.1728 682.571 45.3435 682.528C45.5888 682.464 45.8395 682.405 46.0955 682.352C46.3515 682.299 46.6182 682.251 46.8955 682.208C47.1728 682.155 47.4555 682.112 47.7435 682.08C48.0422 682.037 48.3462 682 48.6555 681.968C48.7408 681.957 48.7995 681.984 48.8315 682.048C48.8742 682.101 48.8742 682.165 48.8315 682.24C48.7888 682.325 48.7408 682.416 48.6875 682.512C48.6448 682.597 48.6022 682.683 48.5595 682.768C48.4848 682.928 48.3995 683.051 48.3035 683.136C48.2182 683.211 48.1062 683.259 47.9675 683.28C47.7648 683.301 47.5302 683.328 47.2635 683.36C46.9968 683.381 46.7302 683.408 46.4635 683.44C46.1968 683.461 45.9515 683.483 45.7275 683.504C45.5035 683.525 45.3328 683.547 45.2155 683.568C45.1408 683.579 45.0502 683.675 44.9435 683.856C44.8368 684.027 44.7408 684.213 44.6555 684.416C44.5702 684.608 44.5222 684.747 44.5115 684.832C44.5008 684.907 44.5062 684.971 44.5275 685.024C44.5595 685.077 44.6235 685.115 44.7195 685.136C45.3168 685.307 45.8608 685.483 46.3515 685.664C46.8422 685.835 47.2688 686.016 47.6315 686.208C48.2288 686.517 48.6715 686.885 48.9595 687.312C49.2582 687.728 49.4075 688.261 49.4075 688.912C49.4075 689.499 49.2315 690.048 48.8795 690.56C48.5275 691.072 48.0528 691.499 47.4555 691.84C47.1675 692 46.8635 692.133 46.5435 692.24C46.2235 692.357 45.8875 692.448 45.5355 692.512C45.1835 692.576 44.8155 692.608 44.4315 692.608ZM54.295 692.224C53.751 692.224 53.2763 692.075 52.871 691.776C52.4763 691.477 52.1457 691.083 51.879 690.592C51.6123 690.091 51.415 689.541 51.287 688.944C51.159 688.347 51.095 687.755 51.095 687.168C51.095 686.56 51.159 685.947 51.287 685.328C51.415 684.709 51.6123 684.144 51.879 683.632C52.1563 683.12 52.5083 682.709 52.935 682.4C53.3617 682.08 53.8683 681.92 54.455 681.92C54.999 681.92 55.4683 682.069 55.863 682.368C56.2683 682.667 56.6043 683.067 56.871 683.568C57.1377 684.059 57.335 684.603 57.463 685.2C57.591 685.787 57.655 686.368 57.655 686.944C57.655 687.541 57.591 688.149 57.463 688.768C57.335 689.387 57.1323 689.957 56.855 690.48C56.5883 691.003 56.2417 691.424 55.815 691.744C55.399 692.064 54.8923 692.224 54.295 692.224ZM54.567 691.808C54.9937 691.808 55.335 691.595 55.591 691.168C55.8577 690.731 56.0497 690.165 56.167 689.472C56.2843 688.779 56.343 688.032 56.343 687.232C56.343 686.635 56.295 686.048 56.199 685.472C56.1137 684.896 55.975 684.373 55.783 683.904C55.6017 683.435 55.3723 683.061 55.095 682.784C54.8283 682.507 54.5137 682.368 54.151 682.368C53.7243 682.368 53.383 682.576 53.127 682.992C52.8817 683.408 52.7003 683.963 52.583 684.656C52.4763 685.339 52.423 686.08 52.423 686.88C52.423 687.477 52.4657 688.069 52.551 688.656C52.647 689.243 52.7803 689.776 52.951 690.256C53.1323 690.725 53.3563 691.104 53.623 691.392C53.8897 691.669 54.2043 691.808 54.567 691.808ZM61.9825 692.224C61.4385 692.224 60.9638 692.075 60.5585 691.776C60.1638 691.477 59.8332 691.083 59.5665 690.592C59.2998 690.091 59.1025 689.541 58.9745 688.944C58.8465 688.347 58.7825 687.755 58.7825 687.168C58.7825 686.56 58.8465 685.947 58.9745 685.328C59.1025 684.709 59.2998 684.144 59.5665 683.632C59.8438 683.12 60.1958 682.709 60.6225 682.4C61.0492 682.08 61.5558 681.92 62.1425 681.92C62.6865 681.92 63.1558 682.069 63.5505 682.368C63.9558 682.667 64.2918 683.067 64.5585 683.568C64.8252 684.059 65.0225 684.603 65.1505 685.2C65.2785 685.787 65.3425 686.368 65.3425 686.944C65.3425 687.541 65.2785 688.149 65.1505 688.768C65.0225 689.387 64.8198 689.957 64.5425 690.48C64.2758 691.003 63.9292 691.424 63.5025 691.744C63.0865 692.064 62.5798 692.224 61.9825 692.224ZM62.2545 691.808C62.6812 691.808 63.0225 691.595 63.2785 691.168C63.5452 690.731 63.7372 690.165 63.8545 689.472C63.9718 688.779 64.0305 688.032 64.0305 687.232C64.0305 686.635 63.9825 686.048 63.8865 685.472C63.8012 684.896 63.6625 684.373 63.4705 683.904C63.2892 683.435 63.0598 683.061 62.7825 682.784C62.5158 682.507 62.2012 682.368 61.8385 682.368C61.4118 682.368 61.0705 682.576 60.8145 682.992C60.5692 683.408 60.3878 683.963 60.2705 684.656C60.1638 685.339 60.1105 686.08 60.1105 686.88C60.1105 687.477 60.1532 688.069 60.2385 688.656C60.3345 689.243 60.4678 689.776 60.6385 690.256C60.8198 690.725 61.0438 691.104 61.3105 691.392C61.5772 691.669 61.8918 691.808 62.2545 691.808ZM69.5131 689.28C69.4491 689.28 69.4171 689.248 69.4171 689.184C69.4171 689.003 69.4385 688.816 69.4811 688.624C69.5345 688.432 69.5985 688.331 69.6731 688.32C70.1851 688.245 70.6971 688.176 71.2091 688.112C71.7211 688.037 72.2331 687.973 72.7451 687.92C72.7771 687.92 72.8038 687.931 72.8251 687.952C72.8571 687.963 72.8731 687.984 72.8731 688.016C72.8731 688.219 72.8465 688.411 72.7931 688.592C72.7505 688.763 72.6651 688.859 72.5371 688.88C72.0571 688.955 71.5665 689.029 71.0651 689.104C70.5745 689.168 70.0571 689.227 69.5131 689.28ZM78.2589 692.048C78.1842 692.048 78.1255 692.027 78.0829 691.984C78.0402 691.941 78.0189 691.899 78.0189 691.856C78.0189 691.76 78.0989 691.691 78.2589 691.648C78.6642 691.541 78.9949 691.445 79.2509 691.36C79.5175 691.264 79.7095 691.136 79.8269 690.976C79.9549 690.805 80.0189 690.565 80.0189 690.256V684.144C80.0189 683.941 79.9549 683.787 79.8269 683.68C79.6989 683.573 79.5335 683.499 79.3309 683.456C79.1282 683.413 78.9095 683.387 78.6749 683.376C78.5682 683.365 78.4722 683.339 78.3869 683.296C78.3015 683.253 78.2589 683.189 78.2589 683.104C78.2589 683.029 78.2962 682.965 78.3709 682.912C78.4562 682.859 78.5522 682.827 78.6589 682.816C79.1389 682.741 79.5655 682.651 79.9389 682.544C80.3229 682.427 80.6962 682.187 81.0589 681.824C81.0695 681.813 81.0802 681.808 81.0909 681.808C81.1122 681.808 81.1282 681.808 81.1389 681.808C81.1922 681.808 81.2402 681.824 81.2829 681.856C81.3255 681.877 81.3415 681.909 81.3309 681.952C81.3095 682.112 81.2935 682.288 81.2829 682.48C81.2722 682.661 81.2669 682.864 81.2669 683.088V690.448C81.2669 690.715 81.3149 690.917 81.4109 691.056C81.5175 691.195 81.6935 691.307 81.9389 691.392C82.1842 691.467 82.5255 691.557 82.9629 691.664C83.0269 691.675 83.0855 691.701 83.1389 691.744C83.2029 691.776 83.2349 691.819 83.2349 691.872C83.2349 691.989 83.1602 692.048 83.0109 692.048C82.7122 692.048 82.4349 692.037 82.1789 692.016C81.9335 692.005 81.6882 691.995 81.4429 691.984C81.2082 691.973 80.9469 691.968 80.6589 691.968C80.3709 691.968 80.0989 691.973 79.8429 691.984C79.5869 691.995 79.3309 692.005 79.0749 692.016C78.8189 692.037 78.5469 692.048 78.2589 692.048ZM88.2664 692.256C87.7224 692.256 87.1997 692.133 86.6984 691.888C86.197 691.643 85.7864 691.275 85.4664 690.784C85.1464 690.283 84.9864 689.659 84.9864 688.912C84.9864 688.315 85.0557 687.771 85.1944 687.28C85.333 686.789 85.509 686.357 85.7224 685.984C85.9357 685.6 86.149 685.275 86.3624 685.008C86.5864 684.731 86.773 684.517 86.9224 684.368C87.189 684.091 87.5304 683.781 87.9464 683.44C88.3624 683.099 88.8424 682.773 89.3864 682.464C89.941 682.155 90.5437 681.915 91.1944 681.744C91.2904 681.723 91.365 681.728 91.4184 681.76C91.4824 681.792 91.5037 681.824 91.4824 681.856C91.4397 681.952 91.3704 682.027 91.2744 682.08C91.189 682.123 91.1197 682.155 91.0664 682.176C90.3517 682.485 89.733 682.837 89.2104 683.232C88.6984 683.627 88.2397 684.117 87.8344 684.704C87.6637 684.96 87.461 685.312 87.2264 685.76C86.9917 686.197 86.789 686.688 86.6184 687.232C86.4477 687.776 86.3624 688.325 86.3624 688.88C86.373 689.467 86.4957 689.968 86.7304 690.384C86.965 690.789 87.253 691.099 87.5944 691.312C87.9464 691.525 88.2984 691.637 88.6504 691.648C89.0877 691.659 89.4717 691.509 89.8024 691.2C90.133 690.88 90.2984 690.389 90.2984 689.728C90.2984 689.397 90.2344 689.093 90.1064 688.816C89.989 688.528 89.8184 688.293 89.5944 688.112C89.381 687.931 89.1304 687.84 88.8424 687.84C88.565 687.84 88.325 687.856 88.1224 687.888C87.9304 687.92 87.7437 687.984 87.5624 688.08C87.4664 688.123 87.4077 688.123 87.3864 688.08C87.3757 688.027 87.397 687.968 87.4504 687.904C87.5357 687.819 87.605 687.749 87.6584 687.696C87.7224 687.643 87.797 687.584 87.8824 687.52C87.9997 687.435 88.213 687.328 88.5224 687.2C88.8424 687.061 89.1517 686.992 89.4504 686.992C89.8237 686.992 90.165 687.077 90.4744 687.248C90.7944 687.419 91.0504 687.653 91.2424 687.952C91.445 688.24 91.5464 688.576 91.5464 688.96C91.5464 689.461 91.4504 689.915 91.2584 690.32C91.0664 690.725 90.8104 691.072 90.4904 691.36C90.1704 691.648 89.813 691.867 89.4184 692.016C89.0344 692.176 88.6504 692.256 88.2664 692.256ZM95.8419 692.224C95.2979 692.224 94.8232 692.075 94.4179 691.776C94.0232 691.477 93.6925 691.083 93.4259 690.592C93.1592 690.091 92.9619 689.541 92.8339 688.944C92.7059 688.347 92.6419 687.755 92.6419 687.168C92.6419 686.56 92.7059 685.947 92.8339 685.328C92.9619 684.709 93.1592 684.144 93.4259 683.632C93.7032 683.12 94.0552 682.709 94.4819 682.4C94.9085 682.08 95.4152 681.92 96.0019 681.92C96.5459 681.92 97.0152 682.069 97.4099 682.368C97.8152 682.667 98.1512 683.067 98.4179 683.568C98.6845 684.059 98.8819 684.603 99.0099 685.2C99.1379 685.787 99.2019 686.368 99.2019 686.944C99.2019 687.541 99.1379 688.149 99.0099 688.768C98.8819 689.387 98.6792 689.957 98.4019 690.48C98.1352 691.003 97.7885 691.424 97.3619 691.744C96.9459 692.064 96.4392 692.224 95.8419 692.224ZM96.1139 691.808C96.5405 691.808 96.8819 691.595 97.1379 691.168C97.4045 690.731 97.5965 690.165 97.7139 689.472C97.8312 688.779 97.8899 688.032 97.8899 687.232C97.8899 686.635 97.8419 686.048 97.7459 685.472C97.6605 684.896 97.5219 684.373 97.3299 683.904C97.1485 683.435 96.9192 683.061 96.6419 682.784C96.3752 682.507 96.0605 682.368 95.6979 682.368C95.2712 682.368 94.9299 682.576 94.6739 682.992C94.4285 683.408 94.2472 683.963 94.1299 684.656C94.0232 685.339 93.9699 686.08 93.9699 686.88C93.9699 687.477 94.0125 688.069 94.0979 688.656C94.1939 689.243 94.3272 689.776 94.4979 690.256C94.6792 690.725 94.9032 691.104 95.1699 691.392C95.4365 691.669 95.7512 691.808 96.1139 691.808ZM103.529 692.224C102.985 692.224 102.511 692.075 102.105 691.776C101.711 691.477 101.38 691.083 101.113 690.592C100.847 690.091 100.649 689.541 100.521 688.944C100.393 688.347 100.329 687.755 100.329 687.168C100.329 686.56 100.393 685.947 100.521 685.328C100.649 684.709 100.847 684.144 101.113 683.632C101.391 683.12 101.743 682.709 102.169 682.4C102.596 682.08 103.103 681.92 103.689 681.92C104.233 681.92 104.703 682.069 105.097 682.368C105.503 682.667 105.839 683.067 106.105 683.568C106.372 684.059 106.569 684.603 106.697 685.2C106.825 685.787 106.889 686.368 106.889 686.944C106.889 687.541 106.825 688.149 106.697 688.768C106.569 689.387 106.367 689.957 106.089 690.48C105.823 691.003 105.476 691.424 105.049 691.744C104.633 692.064 104.127 692.224 103.529 692.224ZM103.801 691.808C104.228 691.808 104.569 691.595 104.825 691.168C105.092 690.731 105.284 690.165 105.401 689.472C105.519 688.779 105.577 688.032 105.577 687.232C105.577 686.635 105.529 686.048 105.433 685.472C105.348 684.896 105.209 684.373 105.017 683.904C104.836 683.435 104.607 683.061 104.329 682.784C104.063 682.507 103.748 682.368 103.385 682.368C102.959 682.368 102.617 682.576 102.361 682.992C102.116 683.408 101.935 683.963 101.817 684.656C101.711 685.339 101.657 686.08 101.657 686.88C101.657 687.477 101.7 688.069 101.785 688.656C101.881 689.243 102.015 689.776 102.185 690.256C102.367 690.725 102.591 691.104 102.857 691.392C103.124 691.669 103.439 691.808 103.801 691.808Z" fill="black"/>
</svg>
